<svg width="360" height="640" viewBox="0 0 360 640" fill="none" xmlns="http://www.w3.org/2000/svg">
    <g clip-path="url(#clip0_281_22)">
        <rect width="360" height="640" fill="#153C5C" />
        <path
            d="M101.36 208.5C60.5947 207.877 0 233.5 0 233.5V362C0 362 38.6974 325.595 70.0112 316.5C100.186 307.736 150.472 316.5 150.472 316.5C150.472 316.5 197.005 330.882 227.798 334.5C260.018 338.286 278.628 330.912 310.871 334.5C335.05 337.19 372 346.5 372 346.5V1.33514e-05C372 1.33514e-05 241.711 -42.7814 180.253 1.33514e-05C167.476 8.89425 154.785 11.5414 150.472 26.5C145.988 42.0509 154.078 52.5042 163.011 66C174.319 83.0835 186.179 89.7266 205.331 97C230.891 106.707 251.093 84.3706 275.343 97C293.744 106.584 302.991 117.307 310.871 136.5C319.769 158.176 319.004 174.525 310.871 196.5C302.345 219.536 291.751 234.063 269.073 243.5C242.641 254.499 224.573 238.856 196.449 233.5C158.73 226.317 139.752 209.086 101.36 208.5Z"
            fill="#052E50" />
        <circle cx="214.5" cy="193.5" r="22.5" fill="#052E50" />
        <circle cx="29.5" cy="293.5" r="15.5" fill="#153C5C" />
        <circle cx="266.5" cy="299.5" r="20.5" fill="#153C5C" />
        <circle cx="308" cy="40" r="23" fill="#153C5C" />
        <circle cx="237.5" cy="25.5" r="8.5" fill="#153C5C" />
        <circle cx="339.5" cy="108.5" r="8.5" fill="#153C5C" />
    </g>
    <defs>
        <clipPath id="clip0_281_22">
            <rect width="360" height="640" fill="white" />
        </clipPath>
    </defs>
</svg>
