<svg width="360" height="640" viewBox="0 0 360 640" fill="none" xmlns="http://www.w3.org/2000/svg">
<g clip-path="url(#clip0_281_46)">
<rect width="360" height="640" fill="#153C5C"/>
<path d="M294.407 543.304C322.881 567.353 360 640 360 640V173.052C360 173.052 300.714 157.597 261.864 156.519C192.688 154.598 132.5 183 89 195.5C45.5 208 0 172.551 0 172.551V501.218C0 501.218 33.0508 501.218 65.5932 543.304C98.1356 585.389 157.627 587.393 184.068 557.332C210.508 527.271 265.932 519.255 294.407 543.304Z" fill="white" stroke="white"/>
<path d="M359.5 255.5C327.159 210.589 305.828 185.815 249 155.5C308.577 155.917 321.064 157.098 359.5 170V255.5Z" fill="#FF0000" stroke="#FF0F0F"/>
<path d="M0 535.5C23.1665 533.303 49.8814 548.158 91 567C46.0352 526.673 37.7317 507.023 0 502V535.5Z" fill="#FF0000" stroke="#FF0F0F"/>
</g>
<defs>
<clipPath id="clip0_281_46">
<rect width="360" height="640" fill="white"/>
</clipPath>
</defs>
</svg>
