<svg width="185" height="184" viewBox="0 0 185 184" fill="none" xmlns="http://www.w3.org/2000/svg">
<circle cx="93" cy="92" r="87" stroke="#BEBEBE" stroke-width="10"/>
<path d="M22 142.5C22 142.5 -20.5001 82.9999 30.9999 30C82.5 -23 147 22.9999 147 22.9999" stroke="#F74646" stroke-width="10"/>
<path d="M69.92 79.82H79.94V71.18C79.94 70.06 79.98 68.74 80.06 67.22C80.14 65.7 80.2 64.38 80.24 63.26H80C79.52 64.26 79.02 65.24 78.5 66.2C77.98 67.16 77.44 68.16 76.88 69.2L69.92 79.82ZM79.94 95V85.16H63.08V80.48L78.2 56.84H86.42V79.82H91.22V85.16H86.42V95H79.94ZM108.122 95.72C104.162 95.72 101.002 94 98.6417 90.56C96.3217 87.12 95.1617 82.18 95.1617 75.74C95.1617 69.3 96.3217 64.42 98.6417 61.1C101.002 57.78 104.162 56.12 108.122 56.12C112.082 56.12 115.222 57.78 117.542 61.1C119.902 64.42 121.082 69.3 121.082 75.74C121.082 82.18 119.902 87.12 117.542 90.56C115.222 94 112.082 95.72 108.122 95.72ZM108.122 90.32C109.362 90.32 110.462 89.86 111.422 88.94C112.382 87.98 113.122 86.44 113.642 84.32C114.202 82.2 114.482 79.34 114.482 75.74C114.482 72.14 114.202 69.3 113.642 67.22C113.122 65.14 112.382 63.68 111.422 62.84C110.462 61.96 109.362 61.52 108.122 61.52C106.922 61.52 105.842 61.96 104.882 62.84C103.922 63.68 103.162 65.14 102.602 67.22C102.042 69.3 101.762 72.14 101.762 75.74C101.762 79.34 102.042 82.2 102.602 84.32C103.162 86.44 103.922 87.98 104.882 88.94C105.842 89.86 106.922 90.32 108.122 90.32Z" fill="black"/>
<line x1="54" y1="109.5" x2="132" y2="109.5" stroke="#F74646" stroke-width="3"/>
<path d="M71.32 150V123.84H76.56L81.2 136.64C81.4933 137.467 81.7733 138.32 82.04 139.2C82.3333 140.053 82.6133 140.907 82.88 141.76H83.04C83.3333 140.907 83.6133 140.053 83.88 139.2C84.1467 138.32 84.4133 137.467 84.68 136.64L89.2 123.84H94.48V150H90.2V138.04C90.2 137.213 90.2267 136.32 90.28 135.36C90.36 134.373 90.44 133.387 90.52 132.4C90.6267 131.413 90.72 130.52 90.8 129.72H90.64L88.52 135.8L84.24 147.56H81.48L77.16 135.8L75.08 129.72H74.92C75 130.52 75.08 131.413 75.16 132.4C75.2667 133.387 75.3467 134.373 75.4 135.36C75.48 136.32 75.52 137.213 75.52 138.04V150H71.32ZM101.125 150V123.84H105.765V146.08H116.645V150H101.125Z" fill="black"/>
</svg>
