<svg width="237" height="18" viewBox="0 0 237 18" fill="none" xmlns="http://www.w3.org/2000/svg">
<path d="M111.602 14.1598C110.775 14.1598 110.059 13.984 109.456 13.6325C108.855 13.2773 108.392 12.7837 108.065 12.1516C107.739 11.516 107.575 10.7791 107.575 9.94105C107.575 9.09588 107.739 8.35724 108.065 7.72514C108.392 7.08949 108.855 6.59588 109.456 6.24432C110.059 5.8892 110.775 5.71165 111.602 5.71165C112.43 5.71165 113.143 5.8892 113.744 6.24432C114.347 6.59588 114.812 7.08949 115.139 7.72514C115.466 8.35724 115.629 9.09588 115.629 9.94105C115.629 10.7791 115.466 11.516 115.139 12.1516C114.812 12.7837 114.347 13.2773 113.744 13.6325C113.143 13.984 112.43 14.1598 111.602 14.1598ZM111.613 12.402C111.989 12.402 112.304 12.2955 112.556 12.0824C112.808 11.8658 112.998 11.571 113.126 11.1982C113.257 10.8253 113.323 10.4009 113.323 9.92507C113.323 9.44922 113.257 9.02486 113.126 8.65199C112.998 8.27912 112.808 7.98437 112.556 7.76776C112.304 7.55114 111.989 7.44283 111.613 7.44283C111.233 7.44283 110.913 7.55114 110.654 7.76776C110.398 7.98437 110.205 8.27912 110.074 8.65199C109.946 9.02486 109.882 9.44922 109.882 9.92507C109.882 10.4009 109.946 10.8253 110.074 11.1982C110.205 11.571 110.398 11.8658 110.654 12.0824C110.913 12.2955 111.233 12.402 111.613 12.402ZM122.352 10.5163V5.81818H124.621V14H122.442V12.5138H122.357C122.172 12.9933 121.865 13.3786 121.435 13.6697C121.009 13.9609 120.489 14.1065 119.875 14.1065C119.328 14.1065 118.847 13.9822 118.431 13.7337C118.016 13.4851 117.691 13.1317 117.456 12.6737C117.225 12.2156 117.108 11.6669 117.105 11.0277V5.81818H119.374V10.6229C119.377 11.1058 119.507 11.4876 119.763 11.7681C120.018 12.0487 120.361 12.1889 120.791 12.1889C121.064 12.1889 121.32 12.1268 121.558 12.0025C121.796 11.8746 121.988 11.6864 122.133 11.4379C122.282 11.1893 122.355 10.8821 122.352 10.5163Z" fill="#B0B0B0"/>
<path d="M98.5 10.5H0" stroke="#B0B0B0"/>
<path d="M236.5 11H138" stroke="#B0B0B0"/>
</svg>
