<svg width="360" height="640" viewBox="0 0 360 640" fill="none" xmlns="http://www.w3.org/2000/svg">
<g clip-path="url(#clip0_451_244)">
<rect width="360" height="640" fill="white"/>
<rect y="11" width="314" height="207" fill="#153C5C"/>
<path d="M75.0075 274.257C37.4831 269.567 -2.40798 278.247 -16.8707 244.782L-17.0297 244.414C-24.3219 227.544 -32.9845 207.502 -16.8707 197.824C-6.68298 191.704 1.97002 199.053 13.9294 197.824C43.0649 194.829 55.135 177.283 83.8821 171.846C143.595 160.554 186.086 229.211 237.36 197.824C265.29 180.727 286.718 163.608 286.954 131.881C287.192 99.8365 263.384 85.1077 237.36 64.9397C190.113 28.3237 144.572 36.4961 83.8821 39.9616C56.2473 41.5395 41.5798 49.6483 13.9294 50.9519C1.91581 51.5183 -6.27092 56.3925 -16.8707 50.9519C-36.6329 40.8085 -16.8707 -4 -16.8707 -4H356.906C356.906 -4 469.617 250.937 356.906 288.244C297.693 307.844 261.901 260.578 199.252 259.769C150.377 259.138 123.475 280.314 75.0075 274.257Z" fill="#052E50" stroke="#052E50"/>
<circle cx="148.5" cy="232.5" r="22.5" fill="#153C5C"/>
<circle cx="355.5" cy="187.5" r="22.5" fill="#153C5C"/>
<circle cx="313.5" cy="33.5" r="22.5" fill="#153C5C"/>
<circle cx="49.5" cy="244.5" r="10.5" fill="#153C5C"/>
<circle cx="259.5" cy="220.5" r="13.5" fill="#153C5C"/>
<circle cx="259.5" cy="25.5" r="13.5" fill="#153C5C"/>
<circle cx="336" cy="76" r="9" fill="#153C5C"/>
<circle cx="18.5" cy="217.5" r="10.5" fill="#153C5C"/>
</g>
<defs>
<clipPath id="clip0_451_244">
<rect width="360" height="640" fill="white"/>
</clipPath>
</defs>
</svg>
