<svg width="164" height="164" viewBox="0 0 164 164" fill="none" xmlns="http://www.w3.org/2000/svg">
<path d="M131.43 141.562C139.535 134.273 145.557 124.319 150.103 114.666C156.856 100.325 160.451 82.4331 151.024 68.4898C145.586 60.4472 137.091 55.3698 127.661 53.4575C118.588 51.6207 109.765 52.0176 101.962 46.2678C94.0704 40.4458 87.2021 33.1839 80.137 26.4238C61.9723 9.03978 28.969 14.0254 13.6415 37.4315C-1.68591 60.8375 2.48953 91.2431 17.2495 105.347C30.504 118.018 48.9967 120.494 63.632 130.4C70.8841 135.32 75.955 142.559 83.64 146.878C92.578 151.9 103.536 153.96 113.606 151.395C120.461 149.647 126.352 146.127 131.43 141.562Z" fill="#5C88C6"/>
<path opacity="0.7" d="M131.43 141.562C139.535 134.273 145.557 124.319 150.103 114.666C156.856 100.325 160.451 82.4331 151.024 68.4898C145.586 60.4472 137.091 55.3698 127.661 53.4575C118.588 51.6207 109.765 52.0176 101.962 46.2678C94.0704 40.4458 87.2021 33.1839 80.137 26.4238C61.9723 9.03978 28.969 14.0254 13.6415 37.4315C-1.68591 60.8375 2.48953 91.2431 17.2495 105.347C30.504 118.018 48.9967 120.494 63.632 130.4C70.8841 135.32 75.955 142.559 83.64 146.878C92.578 151.9 103.536 153.96 113.606 151.395C120.461 149.647 126.352 146.127 131.43 141.562Z" fill="white"/>
<path d="M146.537 145.583L145.268 133.667" stroke="#263238" stroke-width="0.985332" stroke-linecap="round" stroke-linejoin="round"/>
<path d="M145.261 134.001C145.261 134.001 142.982 132.227 142.982 128.169C142.982 124.112 146.022 120.819 146.022 120.819C146.022 120.819 149.319 124.876 148.558 128.93C147.797 132.984 145.261 134.001 145.261 134.001Z" fill="#5C88C6" stroke="#263238" stroke-width="0.985332" stroke-linecap="round" stroke-linejoin="round"/>
<path d="M145.268 133.667L145.848 124.712" stroke="#263238" stroke-width="0.985332" stroke-linecap="round" stroke-linejoin="round"/>
<path d="M147.708 144.704C148.815 141.852 150.166 139.101 151.746 136.481" stroke="#263238" stroke-width="0.985332" stroke-linecap="round" stroke-linejoin="round"/>
<path d="M150.552 138.636C150.552 138.636 149.286 136.035 151.077 132.404C152.868 128.773 157.053 127.156 157.053 127.156C157.053 127.156 158.217 132.25 155.741 135.553C153.265 138.856 150.552 138.636 150.552 138.636Z" fill="#5C88C6" stroke="#263238" stroke-width="0.985332" stroke-linecap="round" stroke-linejoin="round"/>
<path d="M150.552 138.636L155.167 131.049" stroke="#263238" stroke-width="0.985332" stroke-linecap="round" stroke-linejoin="round"/>
<path d="M144.481 145.767C143.793 143.476 142.858 141.266 141.693 139.177L139.918 136.12" stroke="#263238" stroke-width="0.985332" stroke-linecap="round" stroke-linejoin="round"/>
<path d="M141.345 138.485C139.945 138.915 138.458 138.984 137.025 138.684C135.591 138.385 134.256 137.727 133.145 136.773C129.209 133.467 129.429 126.72 129.429 126.72C129.429 126.72 137.058 125.631 140.138 129.954C141.031 131.164 141.609 132.578 141.819 134.067C142.03 135.556 141.867 137.074 141.345 138.485Z" fill="#5C88C6" stroke="#263238" stroke-width="0.985332" stroke-linecap="round" stroke-linejoin="round"/>
<path d="M141.345 138.485L132.302 129.062" stroke="#263238" stroke-width="0.985332" stroke-linecap="round" stroke-linejoin="round"/>
<path d="M150.709 143.031H141.056V152.497H150.709V143.031Z" fill="#263238" stroke="#263238" stroke-width="0.985332" stroke-linecap="round" stroke-linejoin="round"/>
<path d="M134.582 9.51196H70.0117V63.9108H134.582V9.51196Z" fill="white" stroke="#263238" stroke-width="0.985332" stroke-linecap="round" stroke-linejoin="round"/>
<path d="M83.4138 40.0947H82.889L82.8004 39.4977H82.1641L82.0723 40.0947H81.5967L82.1248 36.7917H82.8857L83.4138 40.0947ZM82.2297 39.0484H82.7283L82.479 37.3756L82.2297 39.0484Z" fill="#263238"/>
<path d="M84.1484 36.7917V39.3403C84.1484 39.5765 84.2533 39.6683 84.4173 39.6683C84.5813 39.6683 84.6896 39.583 84.6896 39.3403V36.7917H85.1783V39.3075C85.1783 39.8356 84.9159 40.1373 84.4042 40.1373C83.8925 40.1373 83.6301 39.8356 83.6301 39.3075V36.7917H84.1484Z" fill="#263238"/>
<path d="M85.3818 36.7917H86.9858V37.2641H86.4446V40.0947H85.9362V37.2641H85.395L85.3818 36.7917Z" fill="#263238"/>
<path d="M87.7334 40.0947H87.2119V36.7917H87.7334V38.2087H88.3205V36.7917H88.8519V40.0947H88.3205V38.681H87.7334V40.0947Z" fill="#263238"/>
<path d="M89.7474 38.1825H90.4592V38.6548H89.7474V39.6388H90.6429V40.1111H89.2161V36.7917H90.6297V37.2641H89.7343L89.7474 38.1825Z" fill="#263238"/>
<path d="M91.4267 37.72V40.1111H90.9609V36.7917H91.6169L92.1516 38.7597V36.7917H92.6141V40.0947H92.0794L91.4267 37.72Z" fill="#263238"/>
<path d="M92.824 36.7917H94.4312V37.2641H93.8867V40.0947H93.3685V37.2641H92.824V36.7917Z" fill="#263238"/>
<path d="M94.6609 36.7917H95.1791V40.0947H94.6609V36.7917Z" fill="#263238"/>
<path d="M97.0618 38.8648V39.3043C97.0618 39.8324 96.7994 40.1341 96.2877 40.1341C95.7761 40.1341 95.5137 39.8324 95.5137 39.3043V37.5856C95.5137 37.0542 95.7793 36.7524 96.2877 36.7524C96.7961 36.7524 97.0618 37.0542 97.0618 37.5856V37.9136H96.5731V37.5593C96.5731 37.3232 96.4681 37.2313 96.3041 37.2313C96.1401 37.2313 96.0352 37.3232 96.0352 37.5593V39.3436C96.0352 39.5798 96.1369 39.6716 96.3041 39.6716C96.4714 39.6716 96.5731 39.5896 96.5731 39.3436V38.8713L97.0618 38.8648Z" fill="#263238"/>
<path d="M99.056 40.0947H98.5312L98.4427 39.4977H97.8096L97.7178 40.0947H97.2422L97.7703 36.7917H98.5312L99.056 40.0947ZM97.872 39.0484H98.3705L98.1212 37.3756L97.872 39.0484Z" fill="#263238"/>
<path d="M98.9675 36.7917H100.575V37.2641H100.04V40.0947H99.5219V37.2641H98.9774L98.9675 36.7917Z" fill="#263238"/>
<path d="M101.319 38.1825H102.031V38.6548H101.319V39.6388H102.218V40.1111H100.801V36.7917H102.218V37.2641H101.319V38.1825Z" fill="#263238"/>
<path d="M103.756 38.9992L103.1 36.7917H103.648L104.045 38.2973L104.442 36.7917H104.937L104.281 38.9992V40.0947H103.763L103.756 38.9992Z" fill="#263238"/>
<path d="M105.026 37.5855C105.026 37.3768 105.109 37.1765 105.256 37.0289C105.404 36.8813 105.604 36.7983 105.813 36.7983C106.022 36.7983 106.222 36.8813 106.369 37.0289C106.517 37.1765 106.6 37.3768 106.6 37.5855V39.3043C106.6 39.513 106.517 39.7133 106.369 39.8609C106.222 40.0085 106.022 40.0915 105.813 40.0915C105.604 40.0915 105.404 40.0085 105.256 39.8609C105.109 39.7133 105.026 39.513 105.026 39.3043V37.5855ZM105.544 39.3371C105.544 39.5732 105.649 39.6651 105.813 39.6651C105.977 39.6651 106.082 39.5765 106.082 39.3371V37.5527C106.082 37.3166 105.977 37.2247 105.813 37.2247C105.649 37.2247 105.544 37.3166 105.544 37.5527V39.3371Z" fill="#263238"/>
<path d="M107.43 36.7917V39.3403C107.43 39.5765 107.535 39.6683 107.699 39.6683C107.863 39.6683 107.968 39.583 107.968 39.3403V36.7917H108.46V39.3075C108.46 39.8356 108.197 40.1373 107.686 40.1373C107.174 40.1373 106.912 39.8356 106.912 39.3075V36.7917H107.43Z" fill="#263238"/>
<path d="M109.9 40.0947C109.856 39.9639 109.84 39.8253 109.854 39.688V39.1697C109.854 38.8647 109.749 38.7499 109.526 38.7499H109.345V40.0947H108.827V36.7917H109.611C110.149 36.7917 110.379 37.041 110.379 37.5527V37.8118C110.395 37.9414 110.373 38.0731 110.315 38.1899C110.256 38.3068 110.164 38.4036 110.051 38.4678C110.31 38.5761 110.395 38.8253 110.395 39.1697V39.688C110.385 39.8238 110.404 39.9603 110.451 40.0881L109.9 40.0947ZM109.332 37.2641V38.2776H109.552C109.746 38.2776 109.864 38.1923 109.864 37.9299V37.6019C109.864 37.3657 109.785 37.2739 109.601 37.2739L109.332 37.2641Z" fill="#263238"/>
<path d="M113.124 40.0947H112.599L112.511 39.4977H111.871L111.782 40.0947H111.307L111.848 36.7917H112.609L113.124 40.0947ZM111.94 39.0484H112.438L112.176 37.392L111.94 39.0484Z" fill="#263238"/>
<path d="M114.866 38.8648V39.3043C114.866 39.8324 114.6 40.1341 114.091 40.1341C113.583 40.1341 113.317 39.8324 113.317 39.3043V37.5856C113.317 37.0542 113.58 36.7524 114.091 36.7524C114.603 36.7524 114.866 37.0542 114.866 37.5856V37.9136H114.374V37.5593C114.374 37.3232 114.269 37.2313 114.105 37.2313C113.941 37.2313 113.836 37.3232 113.836 37.5593V39.3436C113.836 39.5798 113.941 39.6716 114.105 39.6716C114.269 39.6716 114.374 39.5896 114.374 39.3436V38.8713L114.866 38.8648Z" fill="#263238"/>
<path d="M116.686 38.8648V39.3043C116.686 39.8324 116.424 40.1341 115.912 40.1341C115.4 40.1341 115.138 39.8324 115.138 39.3043V37.5856C115.138 37.0542 115.404 36.7524 115.912 36.7524C116.42 36.7524 116.686 37.0542 116.686 37.5856V37.9136H116.194V37.5593C116.194 37.3232 116.092 37.2313 115.925 37.2313C115.758 37.2313 115.656 37.3232 115.656 37.5593V39.3436C115.656 39.5798 115.761 39.6716 115.925 39.6716C116.089 39.6716 116.194 39.5896 116.194 39.3436V38.8713L116.686 38.8648Z" fill="#263238"/>
<path d="M116.958 37.5855C116.951 37.4776 116.966 37.3695 117.003 37.2677C117.039 37.166 117.096 37.0728 117.17 36.994C117.244 36.9151 117.334 36.8522 117.433 36.8093C117.532 36.7663 117.639 36.7441 117.747 36.7441C117.855 36.7441 117.962 36.7663 118.061 36.8093C118.16 36.8522 118.25 36.9151 118.324 36.994C118.398 37.0728 118.455 37.166 118.491 37.2677C118.528 37.3695 118.543 37.4776 118.536 37.5855V39.3042C118.543 39.4121 118.528 39.5203 118.491 39.622C118.455 39.7237 118.398 39.8169 118.324 39.8958C118.25 39.9746 118.16 40.0375 118.061 40.0805C117.962 40.1234 117.855 40.1456 117.747 40.1456C117.639 40.1456 117.532 40.1234 117.433 40.0805C117.334 40.0375 117.244 39.9746 117.17 39.8958C117.096 39.8169 117.039 39.7237 117.003 39.622C116.966 39.5203 116.951 39.4121 116.958 39.3042V37.5855ZM117.48 39.337C117.48 39.5732 117.581 39.665 117.749 39.665C117.916 39.665 118.018 39.5765 118.018 39.337V37.5527C118.018 37.3166 117.913 37.2247 117.749 37.2247C117.585 37.2247 117.48 37.3166 117.48 37.5527V39.337Z" fill="#263238"/>
<path d="M119.366 36.7917V39.3403C119.366 39.5765 119.471 39.6683 119.635 39.6683C119.799 39.6683 119.904 39.583 119.904 39.3403V36.7917H120.396V39.3075C120.396 39.8356 120.133 40.1373 119.622 40.1373C119.11 40.1373 118.848 39.8356 118.848 39.3075V36.7917H119.366Z" fill="#263238"/>
<path d="M121.212 37.72V40.1111H120.747V36.7917H121.403L121.937 38.7597V36.7917H122.4V40.0947H121.865L121.212 37.72Z" fill="#263238"/>
<path d="M122.613 36.7917H124.22V37.2641H123.676V40.0947H123.158V37.2641H122.613V36.7917Z" fill="#263238"/>
<path d="M109.911 26.6621C110.562 22.6238 107.815 18.8228 103.777 18.1724C99.7388 17.5219 95.9378 20.2684 95.2874 24.3067C94.6369 28.345 97.3833 32.1459 101.422 32.7964C105.46 33.4468 109.261 30.7004 109.911 26.6621Z" fill="#5C88C6"/>
<path d="M105.829 23.7767C105.829 24.4157 105.64 25.0403 105.285 25.5716C104.93 26.1029 104.425 26.517 103.835 26.7616C103.245 27.0061 102.595 27.0701 101.968 26.9454C101.341 26.8208 100.766 26.5131 100.314 26.0612C99.8621 25.6094 99.5544 25.0337 99.4298 24.407C99.3051 23.7803 99.3691 23.1307 99.6136 22.5403C99.8581 21.95 100.272 21.4454 100.804 21.0904C101.335 20.7354 101.959 20.5459 102.598 20.5459C103.455 20.5459 104.277 20.8863 104.883 21.4922C105.489 22.0981 105.829 22.9198 105.829 23.7767Z" fill="#263238"/>
<path d="M97.2815 30.6351C97.9714 31.3479 98.7977 31.9146 99.7111 32.3017C100.624 32.6888 101.606 32.8883 102.598 32.8883C103.59 32.8883 104.572 32.6888 105.486 32.3017C106.399 31.9146 107.225 31.3479 107.915 30.6351V30.4219C107.916 30.0477 107.842 29.6771 107.699 29.3313C107.557 28.9855 107.347 28.6713 107.083 28.4066C106.818 28.1419 106.504 27.9318 106.158 27.7886C105.813 27.6453 105.442 27.5715 105.068 27.5715H100.132C99.3759 27.5715 98.6509 27.8718 98.1163 28.4064C97.5818 28.9409 97.2815 29.6659 97.2815 30.4219V30.6351Z" fill="#263238"/>
<path d="M124.794 46.0479H80.114V51.4795H124.794V46.0479Z" stroke="#263238" stroke-width="0.985332" stroke-miterlimit="10"/>
<path d="M124.794 54.1921H80.114V59.6238H124.794V54.1921Z" fill="#5C88C6" stroke="#263238" stroke-width="0.985332" stroke-miterlimit="10"/>
<path d="M95.1002 48.918V49.246H94.2934V50.4202H95.2774V50.7482H93.9194V47.4551H95.2774V47.7831H94.2934V48.9114L95.1002 48.918Z" fill="#BDBDBD"/>
<path d="M95.9498 50.7613H95.6218V47.4551H96.104L96.8682 49.8429V47.4551H97.1962V50.7613H96.8125L95.9662 48.0881L95.9498 50.7613Z" fill="#BDBDBD"/>
<path d="M98.0359 50.7613V47.7897H97.416V47.4617H99.0035V47.7897H98.4V50.7613H98.0359Z" fill="#BDBDBD"/>
<path d="M100.443 48.918V49.246H99.6366V50.4202H100.621V50.7482H99.2627V47.4551H100.621V47.7831H99.6366V48.9114L100.443 48.918Z" fill="#BDBDBD"/>
<path d="M101.703 47.4551C102.224 47.4551 102.441 47.7208 102.441 48.2095V48.4784C102.464 48.6222 102.435 48.7693 102.36 48.8941C102.285 49.0188 102.168 49.1132 102.031 49.1607C102.333 49.2492 102.444 49.4887 102.444 49.8495V50.3644C102.435 50.5001 102.457 50.636 102.51 50.7613H102.139C102.087 50.6337 102.065 50.4954 102.077 50.3579V49.856C102.077 49.4821 101.903 49.364 101.595 49.364H101.352V50.7777H100.985V47.4551H101.703ZM101.611 49.0131C101.903 49.0131 102.077 48.918 102.077 48.5604V48.2324C102.077 47.9372 101.969 47.7798 101.693 47.7798H101.352V49.0032L101.611 49.0131Z" fill="#BDBDBD"/>
<path d="M105.019 48.2521V48.544H104.668V48.216C104.668 47.9175 104.55 47.7371 104.281 47.7371C104.012 47.7371 103.894 47.9175 103.894 48.216V49.961C103.894 50.2595 104.015 50.4399 104.281 50.4399C104.547 50.4399 104.668 50.2595 104.668 49.961V49.5313H105.019V49.9413C105.019 50.4431 104.78 50.7744 104.271 50.7744C103.763 50.7744 103.53 50.4464 103.53 49.9413V48.2324C103.53 47.7339 103.766 47.4026 104.271 47.4026C104.776 47.4026 105.019 47.7535 105.019 48.2521Z" fill="#BDBDBD"/>
<path d="M105.324 48.252C105.324 47.7468 105.574 47.4221 106.079 47.4221C106.584 47.4221 106.84 47.7501 106.84 48.252V49.9608C106.84 50.4627 106.59 50.794 106.079 50.794C105.567 50.794 105.324 50.466 105.324 49.9608V48.252ZM105.688 49.9805C105.688 50.2823 105.816 50.4594 106.079 50.4594C106.341 50.4594 106.472 50.2823 106.472 49.9805V48.2356C106.472 47.9371 106.348 47.7567 106.079 47.7567C105.81 47.7567 105.688 47.9371 105.688 48.2356V49.9805Z" fill="#BDBDBD"/>
<path d="M107.961 47.4551C108.476 47.4551 108.712 47.7667 108.712 48.2784V49.9446C108.712 50.4497 108.476 50.7613 107.961 50.7613H107.187V47.4551H107.961ZM107.961 50.4071C108.224 50.4071 108.352 50.2431 108.352 49.9413V48.2423C108.352 47.9405 108.224 47.7732 107.955 47.7732H107.558V50.3972L107.961 50.4071Z" fill="#BDBDBD"/>
<path d="M110.231 48.918V49.246H109.424V50.4202H110.408V50.7482H109.047V47.4551H110.408V47.7831H109.424V48.9114L110.231 48.918Z" fill="#BDBDBD"/>
<path d="M99.4497 55.6287C99.9614 55.6287 100.198 55.9567 100.198 56.4519V58.1182C100.198 58.6233 99.9614 58.9349 99.4497 58.9349H98.6724V55.6287H99.4497ZM99.4497 58.6003C99.7154 58.6003 99.8433 58.4331 99.8433 58.1313V56.4323C99.8433 56.1305 99.7154 55.9665 99.4464 55.9665H99.0561V58.5905L99.4497 58.6003Z" fill="#263238"/>
<path d="M100.516 56.4159C100.516 55.9108 100.765 55.5828 101.27 55.5828C101.775 55.5828 102.031 55.9108 102.031 56.4159V58.1248C102.046 58.2314 102.038 58.34 102.006 58.4429C101.974 58.5458 101.92 58.6403 101.847 58.7197C101.774 58.7991 101.685 58.8613 101.585 58.9019C101.485 58.9425 101.378 58.9605 101.27 58.9546C100.765 58.9546 100.516 58.6266 100.516 58.1248V56.4159ZM100.876 58.1444C100.876 58.4462 101.004 58.62 101.27 58.62C101.536 58.62 101.66 58.4462 101.66 58.1444V56.4159C101.66 56.1174 101.539 55.937 101.27 55.937C101.001 55.937 100.876 56.1174 100.876 56.4159V58.1444Z" fill="#263238"/>
<path d="M102.703 58.9349H102.375V55.6287H102.841L103.605 58.0198V55.6287H103.933V58.9349H103.55L102.703 56.2617V58.9349Z" fill="#263238"/>
<path d="M105.485 57.0948V57.4228H104.678V58.6003H105.662V58.9283H104.304V55.6287H105.665V55.9567H104.681V57.085L105.485 57.0948Z" fill="#263238"/>
<path d="M134.582 9.51196H70.0117V12.1425H134.582V9.51196Z" fill="#5C88C6" stroke="#263238" stroke-width="0.985332" stroke-linecap="round" stroke-linejoin="round"/>
<path d="M26.8042 93.5684V93.083" stroke="#263238" stroke-width="0.985332" stroke-linecap="round" stroke-linejoin="round"/>
<path d="M26.8042 92.122V50.5349C26.8042 49.6947 26.9697 48.8627 27.2914 48.0865C27.613 47.3103 28.0844 46.6051 28.6787 46.0111C29.273 45.4171 29.9785 44.9461 30.7548 44.6248C31.5312 44.3036 32.3633 44.1385 33.2035 44.1389H63.632" stroke="#263238" stroke-width="0.985332" stroke-linecap="round" stroke-linejoin="round" stroke-dasharray="2.93 2.93"/>
<path d="M64.1272 44.1389H64.6094" stroke="#263238" stroke-width="0.985332" stroke-linecap="round" stroke-linejoin="round"/>
<path d="M67.8074 44.4047L62.5791 41.3838V47.4223L67.8074 44.4047Z" fill="#263238"/>
<path d="M117.719 134.073H118.205" stroke="#263238" stroke-width="0.985332" stroke-linecap="round" stroke-linejoin="round"/>
<path d="M119.166 134.073H120.96C122.662 134.073 124.295 133.397 125.499 132.193C126.703 130.989 127.379 129.357 127.379 127.654V66.9744" stroke="#263238" stroke-width="0.985332" stroke-linecap="round" stroke-linejoin="round" stroke-dasharray="2.93 2.93"/>
<path d="M127.379 66.4953V66.0132" stroke="#263238" stroke-width="0.985332" stroke-linecap="round" stroke-linejoin="round"/>
<path d="M115.889 133.791L121.117 136.809V130.77L115.889 133.791Z" fill="#263238"/>
<path d="M88.4909 94.4181C88.7697 93.8874 89.1886 93.4432 89.7021 93.1338C90.2156 92.8244 90.8041 92.6617 91.4036 92.6633H119.464C119.464 92.6633 121.491 92.6633 120.884 96.5173C120.277 100.371 111.959 123.902 109.929 131C107.899 138.098 107.495 153.11 107.495 153.11H73.8228C73.8228 153.11 76.5222 117.27 88.4909 94.4181Z" fill="white" stroke="#263238" stroke-width="0.985332" stroke-linecap="round" stroke-linejoin="round"/>
<path d="M114.596 99.3578C111.759 105.977 105.74 132.158 104.783 153.11H107.495C107.495 153.11 107.912 138.088 109.929 131C111.946 123.912 120.274 100.371 120.884 96.5173C121.494 92.6633 119.464 92.6633 119.464 92.6633C119.464 92.6633 116.87 94.0508 114.596 99.3578Z" fill="#263238" stroke="#263238" stroke-width="0.985332" stroke-linecap="round" stroke-linejoin="round"/>
<path d="M61.2374 93.1946C61.2374 93.1946 56.0878 92.5681 52.6865 88.9929C49.2851 85.4177 60.0796 72.6684 65.8426 69.6639C71.6055 66.6594 73.9802 67.4827 80.1598 72.0386C86.3393 76.5945 92.3712 83.9057 92.2958 88.8093C92.2203 93.7129 89.5504 96.0581 93.2798 98.4754C97.0091 100.893 107.564 107.758 109.106 112.474C110.647 117.191 107.974 123.059 101.785 126.25C95.5954 129.442 85.4406 129.294 75.6596 126.132C65.8786 122.97 63.7499 112.966 65.0094 108.896C66.269 104.825 69.6014 102.028 68.5978 98.9313C67.5941 95.835 61.2374 93.1946 61.2374 93.1946Z" fill="#263238" stroke="#263238" stroke-width="0.985332" stroke-linecap="round" stroke-linejoin="round"/>
<path d="M65.6524 107.256C65.6524 107.256 60.3257 106.515 57.8657 108.106C55.4057 109.696 43.25 130.472 43.25 130.472L36.5359 121.435L30.7139 124.05C30.7139 124.05 33.4428 134.611 36.6179 139.866C39.7929 145.12 41.6035 145.652 42.6924 145.478C45.9331 144.963 55.3204 134.103 55.3204 134.103L58.7316 145.452L56.4159 153.701H99.548L94.3163 144.976C94.3163 144.976 101.142 113.488 99.4036 110.152C97.6652 106.816 87.5366 107.256 84.3517 107.256H75.2333C73.8514 107.53 72.447 107.675 71.0382 107.689C69.2367 107.637 67.4391 107.492 65.6524 107.256Z" fill="#5C88C6"/>
<path d="M94.464 108.319L94.5526 108.355L93.726 110.461L93.6342 110.424L94.464 108.319ZM94.2377 110.661L94.3262 110.697L95.1561 108.591L95.0642 108.555L94.2377 110.661ZM97.9998 117.362L97.9047 117.335L97.5406 118.631H97.6423L97.9998 117.362ZM98.623 117.539L98.5279 117.513L98.1999 118.631H98.2983L98.623 117.539ZM94.687 117.611L94.9954 118.631H95.097L94.769 117.581L94.687 117.611ZM95.4021 117.398L95.307 117.424L95.671 118.631H95.7727L95.4021 117.398ZM98.0425 112.579L99.1675 110.611L99.0855 110.562L97.9605 112.53L98.0425 112.579ZM98.6067 112.907L99.6595 111.067C99.6595 111.012 99.6595 110.962 99.6398 110.91L98.5214 112.861L98.6067 112.907ZM99.3447 115.705L99.5316 115.459L99.5513 115.279L99.2659 115.646L99.3447 115.705ZM96.5599 113.708L98.1278 115.348L98.1966 115.282L96.6288 113.642L96.5599 113.708ZM96.0646 114.144L97.6292 115.784L97.7014 115.718L96.1335 114.078L96.0646 114.144ZM94.3361 114.144L94.3623 114.049L93.152 113.75V113.849L94.3361 114.144ZM93.1356 113.16L94.4968 113.504L94.5198 113.409L93.152 113.081L93.1356 113.16ZM94.6542 116.089L94.6247 115.997L93.152 116.509V116.611L94.6542 116.089ZM94.4214 115.381L93.1356 115.807V115.909L94.4476 115.472L94.4214 115.381ZM93.7096 133.706L94.5362 131.6L94.4476 131.564L93.6178 133.67L93.7096 133.706ZM95.0478 131.8L94.2213 133.906L94.3098 133.942L95.1397 131.836L95.0478 131.8ZM95.0052 141.673L94.7526 140.83L94.6575 140.856L94.9658 141.873L95.0052 141.673ZM96.6452 127.51L96.5534 127.543L97.3209 129.671H97.3406L97.3701 129.524L96.6452 127.51ZM97.1602 127.323L97.5636 128.435C97.5636 128.373 97.5866 128.31 97.5964 128.245L97.252 127.29L97.1602 127.323ZM98.5968 121.78L98.6493 121.954L98.6788 121.757L98.5968 121.78ZM96.4386 121.652L96.3074 123.909H96.4025L96.5337 121.649L96.4386 121.652ZM96.9535 123.948H97.0486L97.1798 121.688H97.0847L96.9535 123.948ZM94.195 121.553L94.241 121.468L93.1258 120.868V120.979L94.195 121.553ZM93.1258 120.241L94.5001 120.979L94.546 120.894L93.152 120.156L93.1258 120.241ZM93.9851 123.656L93.9228 123.584L93.152 124.312V124.44L93.9851 123.656ZM93.562 123.167L93.4997 123.092L93.1258 123.42V123.548L93.562 123.167ZM93.152 127.047V127.149L95.1922 126.352L95.1561 126.264L93.152 127.047ZM93.152 126.352V126.457L94.956 125.752L94.9199 125.66L93.152 126.352ZM94.3558 130.459L94.3787 130.364L93.152 130.088V130.186L94.3558 130.459ZM94.4968 129.829L94.5198 129.734L93.152 129.425V129.524L94.4968 129.829ZM94.3361 137.432L94.3623 137.34L93.1356 137.029V137.13L94.3361 137.432ZM93.152 136.448L94.5132 136.796L94.5362 136.701L93.152 136.353V136.448ZM94.6706 139.377L94.6411 139.285L93.152 139.777V139.882L94.6706 139.377ZM94.4673 138.764L94.4378 138.672L93.152 139.098V139.2L94.4673 138.764ZM97.3832 119.536L97.6423 118.628H97.5406L97.2914 119.51L97.3832 119.536ZM98.3114 118.628H98.213L97.9146 119.684L98.0064 119.713L98.3114 118.628ZM95.3266 119.772L95.4218 119.746L95.0938 118.628H94.9921L95.3266 119.772ZM96.0384 119.559L95.7596 118.628H95.6579L95.9466 119.589L96.0384 119.559ZM96.5796 150.834L97.3471 152.959L97.439 152.927L96.6714 150.801L96.5796 150.834ZM98.0458 152.707L97.2782 150.581L97.1864 150.614L97.9572 152.74L98.0458 152.707ZM99.1314 153.232L99.0363 153.205L98.8986 153.697H99.0002L99.1314 153.232ZM93.152 144.271L94.2213 144.845L94.2672 144.759L93.152 144.159V144.271ZM93.152 143.536L94.464 144.254L94.4837 144.156L93.152 143.428V143.536ZM93.995 146.944L93.9326 146.869L93.152 147.567V147.692L93.995 146.944ZM93.5718 146.452L93.5095 146.38L93.1356 146.708V146.836L93.5718 146.452ZM95.1397 149.522L93.152 150.316V150.421L95.1922 149.62L95.1397 149.522ZM93.1356 149.716L94.9396 149.01L94.9035 148.922L93.1356 149.611V149.716ZM93.1356 153.347V153.448L94.2213 153.691H94.3459L94.3623 153.625L93.1356 153.347ZM94.4804 153.087L94.5034 152.992L93.1356 152.684V152.786L94.4804 153.087ZM70.3494 110.415L70.438 110.451L71.2678 108.345L71.176 108.309L70.3494 110.415ZM70.9497 110.651L71.0415 110.687L71.8681 108.581L71.7795 108.545L70.9497 110.651ZM92.145 113.586L93.129 113.839V113.741L92.1614 113.495L92.145 113.586ZM92.3287 112.868L92.3025 112.96L93.1356 113.173V113.071L92.3287 112.868ZM93.152 116.611V116.509L92.496 116.729L92.5255 116.82L93.152 116.611ZM92.273 116.112L92.3025 116.204L93.1356 115.928V115.827L92.273 116.112ZM90.528 118.631H90.6395L91.0659 117.89L90.9839 117.841L90.528 118.631ZM91.2758 118.631H91.3874L91.6268 118.211L91.5448 118.162L91.2758 118.631ZM86.3985 117.726L86.323 117.788L87.0151 118.631H87.1398L86.3985 117.726ZM86.8249 117.378L87.8515 118.631H87.9762L86.9003 117.319L86.8249 117.378ZM84.378 118.483L84.2894 118.516L84.3288 118.631H84.4338L84.378 118.483ZM84.8962 118.296L85.0176 118.624H85.1193L84.9881 118.257L84.8962 118.296ZM81.3473 118.624L81.6261 117.526L81.531 117.503L81.2456 118.624H81.3473ZM82.1574 117.66L81.9114 118.624H82L82.2394 117.686L82.1574 117.66ZM74.7217 117.355L74.6266 117.329L74.2592 118.624H74.3609L74.7217 117.355ZM75.3416 117.532L75.2498 117.506L74.9218 118.624H75.0234L75.3416 117.532ZM71.4056 117.604L71.7139 118.624H71.8156L71.4876 117.575L71.4056 117.604ZM72.1174 117.391L72.0255 117.417L72.3896 118.624H72.488L72.1174 117.391ZM74.761 112.573L75.8861 110.605L75.8008 110.556L74.6758 112.524L74.761 112.573ZM75.2399 112.848L75.3219 112.894L76.447 110.926L76.3617 110.877L75.2399 112.848ZM88.0746 114.292L90.1574 115.174L90.1935 115.085L88.1106 114.203L88.0746 114.292ZM87.822 114.885L89.9048 115.768L89.9409 115.679L87.8417 114.8L87.822 114.885ZM89.5768 111.487L89.6686 111.513L90.2853 109.339L90.1902 109.309L89.5768 111.487ZM90.1967 111.664L90.2918 111.691L90.9052 109.513L90.8134 109.486L90.1967 111.664ZM86.8118 107.617L87.4678 109.782L87.5596 109.755L86.92 107.584L86.8118 107.617ZM87.4284 107.43L88.0844 109.595L88.1762 109.568L87.5202 107.404L87.4284 107.43ZM80.2813 116.702L79.6253 114.538L79.5334 114.564L80.1894 116.732L80.2813 116.702ZM80.9012 116.515L80.2452 114.351L80.1501 114.377L80.8061 116.545L80.9012 116.515ZM83.4596 115.262L85.6998 114.934V114.839L83.4596 115.167V115.262ZM83.5514 115.902L85.7917 115.574V115.479L83.5514 115.807V115.902ZM85.1914 113.144L85.2866 113.167L85.7917 110.962L85.6966 110.939L85.1914 113.144ZM86.3263 111.084L85.8212 113.288L85.9163 113.311L86.4214 111.107L86.3263 111.084ZM78.392 111.887L78.474 111.94L79.6843 110.028L79.6023 109.978L78.392 111.887ZM80.2321 110.375L80.1501 110.323L78.9398 112.235L79.0218 112.287L80.2321 110.375ZM78.1296 108.174L80.2026 107.269V107.246H80.0254L78.1001 108.086L78.1296 108.174ZM78.3494 108.676L78.3887 108.765L80.4617 107.863L80.4223 107.774L78.3494 108.676ZM76.3814 107.246H76.2797L75.768 109.024L75.8631 109.05L76.3814 107.246ZM75.2498 108.886L75.709 107.246H75.6073L75.1546 108.847L75.2498 108.886ZM84.1255 107.941L83.9024 107.256H83.8007L84.0139 107.964L84.1255 107.941ZM83.4137 108.155L83.5088 108.128L83.2464 107.259H83.1447L83.4137 108.155ZM75.9878 115.653L76.0632 115.712L77.4408 113.918L77.3621 113.859L75.9878 115.653ZM76.4995 116.046L76.5782 116.105L77.9525 114.308L77.877 114.249L76.4995 116.046ZM73.2785 113.714L74.8463 115.354L74.9185 115.289L73.3506 113.649L73.2785 113.714ZM72.793 114.144L74.3609 115.784L74.4298 115.718L72.8652 114.078L72.793 114.144ZM81.3801 111.244L81.3407 111.333L83.4235 112.219L83.4629 112.127L81.3801 111.244ZM81.5933 110.739L83.6761 111.622L83.7155 111.533L81.6326 110.651L81.5933 110.739ZM71.0678 114.144L71.0907 114.049L69.864 113.75V113.849L71.0678 114.144ZM69.8673 113.16L71.2252 113.504L71.2514 113.409L69.864 113.081L69.8673 113.16ZM71.3859 116.089L71.3531 115.997L69.864 116.509V116.611L71.3859 116.089ZM71.1498 115.381L69.8673 115.807V115.909L71.1793 115.472L71.1498 115.381ZM71.176 131.564L70.3494 133.67L70.438 133.706L71.2678 131.6L71.176 131.564ZM71.7795 131.8L70.9497 133.906L71.0415 133.942L71.8681 131.836L71.7795 131.8ZM92.2139 120.481L93.1356 120.979V120.868L92.2598 120.396L92.2139 120.481ZM92.5649 119.825L92.519 119.907L93.1356 120.235V120.123L92.5649 119.825ZM93.152 124.312L92.2369 125.106L92.2992 125.178L93.152 124.44V124.312ZM91.8761 124.689L93.152 123.587V123.459L91.8138 124.614L91.8761 124.689ZM93.0503 127.103L93.0831 127.195L93.152 127.166V127.064L93.0503 127.103ZM92.8142 126.503L92.847 126.592L93.152 126.473V126.369L92.8142 126.503ZM93.1422 130.111L92.1582 129.888L92.1352 129.983L93.1389 130.209L93.1422 130.111ZM93.1422 129.455L92.3025 129.265L92.2828 129.36L93.1422 129.553V129.455ZM93.1422 137.048L92.168 136.776L92.145 136.871L93.129 137.124L93.1422 137.048ZM92.3353 136.176L92.309 136.271L93.152 136.448V136.35L92.3353 136.176ZM93.152 139.882V139.777L92.496 139.997L92.5255 140.089L93.152 139.882ZM93.152 139.2V139.098L92.2894 139.384L92.3189 139.475L93.152 139.2ZM79.8352 119.779L77.7524 118.893L77.7163 118.982L79.7991 119.868L79.8352 119.779ZM77.4638 119.579L79.5466 120.461L79.5826 120.373L77.4998 119.49L77.4638 119.579ZM91.0594 141.158L90.9774 141.112L90.528 141.903H90.6395L91.0594 141.158ZM91.6202 141.486L91.5382 141.437L91.2693 141.909H91.3808L91.6202 141.486ZM86.3165 141.063L87.0086 141.909H87.1332L86.3919 141.001L86.3165 141.063ZM86.8183 140.653L87.845 141.909H87.9696L86.8938 140.597L86.8183 140.653ZM84.3714 141.762L84.2829 141.794L84.3222 141.909H84.4272L84.3714 141.762ZM84.8897 141.575L85.011 141.903H85.1127L84.9815 141.535L84.8897 141.575ZM81.6097 140.81L81.5146 140.784L81.2292 141.909H81.344L81.6097 140.81ZM82.141 140.945L81.895 141.909H82L82.2394 140.968L82.141 140.945ZM74.7053 140.637L74.6102 140.61L74.2428 141.922H74.3445L74.7053 140.637ZM75.3252 140.814L75.2334 140.787L74.9054 141.909H75.007L75.3252 140.814ZM71.3892 140.886L71.6975 141.909H71.7992L71.4712 140.86L71.3892 140.886ZM72.0091 140.702L72.3732 141.909H72.4716L72.101 140.673L72.0091 140.702ZM75.7844 133.847L74.6594 135.815L74.7446 135.864L75.8697 133.896L75.7844 133.847ZM76.4404 134.214L76.3551 134.165L75.2334 136.133L75.3154 136.182L76.4404 134.214ZM85.5883 123.436L84.1451 121.688L84.073 121.75L85.503 123.502L85.5883 123.436ZM85.0898 123.846L83.64 122.088L83.5646 122.15L84.9979 123.902L85.0898 123.846ZM81.5441 122.888L82.3116 125.014L82.4035 124.981L81.6359 122.856L81.5441 122.888ZM82.1542 122.669L82.9217 124.794L83.0103 124.761L82.2427 122.636L82.1542 122.669ZM90.1869 138.367L88.1041 137.484L88.068 137.573L90.1508 138.455L90.1869 138.367ZM89.9343 138.964L87.8515 138.078L87.8154 138.17L89.8982 139.052L89.9343 138.964ZM90.1836 132.594L89.5702 134.772L89.6621 134.798L90.2787 132.62L90.1836 132.594ZM90.8986 132.797L90.8068 132.771L90.1902 134.946L90.2853 134.972L90.8986 132.797ZM87.5629 133.03L86.9069 130.865L86.815 130.892L87.471 133.06L87.5629 133.03ZM88.1828 132.843L87.5268 130.678L87.4317 130.705L88.0877 132.873L88.1828 132.843ZM81.6228 127.179L80.4978 129.147L80.5798 129.193L81.7048 127.225L81.6228 127.179ZM81.1439 126.906L81.0586 126.857L79.9369 128.825L80.0189 128.871L81.1439 126.906ZM77.3227 128.694L75.8894 126.936L75.8139 126.998L77.2473 128.75L77.3227 128.694ZM77.8213 128.284L76.3912 126.533L76.3158 126.595L77.7458 128.346L77.8213 128.284ZM73.2949 127.572L74.0624 129.701L74.1543 129.668L73.3834 127.539L73.2949 127.572ZM73.9017 127.353L74.6692 129.481L74.761 129.448L73.9935 127.32L73.9017 127.353ZM89.544 129.075L89.6391 129.097L90.1967 126.906L90.1016 126.88L89.544 129.075ZM90.8232 127.064L90.7281 127.041L90.1705 129.232L90.2656 129.255L90.8232 127.064ZM87.1234 128.904L85.0406 128.022L85.0045 128.11L87.0873 128.996L87.1234 128.904ZM87.3759 128.31L85.28 127.428L85.2439 127.517L87.3267 128.399L87.3759 128.31ZM80.2813 139.974L79.6253 137.806L79.5334 137.835L80.1894 140L80.2813 139.974ZM80.9012 139.787L80.2452 137.619L80.1501 137.648L80.8061 139.813L80.9012 139.787ZM85.6998 138.216V138.121L83.4596 138.449V138.544L85.6998 138.216ZM85.7917 138.855V138.76L83.5514 139.088V139.183L85.7917 138.855ZM85.28 136.448L85.7851 134.244L85.69 134.221L85.1849 136.428L85.28 136.448ZM85.9098 136.592L86.4149 134.388L86.3198 134.365L85.8146 136.573L85.9098 136.592ZM79.6778 133.312L79.5958 133.26L78.392 135.159L78.474 135.211L79.6778 133.312ZM80.2255 133.657L80.1435 133.604L78.9332 135.516L79.0152 135.569L80.2255 133.657ZM80.196 130.551L80.1599 130.462L78.0837 131.367L78.123 131.456L80.196 130.551ZM80.4551 131.144L80.4158 131.056L78.3428 131.961L78.3822 132.049L80.4551 131.144ZM76.4699 130.16L76.3781 130.131L75.768 132.292L75.8631 132.318L76.4699 130.16ZM75.2334 132.161L75.8467 129.983L75.7549 129.957L75.1383 132.135L75.2334 132.161ZM84.1058 131.2L83.4498 129.035L83.3546 129.061L84.0106 131.229L84.1058 131.2ZM82.7446 129.232L83.4006 131.397L83.4957 131.371L82.8397 129.206L82.7446 129.232ZM79.599 123.656L77.7918 125.02L77.8508 125.096L79.6581 123.735L79.599 123.656ZM78.2411 125.624L80.0451 124.259L79.9894 124.184L78.1821 125.545L78.2411 125.624ZM76.6798 123.751L76.0534 121.576L75.9583 121.606L76.588 123.777L76.6798 123.751ZM75.3383 121.783L75.9648 123.984L76.0599 123.958L75.44 121.777L75.3383 121.783ZM73.1801 121.655L73.0489 123.912H73.144L73.2752 121.652L73.1801 121.655ZM73.6918 123.951H73.7902L73.9214 121.691H73.823L73.6918 123.951ZM77.408 137.173L77.3293 137.114L75.955 138.911L76.0304 138.97L77.408 137.173ZM77.9197 137.566L77.8442 137.507L76.4666 139.305L76.5454 139.364L77.9197 137.566ZM73.2457 136.969L74.8135 138.609L74.8857 138.541L73.3178 136.901L73.2457 136.969ZM72.793 137.432L74.3609 139.072L74.4298 139.006L72.8652 137.366L72.793 137.432ZM89.2652 124.833L89.1898 124.774L87.7662 126.533L87.8417 126.595L89.2652 124.833ZM88.6879 124.368L87.2644 126.126L87.3398 126.188L88.7601 124.427L88.6879 124.368ZM89.0848 121.032H88.9897L88.7338 123.279H88.8322L89.0848 121.032ZM88.3468 120.947L88.0942 123.197H88.1894L88.4419 120.95L88.3468 120.947ZM83.4629 135.411L81.3801 134.529L81.3407 134.618L83.4235 135.5L83.4629 135.411ZM81.5933 134.021L83.6761 134.903L83.7155 134.815L81.6326 133.932L81.5933 134.021ZM70.9366 121.586L70.9825 121.501L69.8673 120.901V121.012L70.9366 121.586ZM69.8673 120.274L71.2416 121.012L71.2875 120.927L69.864 120.156L69.8673 120.274ZM70.7267 123.689L70.661 123.617L69.864 124.312V124.44L70.7267 123.689ZM70.3035 123.2L70.2379 123.125L69.8673 123.453V123.581L70.3035 123.2ZM71.8681 126.27L69.8673 127.054V127.156L71.9042 126.359L71.8681 126.27ZM71.668 125.758L71.6352 125.667L69.864 126.352V126.457L71.668 125.758ZM71.071 130.465L71.0907 130.37L69.8673 130.095V130.193L71.071 130.465ZM69.864 129.524L71.2088 129.829L71.2318 129.734L69.864 129.425V129.524ZM71.0678 137.432L71.0907 137.34L69.8673 137.029V137.13L71.0678 137.432ZM69.864 136.448L71.2219 136.796L71.2482 136.701L69.864 136.353V136.448ZM71.3826 139.377L71.3498 139.285L69.864 139.777V139.882L71.3826 139.377ZM71.1793 138.764L71.1465 138.672L69.864 139.098V139.2L71.1793 138.764ZM89.849 119.802L89.931 119.848L90.6297 118.628H90.528L89.849 119.802ZM90.4099 120.13L90.4919 120.176L91.3775 118.634H91.266L90.4099 120.13ZM87.822 119.474L87.1299 118.628H87.0053L87.7466 119.533L87.822 119.474ZM88.2484 119.126L88.3238 119.064L87.9663 118.628H87.8417L88.2484 119.126ZM85.139 120.609L84.4239 118.641H84.319L85.0471 120.655L85.139 120.609ZM85.6539 120.422L85.7458 120.389L85.1094 118.628H85.0078L85.6539 120.422ZM80.9635 119.697L81.0586 119.72L81.3374 118.628H81.2358L80.9635 119.697ZM81.59 119.858L81.6851 119.881L82.0131 118.628H81.9114L81.59 119.858ZM74.0952 119.53L74.351 118.621H74.2494L74.0001 119.503L74.0952 119.53ZM75.0234 118.621H74.9218L74.6233 119.677L74.7184 119.707L75.0234 118.621ZM72.0387 119.766L72.1305 119.74L71.8025 118.621H71.7008L72.0387 119.766ZM72.7504 119.553L72.4683 118.621H72.3699L72.6553 119.582L72.7504 119.553ZM92.2566 143.677L92.2106 143.762L93.1323 144.261V144.149L92.2566 143.677ZM92.5616 143.11L92.5157 143.195L93.1323 143.523V143.415L92.5616 143.11ZM93.152 147.692V147.567L92.2369 148.358L92.2992 148.43L93.152 147.692ZM93.152 146.839V146.711L91.8138 147.869L91.8761 147.941L93.152 146.839ZM93.0503 150.355L93.0831 150.447L93.152 150.421V150.316L93.0503 150.355ZM92.8142 149.755L92.847 149.847L93.152 149.725V149.62L92.8142 149.755ZM92.1582 153.137L92.1352 153.232L93.1389 153.458V153.356L92.1582 153.137ZM93.1422 152.694L92.3025 152.504L92.2828 152.599L93.1422 152.795V152.694ZM79.8352 143.047L77.7524 142.165L77.7163 142.254L79.7991 143.136L79.8352 143.047ZM77.4638 142.847L79.5466 143.733L79.5826 143.641L77.4998 142.759L77.4638 142.847ZM84.073 145.009L85.503 146.76L85.5785 146.698L84.1451 144.95L84.073 145.009ZM85.0799 147.108L83.64 145.36L83.5646 145.419L84.9979 147.17L85.0799 147.108ZM82.3936 148.256L81.6261 146.127L81.5343 146.16L82.3018 148.289L82.3936 148.256ZM83.0004 148.036L82.2329 145.907L82.1443 145.94L82.9118 148.069L83.0004 148.036ZM81.6884 150.499L81.6064 150.45L80.4814 152.418L80.5634 152.467L81.6884 150.499ZM81.1275 150.171L81.0423 150.126L79.9205 152.094L80.0025 152.143L81.1275 150.171ZM77.3063 151.959L75.8894 150.224L75.8139 150.283L77.2473 152.035L77.3063 151.959ZM77.8049 151.549L76.3748 149.801L76.2994 149.86L77.7295 151.611L77.8049 151.549ZM74.1378 152.933L73.367 150.808L73.2785 150.841L74.046 152.966L74.1378 152.933ZM74.7446 152.713L73.9771 150.588L73.8853 150.621L74.6528 152.746L74.7446 152.713ZM90.1606 150.178L90.0655 150.155L89.5079 152.346L89.603 152.369L90.1606 150.178ZM90.7871 150.335L90.692 150.313L90.1344 152.507L90.2295 152.53L90.7871 150.335ZM87.1234 152.192L85.0406 151.31L85.0045 151.398L87.0873 152.281L87.1234 152.192ZM87.3759 151.595L85.28 150.696L85.2439 150.785L87.3267 151.67L87.3759 151.595ZM76.3748 153.402L76.283 153.73H76.3846L76.4666 153.442L76.3748 153.402ZM75.8434 153.251L75.7516 153.225L75.6106 153.717H75.7122L75.8434 153.251ZM83.3612 152.346L83.7745 153.717H83.8762L83.4563 152.317L83.3612 152.346ZM82.8364 152.504L82.7446 152.53L83.0988 153.717H83.2005L82.8364 152.504ZM79.6581 147.049L79.599 146.973L77.7918 148.335L77.8508 148.413L79.6581 147.049ZM80.0451 147.567L79.9894 147.488L78.1821 148.85L78.2411 148.928L80.0451 147.567ZM76.588 147.085L76.6798 147.055L76.0534 144.884L75.9583 144.91L76.588 147.085ZM76.0599 147.236L75.44 145.048L75.3482 145.074L75.9746 147.246L76.0599 147.236ZM73.144 147.236L73.2752 144.979H73.1801L73.0489 147.239L73.144 147.236ZM73.8 147.275L73.9312 145.015H73.8328L73.7016 147.272L73.8 147.275ZM89.275 148.121L89.1996 148.059L87.7761 149.817L87.8515 149.88L89.275 148.121ZM88.6978 147.652L87.2742 149.411L87.3497 149.473L88.7699 147.715L88.6978 147.652ZM89.0946 144.32H88.9995L88.7437 146.567H88.8421L89.0946 144.32ZM88.3566 144.238L88.1041 146.485H88.1992L88.4518 144.235L88.3566 144.238ZM70.9464 144.874L70.9923 144.789L69.8771 144.189V144.3L70.9464 144.874ZM71.2974 144.218L69.864 143.428V143.536L71.2383 144.277L71.2974 144.218ZM70.7267 146.944L70.661 146.869L69.864 147.564V147.692L70.7267 146.944ZM70.3035 146.452L70.2379 146.38L69.8673 146.708V146.836L70.3035 146.452ZM71.8681 149.522L69.8673 150.306V150.411L71.9042 149.611L71.8681 149.522ZM69.8673 149.716L71.668 149.01L71.6352 148.922L69.8673 149.611V149.716ZM69.8673 153.347V153.448L70.953 153.691H71.0743L71.0907 153.625L69.8673 153.347ZM71.2121 153.087L71.235 152.992L69.8673 152.684V152.786L71.2121 153.087ZM89.9343 143.113L90.633 141.893H90.528L89.872 143.064L89.9343 143.113ZM91.2693 141.893L90.4132 143.385L90.4952 143.434L91.3808 141.893H91.2693ZM87.7498 142.798L87.8253 142.736L87.1332 141.893H87.0086L87.7498 142.798ZM88.2517 142.388L88.3271 142.326L87.9696 141.893H87.845L88.2517 142.388ZM85.1422 143.871L84.4272 141.903H84.3222L85.0504 143.913L85.1422 143.871ZM85.6572 143.687L85.749 143.651L85.1127 141.893H85.011L85.6572 143.687ZM81.0652 142.985L81.344 141.893H81.2423L80.9701 142.962L81.0652 142.985ZM81.5966 143.119L81.6917 143.142L82.0197 141.893H81.918L81.5966 143.119ZM74.1018 142.791L74.3576 141.886H74.2559L74.0066 142.765L74.1018 142.791ZM74.9283 141.886L74.6298 142.942L74.725 142.969L75.03 141.886H74.9283ZM72.0452 143.031L72.137 143.001L71.809 141.886H71.7074L72.0452 143.031ZM72.6618 142.844L72.757 142.818L72.4749 141.886H72.3765L72.6618 142.844ZM68.88 113.596L69.864 113.849V113.75L68.8964 113.504L68.88 113.596ZM69.0637 112.878L69.0407 112.97L69.8738 113.183V113.081L69.0637 112.878ZM69.864 116.611V116.509L69.208 116.729L69.2408 116.82L69.864 116.611ZM69.0047 116.112L69.0342 116.204L69.8673 115.928V115.827L69.0047 116.112ZM67.24 118.631H67.3515L67.7779 117.89L67.6926 117.841L67.24 118.631ZM67.9846 118.631H68.0961L68.3388 118.211L68.2535 118.162L67.9846 118.631ZM63.1105 117.726L63.035 117.788L63.7271 118.631H63.8518L63.1105 117.726ZM63.5369 117.378L64.5602 118.631H64.6882L63.6123 117.319L63.5369 117.378ZM61.09 118.483L60.9982 118.516L61.0408 118.631H61.1425L61.09 118.483ZM61.6082 118.296L61.7263 118.624H61.8313L61.7001 118.257L61.6082 118.296ZM58.056 118.624L58.3348 117.526L58.243 117.503L57.9576 118.624H58.056ZM58.8694 117.66L58.6234 118.624H58.7251L58.9613 117.686L58.8694 117.66ZM51.0729 118.624L51.4304 117.355L51.3386 117.329L50.9712 118.624H51.0729ZM52.0569 117.532L51.9618 117.506L51.6338 118.624H51.7354L52.0569 117.532ZM64.7767 114.292L66.8595 115.174L66.8989 115.085L64.8161 114.203L64.7767 114.292ZM64.5242 114.885L66.6168 115.784L66.6562 115.695L64.5734 114.8L64.5242 114.885ZM66.279 111.487L66.3741 111.513L66.9874 109.339L66.8956 109.309L66.279 111.487ZM66.9022 111.664L66.994 111.691L67.6106 109.513L67.5188 109.486L66.9022 111.664ZM63.5402 107.617L64.1962 109.782L64.288 109.755L63.632 107.584L63.5402 107.617ZM64.1601 107.43L64.8161 109.595L64.9079 109.568L64.2519 107.404L64.1601 107.43ZM56.2684 114.564L56.9244 116.732L57.0162 116.702L56.3602 114.538L56.2684 114.564ZM57.6329 116.532L56.9769 114.367L56.885 114.393L57.541 116.561L57.6329 116.532ZM60.1913 115.279L62.4315 114.951V114.856L60.1913 115.184V115.279ZM60.2667 115.823V115.918L62.507 115.59V115.495L60.2667 115.823ZM62.5168 110.979L62.4217 110.956L61.9198 113.16L62.0117 113.183L62.5168 110.979ZM63.0547 111.1L62.5496 113.304L62.6414 113.327L63.1466 111.123L63.0547 111.1ZM55.104 111.887L55.186 111.94L56.3963 110.028L56.3143 109.978L55.104 111.887ZM55.6518 112.235L55.7338 112.287L56.9441 110.375L56.8621 110.323L55.6518 112.235ZM60.8276 107.928L60.6177 107.23H60.5193L60.7358 107.941L60.8276 107.928ZM60.1158 108.142L60.2077 108.115L59.9748 107.335L59.8797 107.354L60.1158 108.142ZM52.6899 115.64L52.7654 115.699L54.1397 113.905L54.0642 113.845L52.6899 115.64ZM54.6579 114.295L54.5792 114.236L53.2049 116.033L53.2836 116.092L54.6579 114.295ZM58.1019 111.248L58.0658 111.336L60.1486 112.222L60.1847 112.13L58.1019 111.248ZM58.3184 110.743L60.4012 111.625L60.4373 111.536L58.3545 110.654L58.3184 110.743ZM47.9011 131.587L47.0746 133.693L47.1631 133.729L47.9897 131.623L47.9011 131.587ZM48.5014 131.823L47.6748 133.929L47.7634 133.965L48.5932 131.859L48.5014 131.823ZM68.9358 120.504L69.8607 121.002V120.891L68.9817 120.419L68.9358 120.504ZM69.29 119.848L69.2441 119.93L69.8607 120.258V120.146L69.29 119.848ZM69.864 124.312L68.9456 125.106L69.0112 125.178L69.864 124.44V124.312ZM68.5881 124.689L69.864 123.587V123.459L68.5258 124.614L68.5881 124.689ZM69.759 127.103L69.7951 127.195L69.864 127.166V127.064L69.759 127.103ZM69.864 126.369L69.536 126.503L69.5721 126.592L69.8771 126.473L69.864 126.369ZM69.864 130.104L68.88 129.881L68.8603 129.977L69.864 130.203V130.104ZM69.0243 129.252L69.0014 129.347L69.864 129.54V129.442L69.0243 129.252ZM69.864 137.019L68.8964 136.773L68.8702 136.868L69.8542 137.12L69.864 137.019ZM69.0538 136.146L69.0309 136.241L69.864 136.448V136.35L69.0538 136.146ZM69.864 139.882V139.777L69.208 139.997L69.2408 140.089L69.864 139.882ZM69.864 139.2V139.098L69.0014 139.384L69.0309 139.475L69.864 139.2ZM54.448 118.982L56.5308 119.868L56.5702 119.779L54.4874 118.893L54.448 118.982ZM54.1954 119.579L56.2782 120.461L56.3176 120.373L54.2348 119.49L54.1954 119.579ZM67.7943 141.158L67.709 141.112L67.24 141.903H67.3515L67.7943 141.158ZM68.3552 141.486L68.2699 141.437L68.001 141.909H68.1125L68.3552 141.486ZM63.0514 141.063L63.7435 141.909H63.8682L63.1269 141.001L63.0514 141.063ZM63.5533 140.653L64.5766 141.909H64.7046L63.6287 140.597L63.5533 140.653ZM61.1064 141.762L61.0146 141.794L61.0572 141.909H61.1589L61.1064 141.762ZM61.6246 141.575L61.7427 141.903H61.8477L61.7165 141.535L61.6246 141.575ZM57.974 141.903H58.0724L58.3512 140.804L58.2594 140.778L57.974 141.903ZM58.8858 140.938L58.6398 141.903H58.7415L58.9777 140.961L58.8858 140.938ZM48.216 140.853L48.1242 140.879L48.3046 141.476L48.3833 141.404L48.216 140.853ZM48.8359 140.666L48.7408 140.696L48.8294 140.978L48.9048 140.902L48.8359 140.666ZM52.6046 133.886L52.5194 133.84L51.3943 135.808L51.4796 135.858L52.6046 133.886ZM52.0405 136.182L53.1655 134.214L53.0802 134.165L51.9552 136.133L52.0405 136.182ZM62.32 123.43L60.8768 121.688L60.8014 121.75L62.2347 123.502L62.32 123.43ZM61.8182 123.84L60.3848 122.088L60.3126 122.15L61.7427 123.902L61.8182 123.84ZM58.2758 122.882L59.0433 125.007L59.1351 124.975L58.3676 122.849L58.2758 122.882ZM58.8826 122.662L59.6501 124.788L59.7419 124.755L58.9744 122.629L58.8826 122.662ZM66.912 138.36L64.8292 137.478L64.7898 137.566L66.8727 138.449L66.912 138.36ZM66.6594 138.957L64.5766 138.072L64.5373 138.163L66.6201 139.046L66.6594 138.957ZM66.9087 132.587L66.2921 134.765L66.3872 134.792L67.0006 132.614L66.9087 132.587ZM67.6238 132.791L67.5319 132.765L66.912 134.939L67.0038 134.965L67.6238 132.791ZM64.288 133.024L63.632 130.859L63.5402 130.885L64.1962 133.053L64.288 133.024ZM64.9079 132.837L64.2519 130.672L64.1601 130.698L64.8161 132.866L64.9079 132.837ZM58.3479 127.172L57.2229 129.14L57.3082 129.186L58.4332 127.218L58.3479 127.172ZM57.787 126.844L56.662 128.812L56.7473 128.858L57.8723 126.89L57.787 126.844ZM52.539 126.992L53.9724 128.743L54.0446 128.681L52.621 126.936L52.539 126.992ZM53.0376 126.582L54.471 128.333L54.5464 128.271L53.136 126.526L53.0376 126.582ZM50.0167 127.566L50.7842 129.694L50.8761 129.662L50.1086 127.533L50.0167 127.566ZM50.6268 127.346L51.3943 129.475L51.4829 129.442L50.7154 127.313L50.6268 127.346ZM66.256 129.075L66.3511 129.097L66.9054 126.906L66.8136 126.88L66.256 129.075ZM67.5352 127.064L67.4401 127.041L66.8825 129.232L66.9776 129.255L67.5352 127.064ZM63.855 128.904L61.7722 128.022L61.7329 128.11L63.8157 128.996L63.855 128.904ZM64.1076 128.31L62.0248 127.428L61.9854 127.517L64.0682 128.399L64.1076 128.31ZM56.8916 137.648L57.5476 139.813L57.6394 139.787L56.9834 137.619L56.8916 137.648ZM62.4348 138.216V138.121L60.1946 138.449V138.544L62.4348 138.216ZM62.5234 138.855V138.76L60.2831 139.088V139.183L62.5234 138.855ZM62.0117 136.448L62.5168 134.244L62.4217 134.221L61.9198 136.428L62.0117 136.448ZM62.6414 136.592L63.1466 134.388L63.0547 134.365L62.5496 136.573L62.6414 136.592ZM56.3242 133.26L55.4714 134.608L55.5074 134.733L56.416 133.299L56.3242 133.26ZM56.8719 133.604L55.7174 135.428L55.7534 135.549L56.9539 133.657L56.8719 133.604ZM54.8121 131.367L54.8514 131.456L56.9244 130.551L56.885 130.462L54.8121 131.367ZM57.1835 131.144L57.1442 131.056L55.0712 131.961L55.1073 132.049L57.1835 131.144ZM53.1983 130.16L53.1032 130.131L52.48 132.292L52.5718 132.318L53.1983 130.16ZM51.9585 132.161L52.5751 129.983L52.4833 129.957L51.8666 132.135L51.9585 132.161ZM60.8374 131.2L60.1814 129.035L60.0896 129.061L60.7456 131.229L60.8374 131.2ZM59.473 129.232L60.129 131.397L60.2208 131.371L59.5648 129.206L59.473 129.232ZM56.3274 123.656L54.5234 125.02L54.5825 125.096L56.3865 123.735L56.3274 123.656ZM54.9105 125.535L54.9695 125.614L56.7768 124.25L56.7178 124.174L54.9105 125.535ZM52.6899 121.599L53.3164 123.771L53.4115 123.745L52.7818 121.57L52.6899 121.599ZM52.07 121.777L52.6965 123.951L52.7883 123.925L52.152 121.777H52.07ZM49.774 123.905H49.8724L50.0036 121.645H49.9052L49.774 123.905ZM50.6465 121.691H50.5514L50.4202 123.951H50.5153L50.6465 121.691ZM51.4402 138.318L50.0561 136.878L49.9872 136.943L51.3746 138.386L51.4402 138.318ZM49.5903 137.334L49.528 137.432L50.9318 138.892L50.9974 138.823L49.5903 137.334ZM65.9903 124.804L65.9149 124.745L64.4946 126.503L64.5701 126.565L65.9903 124.804ZM65.413 124.338L63.9895 126.096L64.065 126.159L65.4885 124.397L65.413 124.338ZM65.8165 121.032H65.7181L65.4655 123.279H65.5606L65.8165 121.032ZM65.0752 120.947L64.8227 123.197H64.921L65.1736 120.95L65.0752 120.947ZM60.1913 135.411L58.1085 134.529L58.0724 134.618L60.1552 135.5L60.1913 135.411ZM60.4438 134.815L58.361 133.932L58.325 134.021L60.4078 134.903L60.4438 134.815ZM47.455 123.692L47.3927 123.62L47.3173 123.685L47.1533 123.954L47.455 123.692ZM48.5998 126.273L46.599 127.057V127.159L48.6358 126.362L48.5998 126.273ZM48.3997 125.762L48.3636 125.67L46.599 126.362V126.467L48.3997 125.762ZM47.7994 130.469L47.8224 130.373L46.599 130.098V130.196L47.7994 130.469ZM47.9438 129.839L47.9634 129.744L46.599 129.435V129.534L47.9438 129.839ZM47.7962 137.432L47.8224 137.34L46.599 137.029V137.13L47.7962 137.432ZM46.599 136.448L47.9569 136.796L47.9798 136.701L46.599 136.35V136.448ZM48.1143 139.377L48.0848 139.285L46.599 139.774V139.879L48.1143 139.377ZM47.911 138.764L47.8814 138.672L46.599 139.095V139.197L47.911 138.764ZM66.584 119.805L66.6693 119.851L67.3679 118.631H67.24L66.584 119.805ZM67.1449 120.133L67.2302 120.179L68.1125 118.638H68.001L67.1449 120.133ZM64.5602 119.477L63.8682 118.631H63.7435L64.4848 119.536L64.5602 119.477ZM64.9834 119.13L65.0588 119.067L64.7046 118.631H64.5766L64.9834 119.13ZM61.8739 120.612L61.1589 118.644H61.0572L61.7821 120.658L61.8739 120.612ZM62.3922 120.425L62.484 120.392L61.8477 118.631H61.7427L62.3922 120.425ZM57.7018 119.7L57.7969 119.723L58.0724 118.631H57.974L57.7018 119.7ZM58.3282 119.861L58.4201 119.884L58.7481 118.631H58.6464L58.3282 119.861ZM50.7383 119.513L50.8334 119.54L51.0893 118.631H50.9876L50.7383 119.513ZM51.7617 118.631H51.66L51.3615 119.687L51.4534 119.717L51.7617 118.631ZM68.9456 143.772L69.8706 144.271V144.159L68.9915 143.687L68.9456 143.772ZM69.2998 143.116L69.2539 143.201L69.8706 143.529V143.421L69.2998 143.116ZM69.864 147.692V147.564L68.9456 148.358L69.0112 148.43L69.864 147.692ZM69.864 146.839V146.711L68.5258 147.869L68.5881 147.941L69.864 146.839ZM69.759 150.355L69.7951 150.447L69.864 150.421V150.316L69.759 150.355ZM69.5229 149.755L69.559 149.847L69.864 149.725V149.62L69.5229 149.755ZM68.8669 153.137L68.8472 153.232L69.8509 153.458V153.356L68.8669 153.137ZM69.8509 152.694L69.0112 152.504L68.9882 152.599L69.8509 152.795V152.694ZM60.8014 145.009L62.2347 146.76L62.3102 146.698L60.8768 144.95L60.8014 145.009ZM61.8083 147.108L60.375 145.36L60.3028 145.419L61.7329 147.17L61.8083 147.108ZM59.1253 148.256L58.4693 146.426L58.4234 146.586L59.0367 148.289L59.1253 148.256ZM59.7321 148.036L58.9646 145.907L58.8727 145.94L59.6402 148.069L59.7321 148.036ZM58.4201 150.499L58.3348 150.45L57.2098 152.418L57.295 152.467L58.4201 150.499ZM57.7641 150.132L57.072 151.372L56.9638 151.756L57.8723 150.168L57.7641 150.132ZM66.8858 150.185L66.7939 150.162L66.2363 152.353L66.3314 152.376L66.8858 150.185ZM67.5155 150.342L67.4204 150.319L66.8628 152.513L66.9579 152.536L67.5155 150.342ZM63.855 152.192L61.7722 151.31L61.7329 151.398L63.8157 152.281L63.855 152.192ZM64.1076 151.595L62.0248 150.713L61.9854 150.801L64.0682 151.687L64.1076 151.595ZM60.0929 152.346L60.5062 153.717H60.6078L60.1847 152.317L60.0929 152.346ZM59.5681 152.504L59.473 152.53L59.8305 153.717H59.9322L59.5681 152.504ZM65.9936 148.108L65.9182 148.046L64.4979 149.804L64.5734 149.866L65.9936 148.108ZM65.4163 147.639L63.9928 149.397L64.0682 149.46L65.4918 147.702L65.4163 147.639ZM65.8165 144.307H65.7181L65.4655 146.554H65.5606L65.8165 144.307ZM65.0752 144.225L64.8227 146.472H64.921L65.1736 144.222L65.0752 144.225ZM66.666 143.139L67.3647 141.919H67.24L66.584 143.09L66.666 143.139ZM67.9977 141.919L67.1416 143.411L67.2269 143.461L68.1092 141.919H67.9977ZM64.4815 142.824L64.557 142.762L63.8649 141.919H63.7402L64.4815 142.824ZM64.9801 142.414L65.0555 142.352L64.7013 141.919H64.5734L64.9801 142.414ZM61.8706 143.897L61.1556 141.929H61.0539L61.7788 143.939L61.8706 143.897ZM62.3889 143.713L62.4807 143.677L61.8444 141.919H61.7394L62.3889 143.713ZM57.8297 142.463L57.8854 142.644L58.0691 141.919H57.9707L57.8297 142.463ZM58.325 143.146L58.4168 143.169L58.7448 141.919H58.6431L58.325 143.146ZM46.494 127.103L46.5301 127.195L46.599 127.166V127.064L46.494 127.103ZM46.599 126.369L46.271 126.503L46.307 126.592L46.6121 126.473L46.599 126.369ZM45.592 129.977L46.599 130.203V130.104L45.615 129.881L45.592 129.977ZM45.7363 129.347L46.599 129.54V129.442L45.756 129.232L45.7363 129.347ZM46.599 137.035L45.615 136.789L45.592 136.884L46.576 137.137L46.599 137.035ZM45.7888 136.163L45.7658 136.258L46.599 136.468V136.369L45.7888 136.163ZM46.599 139.899V139.794L45.943 140.013L45.9725 140.105L46.599 139.899ZM46.599 139.216V139.115L45.733 139.4L45.7626 139.492L46.599 139.216ZM44.5194 141.184L44.4374 141.138L43.9848 141.929H44.0963L44.5194 141.184ZM45.0803 141.512L44.9983 141.463L44.7294 141.935H44.8409L45.0803 141.512ZM39.7798 141.089L40.4686 141.935H40.5966L39.8553 141.027L39.7798 141.089ZM40.2784 140.679L41.305 141.935H41.4297L40.3538 140.623L40.2784 140.679ZM38.4416 141.568L38.3498 141.601L38.4711 141.929H38.5761L38.4416 141.568ZM37.0312 122.183L37.3592 122.603L37.0312 122.167V122.183ZM34.9943 122.915L35.7651 125.04L35.8537 125.007L35.096 122.849L34.9943 122.915ZM35.6044 122.695L36.3719 124.82L36.4638 124.788L35.6962 122.662L35.6044 122.695ZM43.624 138.36L41.5412 137.478L41.5051 137.566L43.5879 138.449L43.624 138.36ZM43.3714 138.957L41.2919 138.072L41.2526 138.163L43.3354 139.046L43.3714 138.957ZM43.624 132.587L43.0074 134.765L43.0992 134.792L43.7158 132.614L43.624 132.587ZM44.339 132.791L44.2439 132.765L43.6306 134.939L43.7224 134.965L44.339 132.791ZM41.0033 133.024L40.3473 130.859L40.2554 130.885L40.9114 133.053L41.0033 133.024ZM41.6199 132.837L40.9639 130.672L40.8721 130.698L41.5281 132.866L41.6199 132.837ZM35.1518 127.221L35.0698 127.172L33.9447 129.14L34.03 129.186L35.1518 127.221ZM34.5909 126.893L34.5089 126.844L33.3838 128.812L33.4691 128.858L34.5909 126.893ZM40.5834 128.904L38.5006 128.022L38.4646 128.11L40.5474 128.996L40.5834 128.904ZM40.836 128.31L38.7532 127.428L38.7171 127.517L40.7999 128.399L40.836 128.31ZM36.9197 138.531L39.1599 138.203V138.108L36.9197 138.436V138.531ZM37.0115 139.17L39.2518 138.842V138.747L37.0115 139.075V139.17ZM38.6515 136.415L38.7466 136.435L39.2518 134.231L39.1566 134.208L38.6515 136.415ZM39.7864 134.352L39.2813 136.559L39.3764 136.579L39.8815 134.375L39.7864 134.352ZM33.62 130.449L32.7574 130.826L32.7902 130.918L33.6594 130.537L33.62 130.449ZM33.8758 131.043L32.9673 131.439L33.0001 131.531L33.9152 131.131L33.8758 131.043ZM36.8278 129.075L37.4838 131.243L37.579 131.213L36.923 129.048L36.8278 129.075ZM36.2079 129.261L36.8639 131.426L36.959 131.4L36.303 129.235L36.2079 129.261ZM31.2551 125.066L31.3142 125.142L33.1214 123.781L33.0624 123.702L31.2551 125.066ZM33.5118 124.296L33.4527 124.22L31.6454 125.581L31.7045 125.66L33.5118 124.296ZM36.9262 135.418L34.8434 134.536L34.8041 134.624L36.8869 135.507L36.9262 135.418ZM35.0566 134.027L37.1394 134.91L37.1788 134.821L35.096 133.922L35.0566 134.027ZM45.7232 143.703L45.6773 143.789L45.7593 143.723L45.7232 143.703ZM46.0282 143.136L45.9823 143.221L46.2218 143.349L46.3005 143.28L46.0282 143.136ZM42.312 145.504H42.4104L42.5449 144.29H42.4498L42.312 145.504ZM41.656 145.393L41.7511 145.422L41.8856 144.218H41.7905L41.656 145.393ZM44.0799 141.903H43.9684L43.3124 143.074L43.3944 143.123L44.0799 141.903ZM44.8245 141.903H44.713L43.8569 143.395L43.9422 143.444L44.8245 141.903ZM41.1968 142.808L41.269 142.746L40.5802 141.903H40.4522L41.1968 142.808ZM41.6954 142.398L41.7708 142.336L41.4133 141.903H41.2886L41.6954 142.398ZM38.4547 141.903L38.9238 143.215L39.1042 143.425L38.5597 141.916L38.4547 141.903Z" fill="white"/>
<path d="M65.6524 107.256C65.6524 107.256 60.3257 106.515 57.8657 108.106C55.4057 109.696 43.25 130.472 43.25 130.472L36.5359 121.435L30.7139 124.05C30.7139 124.05 33.4428 134.611 36.6179 139.866C39.7929 145.12 41.6035 145.652 42.6924 145.478C45.9331 144.963 55.3204 134.103 55.3204 134.103L58.7316 145.452L56.4159 153.701H99.5479L94.3163 144.976C94.3163 144.976 101.142 113.488 99.4036 110.152C97.6652 106.816 87.5366 107.256 84.3517 107.256H75.2333C73.8514 107.53 72.447 107.675 71.0382 107.689C69.2367 107.637 67.4391 107.492 65.6524 107.256Z" stroke="#263238" stroke-width="0.985332"/>
<path d="M55.3237 134.103C54.075 131.608 53.5901 128.8 53.9297 126.031C54.5627 121.612 57.2983 116.774 57.2983 116.774C57.2983 116.774 51.8403 124.646 51.8403 127.27C51.8403 129.894 53.4639 133.732 53.4639 133.732L52.047 137.776L55.3237 134.103Z" fill="#263238" stroke="#263238" stroke-width="0.985332" stroke-linecap="round" stroke-linejoin="round"/>
<path d="M70.1689 102.903L70.3132 107.535L66.4068 107.679C66.4068 107.679 65.5999 124.673 69.0767 127.713C72.5535 130.754 83.0495 107.256 83.0495 107.256L79.4415 106.531L78.2836 97.124L70.1689 102.903Z" fill="#CFCFCF" stroke="#263238" stroke-width="0.985332" stroke-linecap="round" stroke-linejoin="round"/>
<path d="M78.7001 98.9609L70.3459 106.833V104.048L78.7001 98.9609Z" fill="#263238" stroke="#263238" stroke-width="0.985332" stroke-linecap="round" stroke-linejoin="round"/>
<path d="M69.0767 127.713C69.0767 127.713 69.4965 124.978 71.599 121.403L69.0767 127.713Z" fill="white"/>
<path d="M69.0767 127.713C69.0767 127.713 69.4965 124.978 71.599 121.403" stroke="#263238" stroke-width="0.985332" stroke-linecap="round" stroke-linejoin="round"/>
<path d="M68.4864 76.7881L58.9744 86.6773C59.7217 88.782 60.0839 91.0042 60.0436 93.2373C59.9321 96.7403 63.117 101.893 65.7213 104.288C68.3256 106.682 73.6392 103.002 75.6236 101.703C76.949 100.805 78.1847 99.7811 79.3136 98.646C80.0374 98.6146 80.7414 98.4002 81.3598 98.0227C81.9782 97.6453 82.4907 97.1172 82.8495 96.4878C82.8495 96.4878 69.0276 81.7179 68.4864 76.7881Z" fill="#CFCFCF" stroke="#263238" stroke-width="0.985332" stroke-linecap="round" stroke-linejoin="round"/>
<path d="M65.9082 86.9429C66.237 87.6129 66.45 88.3337 66.538 89.0749C66.5675 89.99 64.9636 94.2769 65.1932 94.5623C65.4228 94.8477 66.1411 95.7923 66.702 95.6709" stroke="#263238" stroke-width="0.985332" stroke-linecap="round" stroke-linejoin="round"/>
<path d="M69.8638 91.63C71.204 91.1278 72.6777 91.1104 74.0294 91.5808" stroke="#263238" stroke-width="0.492666" stroke-linecap="round" stroke-linejoin="round"/>
<path d="M62.4609 91.9712C63.1774 91.77 63.9177 91.6663 64.6618 91.6628" stroke="#263238" stroke-width="0.492666" stroke-linecap="round" stroke-linejoin="round"/>
<path d="M64.7078 84.5191C64.3403 84.4918 63.9714 84.5499 63.6301 84.6887C63.2887 84.8275 62.984 85.0434 62.7398 85.3194C61.9165 86.2673 61.5164 87.0939 61.3097 86.4248C61.1031 85.7556 62.0215 84.5257 62.3462 84.2764C62.6709 84.0271 64.1929 83.0496 64.7078 84.5191Z" fill="#263238"/>
<path d="M68.7783 83.9681C69.7432 83.9645 70.6952 84.1892 71.5565 84.6241C72.8127 85.3129 72.2125 83.9156 71.3302 83.5154C70.4478 83.1153 68.9194 83.1546 68.7783 83.9681Z" fill="#263238"/>
<path d="M83.3413 100.417C83.4004 101.401 82.892 102.221 82.213 102.261C81.534 102.3 80.9338 101.539 80.8748 100.562C80.8157 99.5841 81.2257 97.0618 81.9047 97.0224C82.5836 96.9831 83.2856 99.4365 83.3413 100.417Z" fill="#5C88C6" stroke="#263238" stroke-width="0.985332" stroke-linecap="round" stroke-linejoin="round"/>
<path d="M64.3173 90.1999C64.3633 90.8559 64.114 91.3873 63.763 91.4102C63.4121 91.4332 63.107 90.9313 63.0513 90.2885C62.9955 89.6456 63.2546 89.1011 63.6056 89.0781C63.9566 89.0552 64.2878 89.5701 64.3173 90.1999Z" fill="#263238"/>
<path d="M71.3957 89.9475C71.4416 90.6035 71.1923 91.1316 70.8446 91.1578C70.4969 91.184 70.1886 90.6789 70.1296 90.0327C70.0705 89.3866 70.3362 88.8487 70.6839 88.8257C71.0316 88.8027 71.353 89.3046 71.3957 89.9475Z" fill="#263238"/>
<path d="M66.656 97.5374C66.656 97.5374 68.3255 98.072 70.592 96.1335" stroke="#263238" stroke-width="0.985332" stroke-linecap="round" stroke-linejoin="round"/>
<path d="M36.5359 121.442L33.4822 117.352C33.3412 116.263 33.0689 114.013 33.023 112.494C32.9607 110.428 33.0624 109.165 31.8881 107.331C30.7139 105.498 27.4372 102.602 27.1289 101.929C26.8205 101.257 25.9284 103.153 26.4893 104.383C27.0501 105.613 27.5618 105.99 27.5618 105.99C27.5618 105.99 21.5299 102.992 21.3298 103.481C21.1297 103.969 24.1375 112.612 25.5151 114.892C26.0891 115.843 27.6799 117.116 28.4474 118.218C28.8228 118.761 29.1447 119.34 29.4085 119.946C30.1235 122.987 30.9566 126.332 31.3765 126.454C32.3309 126.733 36.3817 126.798 36.5359 121.442Z" fill="#CFCFCF" stroke="#263238" stroke-width="0.985332" stroke-miterlimit="10"/>
<path d="M27.962 112.045C27.9069 112.06 27.8493 112.063 27.7927 112.056C27.7361 112.048 27.6815 112.03 27.6322 112.001C27.5828 111.973 27.5395 111.934 27.505 111.889C27.4704 111.843 27.4451 111.792 27.4306 111.736L22.632 93.9949C22.6063 93.8876 22.6226 93.7746 22.6775 93.6789C22.7323 93.5832 22.8216 93.512 22.9272 93.48C23.0381 93.4508 23.156 93.4664 23.2554 93.5235C23.3549 93.5806 23.4278 93.6745 23.4586 93.785L28.2703 111.52C28.2974 111.63 28.2804 111.747 28.2228 111.845C28.1652 111.943 28.0716 112.015 27.962 112.045Z" fill="#263238" stroke="#263238" stroke-width="0.985332" stroke-miterlimit="10"/>
<path d="M24.5015 100.758C24.5015 100.758 19.8701 103.205 20.1555 103.684C20.4408 104.163 21.2871 105.872 21.6741 105.832C22.0612 105.793 24.8721 103.497 25.0755 103.208C25.2788 102.92 24.5015 100.758 24.5015 100.758Z" fill="#CFCFCF" stroke="#263238" stroke-width="0.985332" stroke-miterlimit="10"/>
<path d="M25.3281 103.763C25.3281 103.763 21.4806 106.6 21.6053 107.013C21.7299 107.426 23.6159 112.317 23.9439 112.714C24.2719 113.111 27.2829 111.73 27.2829 111.73L25.3281 103.763Z" fill="#CFCFCF" stroke="#263238" stroke-width="0.985332" stroke-miterlimit="10"/>
<path d="M25.9119 106.4C25.9119 106.4 22.2285 109.293 22.4712 109.385" stroke="#263238" stroke-width="0.985332" stroke-miterlimit="10"/>
<path d="M26.6073 109.536L23.511 111.349" stroke="#263238" stroke-width="0.985332" stroke-miterlimit="10"/>
<path d="M27.552 105.99L29.251 107.65C29.251 107.65 26.9944 112.468 29.1559 115.128" stroke="#263238" stroke-width="0.985332" stroke-miterlimit="10"/>
<path d="M94.5919 108.283C94.5919 108.283 98.7149 107.745 100.496 111.153C102.277 114.561 113.406 144.681 113.586 147.561C113.767 150.441 106.233 151.146 103.723 149.893C101.214 148.64 94.2114 133.755 93.5029 131.781" fill="#5C88C6"/>
<path d="M95.9026 129.14L95.2915 131.312L95.386 131.339L95.997 129.166L95.9026 129.14Z" fill="white"/>
<path d="M97.3273 123.013L96.7008 120.838L96.6057 120.868L97.2355 123.039L97.3273 123.013Z" fill="white"/>
<path d="M97.0206 129.355L96.4028 131.532L96.4975 131.559L97.1152 129.382L97.0206 129.355Z" fill="white"/>
<path d="M97.9702 127.93L96.5369 126.178L96.4614 126.241L97.8948 127.989L97.9702 127.93Z" fill="white"/>
<path d="M101.064 130.276L98.9895 131.181L99.0288 131.272L101.103 130.367L101.064 130.276Z" fill="white"/>
<path d="M100.87 132.886L100.788 132.833L99.5774 134.746L99.6594 134.798L100.87 132.886Z" fill="white"/>
<path d="M95.9858 121.045L96.6123 123.22L96.7074 123.19L96.0777 121.019L95.9858 121.045Z" fill="white"/>
<path d="M99.0295 134.398L99.1115 134.45L100.322 132.541L100.24 132.489L99.0295 134.398Z" fill="white"/>
<path d="M98.4687 127.52L97.0386 125.768L96.9631 125.831L98.3932 127.579L98.4687 127.52Z" fill="white"/>
<path d="M100.638 123.437L98.8289 124.797L98.888 124.876L100.697 123.516L100.638 123.437Z" fill="white"/>
<path d="M100.184 113.806L100.837 115.974L100.929 115.945L100.279 113.78L100.184 113.806Z" fill="white"/>
<path d="M100.306 123.006L100.246 122.928L98.4392 124.289L98.4982 124.368L100.306 123.006Z" fill="white"/>
<path d="M99.1115 111.192L99.7905 110.119C99.7675 110.096 99.7479 110.07 99.7249 110.044L99.0295 111.139L99.1115 111.192Z" fill="white"/>
<path d="M97.1272 115.275L97.2059 115.335L98.5802 113.537L98.5048 113.478L97.1272 115.275Z" fill="white"/>
<path d="M98.3606 118.224L100.443 119.107L100.483 119.018L98.4 118.136L98.3606 118.224Z" fill="white"/>
<path d="M100.804 113.619L101.457 115.787L101.549 115.758L100.899 113.593L100.804 113.619Z" fill="white"/>
<path d="M100.666 128.104L101.792 126.139L101.706 126.093L100.584 128.054L100.666 128.104Z" fill="white"/>
<path d="M98.1499 118.739L98.1128 118.826L100.196 119.71L100.233 119.623L98.1499 118.739Z" fill="white"/>
<path d="M100.799 129.697L98.7249 130.602L98.7642 130.692L100.839 129.787L100.799 129.697Z" fill="white"/>
<path d="M105.944 149.939L105.908 150.027L106.954 150.473H107.21L105.944 149.939Z" fill="white"/>
<path d="M106.396 142.903L105.76 141.142L105.629 140.778L105.537 140.81L105.658 141.142L106.305 142.936L106.396 142.903Z" fill="white"/>
<path d="M104.219 144.661L105.652 146.413L105.724 146.35L104.294 144.599L104.219 144.661Z" fill="white"/>
<path d="M105.786 143.123L105.075 141.142L105.019 140.997L104.93 141.027L104.97 141.142L105.698 143.156L105.786 143.123Z" fill="white"/>
<path d="M106.423 138.003L104.183 138.318L104.196 138.413L106.436 138.098L106.423 138.003Z" fill="white"/>
<path d="M112.93 147.672L113.537 147.147L113.517 147.039L112.861 147.6L112.93 147.672Z" fill="white"/>
<path d="M96.6155 114.882L96.6909 114.941L98.0685 113.144L97.9898 113.084L96.6155 114.882Z" fill="white"/>
<path d="M94.0335 126.777L93.9409 126.811L94.7094 128.939L94.802 128.906L94.0335 126.777Z" fill="white"/>
<path d="M112.504 147.183L113.37 146.436C113.359 146.401 113.35 146.366 113.344 146.331L112.442 147.111L112.504 147.183Z" fill="white"/>
<path d="M106.226 145.94L104.793 144.192L104.717 144.251L106.151 146.003L106.226 145.94Z" fill="white"/>
<path d="M94.4769 120.961L94.3455 123.22L94.4437 123.226L94.5752 120.967L94.4769 120.961Z" fill="white"/>
<path d="M104.753 130.439L104.104 128.274L104.009 128.3L104.662 130.468L104.753 130.439Z" fill="white"/>
<path d="M102.881 121.865L102.792 121.897L103.56 124.026L103.65 123.994L102.881 121.865Z" fill="white"/>
<path d="M102.552 117.873L102.241 119.103L102.336 119.126L102.654 117.873L102.893 116.932L102.798 116.909L102.552 117.873Z" fill="white"/>
<path d="M101.887 117.873L101.614 118.943L101.709 118.965L101.985 117.873L102.267 116.774L102.172 116.751L101.887 117.873Z" fill="white"/>
<path d="M103.389 128.488L104.041 130.652L104.133 130.626L103.484 128.458L103.389 128.488Z" fill="white"/>
<path d="M102.268 122.094L102.179 122.126L102.947 124.255L103.037 124.223L102.268 122.094Z" fill="white"/>
<path d="M94.6458 126.551L94.5532 126.585L95.3213 128.714L95.4139 128.68L94.6458 126.551Z" fill="white"/>
<path d="M99.6594 111.52L100.21 110.651L100.151 110.559L99.5774 111.471L99.6594 111.52Z" fill="white"/>
<path d="M102.241 133.253L104.324 134.136L104.36 134.047L102.277 133.165L102.241 133.253Z" fill="white"/>
<path d="M96.5172 109.86L96.4319 109.811L95.3069 111.772L95.3922 111.822L96.5172 109.86Z" fill="white"/>
<path d="M111.848 141.466L111.805 141.345L111.067 142.637L111.149 142.683L111.848 141.466Z" fill="white"/>
<path d="M109.732 143.533L109.637 143.523L109.381 145.77L109.48 145.78L109.732 143.533Z" fill="white"/>
<path d="M108.493 137.325L108.456 137.412L110.54 138.296L110.577 138.209L108.493 137.325Z" fill="white"/>
<path d="M111.28 141.142L111.566 140.646L111.526 140.522L111.169 141.142L110.497 142.316L110.582 142.362L111.28 141.142Z" fill="white"/>
<path d="M109.913 147.334L109.837 147.272L108.414 149.03L108.489 149.092L109.913 147.334Z" fill="white"/>
<path d="M110.473 137.455L108.742 136.72L108.706 136.809L110.516 137.576L110.473 137.455Z" fill="white"/>
<path d="M109.408 146.928L109.332 146.865L107.912 148.623L107.987 148.686L109.408 146.928Z" fill="white"/>
<path d="M107.066 133.617L106.97 133.594L106.465 135.799L106.56 135.822L107.066 133.617Z" fill="white"/>
<path d="M108.397 142.05L108.473 141.988L107.781 141.142L107.039 140.236L106.964 140.299L107.656 141.142L108.397 142.05Z" fill="white"/>
<path d="M95.8677 112.094L95.953 112.143L97.078 110.178L96.9927 110.133L95.8677 112.094Z" fill="white"/>
<path d="M102.268 145.361L102.178 145.393L102.947 147.522L103.036 147.489L102.268 145.361Z" fill="white"/>
<path d="M110.831 149.417L110.736 149.391L110.562 150.073L110.67 150.044L110.831 149.417Z" fill="white"/>
<path d="M102.884 145.133L102.794 145.166L103.562 147.294L103.652 147.262L102.884 145.133Z" fill="white"/>
<path d="M105.905 126.759L106.77 127.126C106.77 127.084 106.738 127.041 106.725 127.002L105.941 126.674L105.905 126.759Z" fill="white"/>
<path d="M111.458 149.568L111.362 149.545L111.284 149.85L111.395 149.811L111.458 149.568Z" fill="white"/>
<path d="M100.23 142.883L98.5115 142.155L98.5836 142.29L100.191 142.972L100.23 142.883Z" fill="white"/>
<path d="M94.3557 113.409L95.4742 114.574L95.5463 114.508L94.3623 113.278L94.3557 113.409Z" fill="white"/>
<path d="M104.219 121.393L104.986 122.328L104.878 122.046L104.304 121.331L104.219 121.393Z" fill="white"/>
<path d="M95.0082 115.023L95.0771 114.954L94.3227 114.167L94.3162 114.301L95.0082 115.023Z" fill="white"/>
<path d="M107.456 130.127L108.109 132.295L108.201 132.266L107.551 130.101L107.456 130.127Z" fill="white"/>
<path d="M100.483 142.29L98.4 141.404L98.3606 141.493L100.443 142.378L100.483 142.29Z" fill="white"/>
<path d="M98.0685 136.415L97.9898 136.356L96.6155 138.15L96.6909 138.209L98.0685 136.415Z" fill="white"/>
<path d="M101.549 139.029L100.899 136.861L100.804 136.891L101.457 139.056L101.549 139.029Z" fill="white"/>
<path d="M100.929 139.216L100.279 137.048L100.184 137.078L100.837 139.243L100.929 139.216Z" fill="white"/>
<path d="M98.5802 136.806L98.5048 136.75L97.1272 138.544L97.2059 138.603L98.5802 136.806Z" fill="white"/>
<path d="M95.2739 118.929L95.369 118.956L95.6741 117.873L95.9824 116.781L95.8906 116.751L95.5724 117.873L95.2739 118.929Z" fill="white"/>
<path d="M94.9002 117.873L94.6509 118.756L94.746 118.782L95.0018 117.873L95.3594 116.604L95.2675 116.578L94.9002 117.873Z" fill="white"/>
<path d="M96.5172 133.129L96.4319 133.079L95.3069 135.044L95.3922 135.09L96.5172 133.129Z" fill="white"/>
<path d="M97.078 133.45L96.9927 133.401L95.8677 135.366L95.953 135.412L97.078 133.45Z" fill="white"/>
<path d="M102.27 126.415L101.145 128.376L101.227 128.425L102.352 126.46L102.27 126.415Z" fill="white"/>
<path d="M106.341 133.45L105.836 135.654L105.931 135.677L106.436 133.473L106.341 133.45Z" fill="white"/>
<path d="M107.029 127.831L105.688 127.264L105.652 127.352L107.075 127.956C107.059 127.92 107.046 127.874 107.029 127.831Z" fill="white"/>
<path d="M106.347 137.458L106.334 137.363L104.094 137.678L104.107 137.773L106.347 137.458Z" fill="white"/>
<path d="M107.541 139.826L107.466 139.889L108.492 141.142L108.899 141.64L108.975 141.578L108.617 141.142L107.541 139.826Z" fill="white"/>
<path d="M102.654 141.142L102.893 140.204L102.798 140.181L102.552 141.142L102.241 142.372L102.336 142.395L102.654 141.142Z" fill="white"/>
<path d="M102.026 133.769L101.989 133.857L104.072 134.741L104.11 134.653L102.026 133.769Z" fill="white"/>
<path d="M101.985 141.142L102.267 140.043L102.172 140.02L101.887 141.142L101.614 142.211L101.709 142.237L101.985 141.142Z" fill="white"/>
<path d="M108.837 145.707L109.089 143.461L108.994 143.451L108.739 145.697L108.837 145.707Z" fill="white"/>
<path d="M94.5919 108.283C94.5919 108.283 98.7149 107.745 100.496 111.153C102.277 114.561 113.406 144.681 113.586 147.561C113.767 150.441 106.233 151.146 103.723 149.893C101.214 148.64 94.2114 133.755 93.5029 131.781" stroke="#263238" stroke-width="0.985332"/>
<path d="M69.6671 149.345C69.6671 149.345 61.2408 148.269 59.8042 148.446C58.3675 148.623 51.9158 152.93 51.9158 152.93H70.1919L69.6671 149.345Z" fill="#CFCFCF" stroke="#263238" stroke-width="0.985332" stroke-linecap="round" stroke-linejoin="round"/>
<path d="M104.452 143.605L69.6836 149.345L70.192 152.93H113.062C113.395 151.156 113.575 149.356 113.6 147.551C113.6 144.861 111.986 141.814 111.986 141.814" fill="#5C88C6"/>
<path d="M107.331 149.525L107.984 151.69L108.076 151.664L107.426 149.496L107.331 149.525Z" fill="white"/>
<path d="M109.713 143.398L108.289 145.156L108.365 145.219L109.788 143.461L109.713 143.398Z" fill="white"/>
<path d="M107.787 144.75L107.863 144.812L109.283 143.054L109.208 142.992L107.787 144.75Z" fill="white"/>
<path d="M103.264 147.882L103.917 150.05L104.009 150.021L103.359 147.856L103.264 147.882Z" fill="white"/>
<path d="M108.696 151.477L108.043 149.309L107.951 149.338L108.604 151.503L108.696 151.477Z" fill="white"/>
<path d="M104.629 149.837L103.979 147.669L103.884 147.698L104.537 149.863L104.629 149.837Z" fill="white"/>
<path d="M110.613 145.519L110.056 147.712L110.152 147.736L110.709 145.543L110.613 145.519Z" fill="white"/>
<path d="M110.214 152.93H110.316L110.792 151.251L110.697 151.224L110.214 152.93Z" fill="white"/>
<path d="M102.152 152.559L102.116 152.648L102.779 152.93H103.028L102.152 152.559Z" fill="white"/>
<path d="M111.232 145.662L110.674 147.855L110.769 147.88L111.327 145.686L111.232 145.662Z" fill="white"/>
<path d="M94.5181 145.946L94.4255 145.979L95.1937 148.108L95.2862 148.075L94.5181 145.946Z" fill="white"/>
<path d="M105.527 146.751L107.607 147.633L107.646 147.544L105.563 146.659L105.527 146.751Z" fill="white"/>
<path d="M106.216 152.848L106.197 152.93H106.295L106.311 152.868L106.216 152.848Z" fill="white"/>
<path d="M105.816 146.072L105.779 146.16L107.863 147.044L107.9 146.956L105.816 146.072Z" fill="white"/>
<path d="M96.3367 145.635L97.77 147.387L97.8455 147.325L96.4121 145.573L96.3367 145.635Z" fill="white"/>
<path d="M98.3441 146.915L96.9108 145.166L96.8386 145.225L98.2687 146.977L98.3441 146.915Z" fill="white"/>
<path d="M112.383 143.31L112.583 143.136L112.543 143.041L112.32 143.238L112.383 143.31Z" fill="white"/>
<path d="M96.2738 148.575L95.656 150.753L95.7507 150.78L96.3684 148.602L96.2738 148.575Z" fill="white"/>
<path d="M112.799 147.967L113.59 148.148C113.59 148.115 113.59 148.082 113.59 148.049L112.815 147.872L112.799 147.967Z" fill="white"/>
<path d="M100.663 152.231L100.22 152.93H100.335L100.745 152.281L100.663 152.231Z" fill="white"/>
<path d="M113.567 148.705L112.678 148.505L112.655 148.597L113.56 148.804C113.563 148.771 113.567 148.738 113.567 148.705Z" fill="white"/>
<path d="M112.806 143.799L112.829 143.779L112.793 143.68L112.743 143.726L112.806 143.799Z" fill="white"/>
<path d="M100.674 149.089L98.5991 149.994L98.6385 150.084L100.713 149.179L100.674 149.089Z" fill="white"/>
<path d="M100.197 151.936L100.115 151.884L99.4529 152.93H99.5677L100.197 151.936Z" fill="white"/>
<path d="M96.9029 148.769L96.2852 150.946L96.3798 150.973L96.9976 148.796L96.9029 148.769Z" fill="white"/>
<path d="M100.939 149.674L98.8647 150.579L98.9041 150.669L100.978 149.764L100.939 149.674Z" fill="white"/>
<path d="M102.228 145.858L102.146 145.809L101.021 147.774L101.103 147.823L102.228 145.858Z" fill="white"/>
<path d="M100.46 147.452L100.542 147.498L101.667 145.537L101.581 145.488L100.46 147.452Z" fill="white"/>
<path d="M77.4066 149.091L75.332 149.996L75.3714 150.086L77.4459 149.181L77.4066 149.091Z" fill="white"/>
<path d="M73.1242 152.523L73.0389 152.477L72.7798 152.93H72.8913L73.1242 152.523Z" fill="white"/>
<path d="M72.4812 150.782L73.0454 148.787L72.9404 148.804L72.3894 150.755L72.4812 150.782Z" fill="white"/>
<path d="M73.6851 152.845L73.5999 152.799L73.5244 152.93H73.6359L73.6851 152.845Z" fill="white"/>
<path d="M84.591 147.036L84.6304 146.947L84.5057 146.898L84.3286 146.924L84.591 147.036Z" fill="white"/>
<path d="M86.946 152.93H87.0477L87.52 151.251L87.4282 151.224L86.946 152.93Z" fill="white"/>
<path d="M87.7956 146.354L87.4119 147.869L87.5037 147.895L87.9006 146.337L87.7956 146.354Z" fill="white"/>
<path d="M76.9289 151.936L76.8469 151.884L76.1843 152.93H76.2991L76.9289 151.936Z" fill="white"/>
<path d="M77.4768 152.281L77.3948 152.231L76.9487 152.93H77.0635L77.4768 152.281Z" fill="white"/>
<path d="M96.8682 152.799L96.7927 152.93H96.9042L96.9534 152.845L96.8682 152.799Z" fill="white"/>
<path d="M111.32 151.402L110.887 152.93H110.989L111.412 151.428L111.32 151.402Z" fill="white"/>
<path d="M93.9092 146.17L93.8167 146.204L94.5851 148.333L94.6777 148.299L93.9092 146.17Z" fill="white"/>
<path d="M88.0481 151.402L87.6184 152.93H87.7168L88.1432 151.428L88.0481 151.402Z" fill="white"/>
<path d="M78.8838 152.559L78.8445 152.648L79.5103 152.93H79.7563L78.8838 152.559Z" fill="white"/>
<path d="M96.3925 152.523L96.3072 152.477L96.0481 152.93H96.1596L96.3925 152.523Z" fill="white"/>
<path d="M73.1328 148.618L72.5217 150.79L72.6162 150.817L73.2273 148.644L73.1328 148.618Z" fill="white"/>
<path d="M91.7907 150.263L91.6989 150.227L90.8723 152.333L90.9609 152.369L91.7907 150.263Z" fill="white"/>
<path d="M77.6649 149.683L75.5903 150.587L75.6297 150.677L77.7042 149.773L77.6649 149.683Z" fill="white"/>
<path d="M92.3908 150.496L92.299 150.463L91.4724 152.569L91.5643 152.602L92.3908 150.496Z" fill="white"/>
<path d="M89.3865 148.6L90.3902 148.827L91.5906 149.096L91.6136 149.001L90.3902 148.725L89.4062 148.505L89.3865 148.6Z" fill="white"/>
<path d="M91.735 148.466L91.758 148.371L90.3902 148.063L89.5505 147.872L89.5276 147.967L90.3902 148.161L91.735 148.466Z" fill="white"/>
<path d="M86.8805 147.734L87.2052 146.452L87.1003 146.468L86.7854 147.711L86.8805 147.734Z" fill="white"/>
<path d="M84.3778 147.544L83.3151 147.092L83.1379 147.121L84.3384 147.633L84.3778 147.544Z" fill="white"/>
<path d="M81.2652 149.863L81.3603 149.837L80.7076 147.669L80.6157 147.698L81.2652 149.863Z" fill="white"/>
<path d="M80.7404 150.021L80.0877 147.856L79.9958 147.882L80.6486 150.05L80.7404 150.021Z" fill="white"/>
<path d="M84.063 149.525L84.7157 151.69L84.8075 151.664L84.1548 149.496L84.063 149.525Z" fill="white"/>
<path d="M82.9445 152.848L82.9248 152.93H83.0265L83.0396 152.868L82.9445 152.848Z" fill="white"/>
<path d="M85.4274 151.477L84.7747 149.309L84.6829 149.338L85.3323 151.503L85.4274 151.477Z" fill="white"/>
<path d="M104.452 143.605L69.6836 149.345L70.192 152.93H113.062C113.395 151.156 113.575 149.356 113.6 147.551C113.6 144.861 111.986 141.814 111.986 141.814" stroke="#263238" stroke-width="0.985332"/>
<path d="M112.097 152.35H68.8801L67.4631 128.576C67.4246 128.345 67.4369 128.107 67.4992 127.881C67.5616 127.655 67.6724 127.445 67.8241 127.266C67.9758 127.086 68.1647 126.942 68.3776 126.844C68.5906 126.745 68.8225 126.694 69.0572 126.693H111.914C112.149 126.693 112.381 126.744 112.594 126.842C112.807 126.941 112.996 127.085 113.148 127.264C113.3 127.444 113.411 127.654 113.473 127.88C113.535 128.107 113.547 128.344 113.508 128.576L112.097 152.35Z" fill="#263238" stroke="#263238" stroke-width="0.985332" stroke-linecap="round" stroke-linejoin="round"/>
<path d="M71.0022 127.264H111.602C111.831 127.262 112.058 127.309 112.267 127.404C112.476 127.498 112.662 127.637 112.811 127.811C112.961 127.984 113.071 128.189 113.133 128.409C113.196 128.63 113.209 128.861 113.173 129.088" stroke="white" stroke-width="0.985332" stroke-linecap="round" stroke-linejoin="round"/>
<path d="M67.7847 128.724C67.8154 128.325 67.9963 127.952 68.2909 127.681C68.5856 127.41 68.972 127.261 69.3722 127.264" stroke="white" stroke-width="0.985332" stroke-linecap="round" stroke-linejoin="round"/>
<path d="M112.278 150.034H68.6931V152.35H112.278V150.034Z" fill="white" stroke="#263238" stroke-width="0.985332" stroke-linecap="round" stroke-linejoin="round"/>
<path d="M93.4211 139.617C93.4211 140.64 92.037 141.47 90.3314 141.47C88.6258 141.47 87.2449 140.64 87.2449 139.617C87.2449 138.593 88.629 137.763 90.3314 137.763C92.0337 137.763 93.4211 138.593 93.4211 139.617Z" fill="white" stroke="#263238" stroke-width="0.985332" stroke-linecap="round" stroke-linejoin="round"/>
<path d="M25.8923 149.962C24.9763 149.916 24.0766 149.702 23.2388 149.329C23.0254 149.226 22.8599 149.045 22.7769 148.823C22.6938 148.601 22.6997 148.356 22.7933 148.138C22.8868 147.921 23.0608 147.748 23.2789 147.655C23.497 147.563 23.7423 147.559 23.9637 147.643C24.8099 148.004 25.8956 148.227 26.1875 148.102C26.7189 147.502 27.5422 143.877 26.4794 142.149C26.4236 142.027 26.3394 141.92 26.2338 141.837C26.1283 141.755 26.0044 141.698 25.8726 141.673C25.2691 141.591 24.377 142.211 24.0621 142.506C23.8825 142.662 23.6494 142.743 23.4118 142.731C23.1742 142.718 22.9506 142.614 22.7882 142.44C22.6258 142.266 22.5372 142.036 22.5411 141.798C22.545 141.56 22.6411 141.333 22.8091 141.165C22.9764 141.007 24.4983 139.64 26.1154 139.853C26.5167 139.913 26.899 140.064 27.2328 140.295C27.5666 140.526 27.843 140.83 28.0407 141.185C29.6053 143.73 28.536 148.584 27.3322 149.535C26.9143 149.836 26.4067 149.987 25.8923 149.962Z" fill="#263238" stroke="#263238" stroke-width="0.985332" stroke-linecap="round" stroke-linejoin="round"/>
<path d="M24.2687 139.105H14.1499V152.537H24.2687V139.105Z" fill="#263238" stroke="#263238" stroke-width="0.985332" stroke-linecap="round" stroke-linejoin="round"/>
<path d="M15.0684 138.37C15.0684 138.37 15.0684 137.252 17.1184 136.133C19.1684 135.015 20.2868 133.339 19.1684 130.17C18.0499 127.002 18.2368 124.765 20.4804 122.898" stroke="#263238" stroke-width="0.985332" stroke-linecap="round" stroke-linejoin="round"/>
<path d="M15.5342 126.447C15.6391 125.086 16.2459 123.935 17.5022 122.898" stroke="#263238" stroke-width="0.985332" stroke-linecap="round" stroke-linejoin="round"/>
<path d="M16.1867 130.17C15.9819 129.605 15.8164 129.026 15.6914 128.438" stroke="#263238" stroke-width="0.985332" stroke-linecap="round" stroke-linejoin="round"/>
<path d="M23.393 131.262C23.3145 130.892 23.2104 130.527 23.0815 130.17L22.9109 129.665" stroke="#263238" stroke-width="0.985332" stroke-linecap="round" stroke-linejoin="round"/>
<path d="M18.9814 138.37C18.9814 138.37 18.9814 137.252 21.0314 136.133C22.3762 135.398 23.3274 134.424 23.4947 132.948" stroke="#263238" stroke-width="0.985332" stroke-linecap="round" stroke-linejoin="round"/>
<path d="M157.45 152.307H4.7854V155.685H157.45V152.307Z" fill="#263238"/>
</svg>
