<svg width="229" height="178" viewBox="0 0 229 178" fill="none" xmlns="http://www.w3.org/2000/svg">
<g clip-path="url(#clip0_363_1200)">
<path opacity="0.1" d="M224.571 47.3603C222.304 42.1007 219.24 37.2212 215.488 32.8933L89.4645 31.6523L193.224 17.085C186.521 14.4168 179.385 13.0015 172.171 12.9096C162.245 4.97924 150.023 0.463424 137.324 0.0338769C124.624 -0.39567 112.126 3.284 101.686 10.5255C93.3437 6.23861 84.0954 4.01079 74.715 4.02842C46.7138 4.02842 23.3803 23.4128 18.1465 49.1205L224.571 47.3603Z" fill="#5C88C6"/>
<path opacity="0.1" d="M229.002 68.9193C229.008 61.9482 227.675 55.0409 225.075 48.5724L6.66027 71.4883C4.40798 75.5602 2.68512 79.903 1.53349 84.4112L69.1691 94.4911L-0.0112305 101.844C2.07069 130.945 27.0292 153.925 57.518 153.925C72.8649 153.925 86.812 148.101 97.1435 138.605C107.511 148.282 121.589 154.231 137.101 154.231C160.118 154.231 179.983 141.132 189.234 122.191C207.795 116.304 222.212 101.519 227.148 83.0231L141.624 69.7526H229.002C228.998 69.4741 229.002 69.1978 229.002 68.9193Z" fill="#5C88C6"/>
<path d="M63.9021 178C91.8472 178 114.501 174.288 114.501 169.709C114.501 165.13 91.8472 161.419 63.9021 161.419C35.957 161.419 13.303 165.13 13.303 169.709C13.303 174.288 35.957 178 63.9021 178Z" fill="#5C88C6"/>
<path d="M116.233 116.302C113.957 116.872 111.621 115.763 111.621 115.763C111.621 115.763 109.628 113.457 107.948 113.145C106.267 112.833 105.616 115.562 104.618 116.264C103.927 116.756 98.9425 116.404 95.9243 116.141L95.405 116.095C95.3537 116.057 95.3024 116.017 95.2467 115.981C95.2467 115.981 92.349 115.09 91.7449 114.301C91.1408 113.512 87.1041 112.053 85.8513 112.138C84.5986 112.222 80.8962 112.423 80.8962 112.423C80.8962 112.423 79.4451 110.772 78.7898 110.943C78.1344 111.115 75.8563 110.93 75.8563 110.93C75.8563 110.93 75.23 109.321 74.6036 107.015C74.3116 105.939 73.3398 105.184 72.388 104.687C73.2439 101.79 71.7192 93.5286 66.9848 91.9132C65.9527 91.5611 65.4245 90.3914 64.5462 89.7497C63.7594 89.1771 62.471 87.8269 63.1018 85.3871C63.9934 81.9714 66.2046 76.5928 66.2046 76.5928L67.8519 73.3042C67.6982 73.5372 67.5236 73.7557 67.3303 73.957C67.5532 73.6718 67.7761 73.3911 67.9678 73.1549C69.6116 73.9848 71.4046 74.4787 73.2417 74.6076C75.1007 75.3585 76.9575 76.0202 77.6797 75.9957C79.3314 75.9378 83.5443 78.0455 83.5443 78.0455C83.5443 78.0455 93.6797 80.9421 95.7861 81.176C97.8926 81.41 98.918 78.6716 98.918 78.6716C98.918 78.6716 100.012 73.273 98.0687 71.8425C96.125 70.4121 94.9948 76.9671 94.9948 76.9671L81.7343 72.1901L80.9162 71.7601C81.5514 71.0883 82.0557 70.304 82.403 69.4473C82.6081 68.9371 82.7953 68.3534 83.2835 68.0993C83.4149 68.0341 83.5567 67.9926 83.7025 67.9768C83.8235 67.969 83.9449 67.969 84.0659 67.9768C86.3662 68.1172 88.3434 69.9264 90.6482 69.9353C90.7329 69.9353 90.8176 69.9353 90.9023 69.9353C91.3417 69.934 91.7708 69.8021 92.135 69.5565C92.3406 69.3892 92.5096 69.1814 92.6316 68.9461C92.7535 68.7108 92.8258 68.4529 92.8438 68.1885C92.8102 68.2601 92.773 68.33 92.7324 68.3979C92.7925 68.0701 92.7925 67.7342 92.7324 67.4064C92.5897 66.6243 92.1818 65.9225 91.8162 65.2162C91.7129 65.0514 91.6545 64.8624 91.6468 64.6681C91.6572 64.5666 91.688 64.4683 91.7375 64.3791C91.7869 64.2899 91.8539 64.2116 91.9344 64.1489C91.9378 64.1699 91.9422 64.1908 91.9478 64.2113C92.1215 64.048 92.3146 63.9065 92.5228 63.7902C93.0862 63.4209 93.5677 62.9398 93.9373 62.3768C94.307 61.8137 94.5569 61.1808 94.6716 60.5172C94.6159 60.682 94.549 60.8447 94.4777 61.0051C94.8206 59.874 94.7373 58.6567 94.2437 57.5828C94.1158 57.2771 93.9117 57.0094 93.6507 56.8052C92.8193 56.2214 91.7026 56.843 90.6884 56.9099C89.7967 56.9678 88.9319 56.569 88.1272 56.1657C86.7541 55.4772 85.3877 54.733 84.2442 53.7148C82.9447 52.5495 81.9795 51.0634 80.807 49.7733C79.6346 48.4832 78.13 47.3335 76.3846 47.2043C73.2127 46.9592 70.2213 50.1008 67.2055 49.0759C65.7343 48.579 64.7669 47.2199 63.7438 46.0524C62.7206 44.8849 61.3141 43.7641 59.7805 44.0159C58.7151 44.1942 57.7922 45.0208 56.7134 44.9896C56.1494 44.9718 55.6256 44.72 55.0906 44.544C53.7956 44.1095 52.0213 44.3212 51.5599 45.609C51.4692 45.8713 51.4372 46.1503 51.4661 46.4263C51.495 46.7023 51.584 46.9686 51.727 47.2065C51.6588 47.3022 51.5977 47.4027 51.5442 47.5073C51.4335 47.7114 51.395 47.947 51.435 48.1758C50.5183 48.9983 49.839 50.0514 49.468 51.2256C49.097 52.3997 49.0478 53.6519 49.3255 54.8515C49.6032 56.0511 50.1977 57.1543 51.047 58.0462C51.8964 58.938 52.9694 59.5859 54.1544 59.9222C54.1968 60.0849 54.2391 60.2476 54.2793 60.4124C54.7117 62.2328 54.9368 64.2826 54.2971 65.664C54.257 65.7487 54.2146 65.8312 54.1678 65.9114L54.1121 65.9359L54.0319 65.8534L53.5459 65.3454C53.5192 64.8151 53.2205 63.3936 51.143 60.7556C48.408 57.282 47.8953 51.5335 47.8953 51.5335C47.8953 51.5335 47.2132 48.5746 47.8953 47.7212C48.5774 46.8679 49.7187 37.472 49.7187 37.472L51.6044 32.1825C51.6044 32.1825 60.7725 22.8468 56.9541 21.7105C54.3617 20.9373 51.2701 24.9212 49.5537 27.5548C48.7107 28.8479 48.1655 30.3122 47.9577 31.8416L42.7752 46.0145C42.7752 46.0145 42.2625 47.7234 42.7752 50.6824C43.2879 53.6413 44.4269 58.8795 44.4269 58.8795L47.3247 66.2211C47.3247 66.2211 48.3924 69.3916 48.2988 70.7686C48.1717 70.851 47.7259 71.7334 47.3403 72.5355L47.0572 72.9811L47.0371 73.1616C46.8477 73.5649 46.7162 73.8545 46.7162 73.8545C46.7162 73.8545 45.1023 78.6159 46.4509 81.537C47.7995 84.458 47.853 85.8127 47.853 85.8127L48.8583 90.1396L49.2773 93.9274L52.8928 102.864L56.223 107.617C56.223 107.617 55.9109 111.117 55.2266 111.601C54.5423 112.084 54.8566 114.588 54.8566 114.588L54.4286 121.161C54.4286 121.161 53.0912 123.127 53.0065 126.313C52.9218 129.499 52.4359 130.412 52.4359 130.412C52.4359 130.412 52.213 133.086 52.8349 134.312C53.4568 135.537 51.8385 136.816 51.8385 136.816L53.2272 141.582L52.6855 147.615C52.6855 147.615 52.9374 147.685 53.3542 147.789L53.2695 148.222L51.0048 159.652C51.0048 159.652 49.7811 162.784 49.7254 163.522L45.7666 170.667C45.7666 170.667 42.4632 173.94 44.0302 174.252C45.5972 174.564 50.1533 171.748 50.1533 171.748C50.1533 171.748 53.9115 167.706 55.3916 167.339C56.8716 166.971 58.5122 165.913 58.0397 164.377C57.5671 162.842 56.4793 160.507 57.527 158.03C58.1957 156.47 59.6178 152.237 60.5941 149.282C60.6476 149.119 60.6989 148.963 60.7502 148.812C61.0084 148.789 61.2637 148.74 61.5125 148.667C63.9043 147.927 65.157 148.444 65.157 148.444L69.4278 131.17L70.3662 122.503L76.3467 127.489C77.53 128.476 78.9991 129.056 80.5373 129.145C82.8934 129.283 86.5691 129.624 89.2306 130.446L90.3451 125.807C90.3451 125.807 93.5326 125.923 94.2169 124.84C94.4955 124.394 94.7697 124.016 94.9948 123.726L95.512 123.646L109.62 121.464C112.239 121.464 115.827 119.697 115.827 119.697L118.021 119.272C118.021 119.272 121.293 118.617 121.587 118.075C121.881 117.534 118.513 115.736 116.233 116.302Z" fill="url(#paint0_linear_363_1200)"/>
<path d="M52.2174 46.7253C52.6632 45.4687 54.4063 45.257 55.6747 45.6826C56.1963 45.8564 56.7112 46.1037 57.2617 46.1282C58.3183 46.1594 59.2211 45.3484 60.2642 45.1768C61.7644 44.9273 63.1397 46.0235 64.1405 47.1665C65.1414 48.3095 66.091 49.6397 67.5309 50.1276C70.4799 51.1214 73.4089 48.0555 76.5117 48.2939C78.2147 48.4254 79.6858 49.5461 80.8338 50.8094C81.9817 52.0728 82.9269 53.5255 84.1974 54.6662C85.3119 55.6689 86.6493 56.3975 87.9979 57.0726C88.7848 57.467 89.6251 57.8569 90.5034 57.7989C91.4975 57.7343 92.5897 57.1305 93.4011 57.6965C93.6564 57.8966 93.856 58.159 93.9806 58.4585C94.9793 60.535 94.1746 63.3001 92.2197 64.5211C91.8787 64.7328 91.4641 64.9667 91.444 65.3745C91.4504 65.5649 91.5073 65.7502 91.609 65.9114C91.9656 66.6021 92.3668 67.2906 92.5006 68.0548C92.6343 68.8191 92.4538 69.6992 91.8319 70.1626C91.4258 70.4326 90.9436 70.5646 90.4565 70.5392C88.2008 70.528 86.266 68.7567 84.0146 68.6208C83.7265 68.5879 83.4349 68.6325 83.1698 68.75C82.6928 68.9973 82.5011 69.57 82.3072 70.069C81.264 72.6737 78.6739 74.4851 75.9099 74.982C73.1458 75.4788 70.2593 74.7792 67.785 73.4513C67.6041 73.3648 67.4379 73.2505 67.2924 73.1126C67.0858 72.8619 66.9401 72.5667 66.8667 72.2503C66.1088 69.8551 65.0834 67.3485 62.9837 65.9649C61.6217 65.0737 59.7739 64.5723 59.1564 63.0684C58.7686 62.117 59.0115 61.0364 58.9135 60.0114C58.8169 59.1327 58.4743 58.299 57.9251 57.6061C57.3758 56.9133 56.6422 56.3893 55.8084 56.0945C55.4428 55.9719 55.0416 55.885 54.7741 55.6065C54.557 55.3331 54.4183 55.0057 54.3729 54.6596C54.0408 53.1511 53.8201 51.5581 53.3565 50.0853C53.0021 48.9311 51.7426 48.0466 52.2174 46.7253Z" fill="#663D5B"/>
<g opacity="0.1">
<path d="M92.0927 69.4697C91.6853 69.736 91.2034 69.8648 90.7174 69.8373C88.4638 69.8373 86.529 68.0548 84.2777 67.9212C83.9898 67.8874 83.6981 67.9313 83.4329 68.0482C82.9537 68.2955 82.7642 68.8681 82.5703 69.3672C81.5271 71.9741 78.9347 73.7855 76.1707 74.2824C73.4067 74.7792 70.5201 74.0796 68.0481 72.7517C67.8674 72.6649 67.7012 72.5507 67.5555 72.413C67.3493 72.162 67.2037 71.867 67.1297 71.5507C66.3719 69.1533 65.3465 66.6489 63.2468 65.2631C61.8826 64.3607 60.0347 63.8727 59.4195 62.3665C59.0294 61.4129 59.2724 60.3323 59.1765 59.3096C59.0803 58.4304 58.7376 57.5963 58.1879 56.9033C57.6381 56.2103 56.9037 55.6866 56.0693 55.3926C55.7037 55.2701 55.3025 55.1809 55.035 54.9047C54.8176 54.6308 54.6795 54.3024 54.636 53.9555C54.3016 52.4493 54.0832 50.854 53.6196 49.3834C53.3075 48.3986 52.3245 47.601 52.3735 46.5493C52.3447 46.6048 52.3194 46.6621 52.2977 46.7209C51.8207 48.0421 53.0824 48.9267 53.4412 50.063C53.9049 51.5336 54.1233 53.1289 54.4577 54.6351C54.5012 54.982 54.6392 55.3103 54.8567 55.5842C55.1242 55.8605 55.5254 55.9496 55.8909 56.0722C56.7257 56.3664 57.4603 56.8904 58.0101 57.5838C58.5599 58.2772 58.9024 59.1118 58.9982 59.9914C59.0941 61.0141 58.8511 62.0947 59.2412 63.0483C59.8564 64.5612 61.7043 65.0536 63.0684 65.9448C65.1637 67.333 66.1891 69.8351 66.9514 72.2325C67.0254 72.5488 67.171 72.8438 67.3772 73.0948C67.5229 73.2325 67.689 73.3467 67.8698 73.4335C70.3418 74.7703 73.2195 75.4588 75.9924 74.9642C78.7653 74.4695 81.3421 72.6559 82.392 70.049C82.5926 69.5499 82.7776 68.9773 83.2546 68.73C83.5198 68.6131 83.8115 68.5692 84.0994 68.603C86.3507 68.7389 88.2855 70.5102 90.5391 70.5191C91.0258 70.5446 91.5078 70.4134 91.9144 70.1448C92.1159 69.9816 92.2816 69.7787 92.4012 69.5487C92.5209 69.3187 92.5919 69.0665 92.6099 68.8079C92.4972 69.0693 92.3191 69.2972 92.0927 69.4697Z" fill="black"/>
<path d="M92.4805 63.8215C92.1395 64.0443 91.7227 64.2671 91.7026 64.6748C91.7006 64.7567 91.7135 64.8382 91.7405 64.9155C91.9099 64.7553 92.0986 64.6168 92.3022 64.5033C92.8536 64.1423 93.3247 63.6718 93.6864 63.1209C94.048 62.5701 94.2923 61.9508 94.4042 61.3015C94.0746 62.339 93.3946 63.2298 92.4805 63.8215Z" fill="black"/>
</g>
<path d="M58.0508 156.733C57.0188 159.157 58.0798 161.439 58.5524 162.945C59.0249 164.451 57.4111 165.478 55.9622 165.841C54.5134 166.205 50.8355 170.157 50.8355 170.157C50.8355 170.157 46.3774 172.913 44.8438 172.608C43.3102 172.303 46.5423 169.099 46.5423 169.099L50.4164 162.107C50.4721 161.385 51.6691 158.319 51.6691 158.319L53.8848 147.134L54.179 145.648L62.0341 145.174C62.0341 145.174 61.6218 146.448 61.0534 148.17C60.0971 151.067 58.6973 155.22 58.0508 156.733Z" fill="#CC818C"/>
<path d="M120.743 117.637C120.464 118.167 117.261 118.806 117.261 118.806L115.114 119.223C115.114 119.223 111.603 120.952 109.04 120.952L95.2334 123.089L93.3811 123.376V115.547C93.3811 115.547 94.3128 115.645 95.6324 115.769C98.5814 116.028 103.461 116.371 104.136 115.89C105.113 115.195 105.752 112.521 107.395 112.828C109.038 113.136 110.99 115.391 110.99 115.391C110.99 115.391 113.275 116.476 115.504 115.919C117.733 115.362 121.021 117.106 120.743 117.637Z" fill="#CC818C"/>
<path opacity="0.1" d="M95.7216 122.483C95.7216 122.483 95.5232 122.705 95.2334 123.086L93.3811 123.374V115.547C93.3811 115.547 94.3128 115.645 95.6324 115.769C97.8481 117.518 95.7216 122.483 95.7216 122.483Z" fill="black"/>
<path d="M69.0579 120.673L76.4739 126.859C77.6321 127.824 79.0699 128.392 80.5753 128.478C82.8801 128.614 86.4778 128.946 89.0902 129.753L90.178 125.212C90.178 125.212 93.2986 125.323 93.9673 124.265C94.3601 123.64 94.7974 123.045 95.2758 122.483C95.2758 122.483 97.5338 117.22 94.9704 115.605C94.9704 115.605 92.1284 114.74 91.5421 113.96C90.9559 113.18 87.0016 111.761 85.7756 111.844C84.5497 111.926 80.9275 112.122 80.9275 112.122C80.9275 112.122 79.5054 110.507 78.8656 110.674C78.2259 110.841 75.9946 110.674 75.9946 110.674C75.9946 110.674 75.3816 109.099 74.7687 106.841C74.1557 104.584 70.5067 103.778 70.5067 103.778L69.0579 120.673Z" fill="#565987"/>
<path opacity="0.1" d="M69.0579 120.673L76.4739 126.859C77.6321 127.824 79.0699 128.392 80.5753 128.478C82.8801 128.614 86.4778 128.946 89.0902 129.753L90.178 125.212C90.178 125.212 93.2986 125.323 93.9673 124.265C94.3601 123.64 94.7974 123.045 95.2758 122.483C95.2758 122.483 97.5338 117.22 94.9704 115.605C94.9704 115.605 92.1284 114.74 91.5421 113.96C90.9559 113.18 87.0016 111.761 85.7756 111.844C84.5497 111.926 80.9275 112.122 80.9275 112.122C80.9275 112.122 79.5054 110.507 78.8656 110.674C78.2259 110.841 75.9946 110.674 75.9946 110.674C75.9946 110.674 75.3816 109.099 74.7687 106.841C74.1557 104.584 70.5067 103.778 70.5067 103.778L69.0579 120.673Z" fill="black"/>
<path d="M65.741 65.2207L64.9207 65.3745H64.8694L64.7491 65.3967L63.3448 65.6574L62.9123 66.1699L62.8945 66.1877L61.5058 67.832L60.3356 68.9795L60.3244 68.9929L59.3347 69.9554L57.6607 71.6198L57.3799 72.3127L56.7691 73.8479L56.6109 74.2378L54.9391 76.0203L53.8714 78.3041L51.3748 79.7523L48.6889 78.3598L47.4629 76.5773L47.7415 74.0239L47.7972 73.5137L48.6153 72.2013L49.3576 71.0071L50.8064 68.9461L53.5927 67.0522L54.092 66.9208L54.6515 66.7737C54.6943 66.7127 54.7337 66.6495 54.7697 66.5843C54.8169 66.506 54.8593 66.4249 54.8967 66.3415C55.5231 64.9912 55.3024 62.9837 54.8789 61.2035C54.5543 59.8717 54.1242 58.5679 53.5927 57.3043L60.9486 56.246C60.9486 56.246 60.8772 57.672 60.8772 59.8956C60.8772 60.4526 60.8772 61.0564 60.8928 61.7026C60.9285 63.7078 62.792 64.5768 64.1985 64.9467C64.5607 65.0431 64.9284 65.1175 65.2996 65.1695C65.5716 65.2118 65.741 65.2207 65.741 65.2207Z" fill="#CC818C"/>
<path d="M54.1499 66.2723C54.1499 66.2723 54.4842 64.9355 51.8094 61.5376C49.1345 58.1398 48.633 52.5139 48.633 52.5139C48.633 52.5139 47.9643 49.6173 48.633 48.7818C49.3017 47.9463 50.4162 38.7554 50.4162 38.7554L52.2552 33.5751C52.2552 33.5751 61.2271 24.4399 57.4934 23.3259C54.9568 22.5683 51.9208 26.4697 50.2513 29.0454C49.4266 30.311 48.8937 31.7441 48.691 33.2409L43.6177 47.1107C43.6177 47.1107 43.1161 48.7818 43.6177 51.6783C44.1192 54.5748 45.2337 59.6995 45.2337 59.6995L48.0758 66.8917C48.0758 66.8917 49.5714 71.3702 48.7957 71.9161L50.5277 69.356L54.1499 66.2723Z" fill="#CC818C"/>
<path d="M98.5635 79.0906C98.5635 79.0906 97.5605 81.7643 95.4986 81.5415C93.4367 81.3186 83.5175 78.4778 83.5175 78.4778C83.5175 78.4778 79.3938 76.4168 77.7778 76.4725C76.1617 76.5282 68.7502 73.0747 68.7502 73.0747C68.7502 73.0747 68.2286 73.761 67.6468 74.4829C67.0137 75.2738 66.3094 76.1094 66.1311 76.1383C65.7967 76.194 60.6142 76.9182 60.6142 76.9182L57.1035 75.3028L56.7691 73.8479L56.6108 73.1794L57.3888 72.3127L58.4119 71.1741L60.3311 68.9862L60.3422 68.9728L62.9034 66.1899L62.9212 66.1721L64.5618 65.5036L64.8783 65.3744H64.9296C65.1258 65.341 65.8792 65.2719 66.8889 65.8423C67.5921 66.2404 68.373 66.482 69.1781 66.5509C70.7808 66.6651 72.2984 67.3149 73.4869 68.3957L81.7343 72.7338L94.7184 77.4128C94.7184 77.4128 95.833 71.007 97.7276 72.3996C99.6223 73.7922 98.5635 79.0906 98.5635 79.0906Z" fill="#CC818C"/>
<path opacity="0.1" d="M67.6468 74.4828C67.0138 75.2738 66.3094 76.1093 66.1311 76.1383C65.7967 76.194 60.6142 76.9181 60.6142 76.9181L57.1035 75.3028L56.7691 73.8478L56.6109 74.2377L54.9391 76.0202L53.8714 78.304L51.3748 79.7522L48.6889 78.3597L47.4629 76.5772L47.7415 74.0238C47.8819 73.7208 48.2653 72.8964 48.6153 72.2012C48.7806 71.8182 48.9885 71.455 49.235 71.1184C49.4579 70.9713 49.6919 69.3916 49.6919 69.3916C50.7039 66.4751 54.0943 66.0272 54.0943 66.0272L54.6359 66.5352L54.8722 66.7803C54.7764 66.7647 54.89 66.5575 54.7674 66.5909C54.5713 66.6466 54.4844 66.943 54.2325 67.1056C52.8616 67.9968 50.7195 70.0756 49.8725 71.0627C49.6674 71.3011 49.4556 71.5351 49.2394 71.7623C48.0157 73.0568 48.2408 74.7725 48.2408 74.7725C47.9354 76.1093 50.637 77.112 50.637 77.112C51.3904 75.8598 56.4883 72.4062 56.4883 72.4062L59.921 68.5628C60.9731 66.7313 63.0416 65.5214 64.1963 64.9555C64.7067 64.7059 65.0411 64.5812 65.0411 64.5812L66.325 65.1293C65.986 65.0385 65.6273 65.0541 65.2974 65.1738C65.1079 65.2324 64.9237 65.307 64.7468 65.3967C64.68 65.4301 64.6131 65.4657 64.5507 65.5036C64.1996 65.7074 63.8695 65.9455 63.5654 66.2144L60.6811 69.3627C58.4766 71.7668 60.1372 75.6548 63.3983 75.7105H63.4272C65.42 76.1695 66.8488 75.2471 67.6468 74.4828Z" fill="black"/>
<path opacity="0.1" d="M62.0341 145.18C62.0341 145.18 61.6218 146.455 61.0533 148.177C58.8733 148.34 55.2735 147.497 53.8848 147.141L54.179 145.655L62.0341 145.18Z" fill="black"/>
<path d="M54.8744 66.7804L54.1611 66.0496C54.1611 66.0496 51.5865 66.4016 49.9883 69.1511C49.9883 69.1511 49.2416 71.2121 49.012 71.3591C48.7824 71.5062 47.4628 74.3871 47.4628 74.3871C47.4628 74.3871 45.8847 79.046 47.202 81.9069C48.5194 84.7678 48.5773 86.0846 48.5773 86.0846L49.5626 90.318L49.9705 94.0299L53.5102 102.775L56.769 107.416C56.769 107.416 56.4637 110.841 55.795 111.315C55.1262 111.79 55.4316 114.239 55.4316 114.239L55.0148 120.673C55.0148 120.673 53.7041 122.594 53.6216 125.713C53.5392 128.833 53.0644 129.724 53.0644 129.724C53.0644 129.724 52.8415 132.342 53.4545 133.541C54.0674 134.739 52.4781 135.992 52.4781 135.992L53.8445 140.642L53.314 146.546C53.314 146.546 59.6111 148.302 61.9515 147.578C64.292 146.854 65.518 147.355 65.518 147.355L69.6974 130.441L71.1463 117.158C71.1463 117.158 71.231 107.744 72.4837 104.874C73.5581 102.423 72.1494 93.6913 67.3102 92.0425C66.3004 91.6994 65.7877 90.5541 64.9251 89.9258C64.1538 89.3666 62.8944 88.0453 63.5119 85.6568C64.3767 82.3146 66.55 77.0519 66.55 77.0519L68.1594 73.8479C68.1594 73.8479 66.4096 76.6776 63.2065 75.9534H63.1775C59.9164 75.8955 58.2558 72.0075 60.4603 69.6056L63.3447 66.4551C63.3447 66.4551 64.934 64.9912 66.1042 65.3611L64.8225 64.813C64.8225 64.813 61.2137 66.1498 59.6958 68.7946L56.263 72.638C56.263 72.638 51.1697 76.076 50.4163 77.3371C50.4163 77.3371 47.7147 76.3344 48.0201 74.9976C48.0201 74.9976 47.7972 73.2797 49.0187 71.9852C49.2416 71.7624 49.4467 71.5262 49.6517 71.2878C50.7506 70.0044 53.7888 66.5999 54.8744 66.7804Z" fill="#565987"/>
<path opacity="0.1" d="M55.2935 89.7297C55.2935 89.7297 54.4844 95.6074 55.0974 96.8039L55.2935 89.7297Z" fill="black"/>
<path opacity="0.1" d="M55.8218 92.0134L56.6866 95.3845C56.6866 95.3845 56.992 93.3235 55.8218 92.0134Z" fill="black"/>
<path opacity="0.1" d="M50.6951 91.2269C50.6951 91.2269 52.4226 99.8051 54.3173 102.396L50.6951 91.2269Z" fill="black"/>
<path opacity="0.1" d="M62.8721 101.568C62.8721 101.568 59.9186 104.353 58.7751 104.15C58.7751 104.15 63.3179 104.346 64.7378 101.951C64.7378 101.957 63.8195 101.289 62.8721 101.568Z" fill="black"/>
<path opacity="0.1" d="M66.9668 101.345C66.9668 101.345 63.1775 104.101 62.4263 104.353C62.4263 104.353 66.521 103.183 66.9668 101.345Z" fill="black"/>
<path opacity="0.1" d="M54.1499 80.873C54.1499 80.873 52.2552 83.2972 51.3079 83.0187C51.3079 83.0187 53.6216 83.1011 54.1499 80.873Z" fill="black"/>
<path opacity="0.1" d="M56.2966 83.9923C56.2966 83.9923 60.4203 78.3954 62.3708 78.6182C62.3708 78.6182 57.6898 82.6844 56.2966 83.9923Z" fill="black"/>
<path opacity="0.1" d="M62.0072 81.9559C62.0072 81.9559 59.3881 83.2683 59.6667 83.6515C59.9454 84.0347 62.0072 81.9559 62.0072 81.9559Z" fill="black"/>
<path opacity="0.1" d="M63.9021 124.934C63.9021 124.934 55.1531 130.031 54.3462 130.281C54.3462 130.281 55.8508 131.424 57.2707 130.867C58.6906 130.31 63.9021 124.934 63.9021 124.934Z" fill="black"/>
<path opacity="0.1" d="M56.5752 135.546C56.5752 135.546 53.0645 135.183 53.2027 136.326C53.3409 137.469 56.5752 135.546 56.5752 135.546Z" fill="black"/>
<path opacity="0.1" d="M60.9486 56.246C60.9486 56.246 60.8773 57.672 60.8773 59.8956C60.0519 60.5717 59.0779 61.0426 58.0352 61.2695C56.9925 61.4965 55.9108 61.4731 54.8789 61.2012C54.5543 59.8695 54.1243 58.5657 53.5928 57.3021L60.9486 56.246Z" fill="black"/>
<path d="M56.602 60.9896C60.3259 60.9896 63.3448 57.972 63.3448 54.2496C63.3448 50.5272 60.3259 47.5096 56.602 47.5096C52.878 47.5096 49.8591 50.5272 49.8591 54.2496C49.8591 57.972 52.878 60.9896 56.602 60.9896Z" fill="#CC818C"/>
<path opacity="0.1" d="M58.3694 58.3626C58.5589 61.1188 59.1384 64.2715 61.5324 65.6574C63.2622 66.6578 65.4422 66.3949 67.3569 65.8245C69.2716 65.2541 71.1463 64.403 73.139 64.3072C74.6704 64.2336 76.1839 64.6102 77.7108 64.706C79.2377 64.8018 80.9094 64.5634 81.9994 63.4894C83.5598 61.961 83.2744 59.1825 81.7966 57.5761C80.3187 55.9696 78.0072 55.3859 75.8183 55.446C73.1435 55.5196 70.1566 56.3373 68.0412 54.7152C66.6213 53.6235 66.0841 51.7296 64.8894 50.3949C62.8944 48.1669 54.0718 44.9495 52.2039 48.5813C51.3279 50.2813 55.309 51.4956 56.2318 52.7255C57.6896 54.6662 58.1956 55.8181 58.3694 58.3626Z" fill="black"/>
<path d="M58.5769 58.1242C58.7686 60.8826 59.346 64.0354 61.7399 65.419C63.4697 66.4194 65.6497 66.1565 67.5644 65.5883C69.4792 65.0202 71.3538 64.1668 73.3488 64.071C74.8779 63.9975 76.3914 64.3718 77.9205 64.4698C79.4496 64.5679 81.117 64.3272 82.2069 63.2533C83.7673 61.7226 83.482 58.9464 82.0041 57.34C80.5263 55.7335 78.2147 55.1497 76.0281 55.2099C73.3532 55.2812 70.3641 56.1011 68.2487 54.4769C66.8288 53.3851 66.2916 51.4934 65.0969 50.1566C63.1019 47.9285 54.2794 44.7134 52.4114 48.3451C51.5354 50.043 55.5165 51.2573 56.4415 52.4894C57.8971 54.4278 58.4031 55.5775 58.5769 58.1242Z" fill="#663D5B"/>
<path opacity="0.1" d="M50.4675 77.1098C50.571 76.2305 50.8609 75.3833 51.3179 74.6248C51.775 73.8664 52.3886 73.2141 53.1178 72.7115" fill="black"/>
<path opacity="0.1" d="M75.7494 112.011C75.7287 112.229 75.6754 112.443 75.5912 112.646C75.2991 113.52 74.9475 114.374 74.5391 115.201C75.1342 115.15 75.6246 114.682 75.8765 114.143C76.0966 113.588 76.218 112.999 76.2354 112.403C76.2572 112.216 76.2625 112.029 76.251 111.841C76.2354 111.668 76.1239 111.004 75.8364 111.122C75.6045 111.22 75.7539 111.835 75.7494 112.011Z" fill="black"/>
<path opacity="0.1" d="M82.6082 62.5559C81.516 63.6298 79.8486 63.8705 78.3195 63.7724C76.7904 63.6744 75.2702 63.3001 73.7478 63.3758C71.7416 63.4716 69.8826 64.3228 67.9656 64.8932C66.0487 65.4636 63.8709 65.7265 62.1389 64.7261C59.7472 63.3402 59.1676 60.1874 58.9782 57.4313C58.8043 54.8868 58.2961 53.7349 56.8405 51.7942C55.9601 50.62 52.3044 49.4614 52.7235 47.8839C52.6024 48.0262 52.4977 48.1816 52.4114 48.3474C51.5354 50.0452 55.5165 51.2595 56.4415 52.4916C57.8971 54.43 58.4031 55.5842 58.5769 58.1264C58.7686 60.8848 59.346 64.0376 61.7399 65.4212C63.4697 66.4216 65.6497 66.1587 67.5644 65.5906C69.4792 65.0224 71.3538 64.169 73.3488 64.0732C74.8779 63.9997 76.3914 64.374 77.9205 64.4721C79.4496 64.5701 81.1169 64.3295 82.2069 63.2555C82.5165 62.9485 82.7627 62.5836 82.9314 62.1816C82.8334 62.3145 82.7254 62.4396 82.6082 62.5559Z" fill="black"/>
<path d="M49.9838 82.8159L49.1658 84.5984L51.7671 84.0792L49.9838 82.8159Z" fill="#CC818C"/>
<path opacity="0.1" d="M49.9838 82.8159L49.3107 84.5984H49.1658L49.9838 82.8159Z" fill="black"/>
<path opacity="0.1" d="M114.354 163.72C119.401 163.72 123.493 163.159 123.493 162.466C123.493 161.773 119.401 161.211 114.354 161.211C109.307 161.211 105.215 161.773 105.215 162.466C105.215 163.159 109.307 163.72 114.354 163.72Z" fill="#5C88C6"/>
<path opacity="0.1" d="M149.361 167.267C154.408 167.267 158.5 166.706 158.5 166.013C158.5 165.32 154.408 164.758 149.361 164.758C144.314 164.758 140.222 165.32 140.222 166.013C140.222 166.706 144.314 167.267 149.361 167.267Z" fill="#5C88C6"/>
<path opacity="0.1" d="M190.596 162.466C195.643 162.466 199.735 161.904 199.735 161.211C199.735 160.519 195.643 159.957 190.596 159.957C185.548 159.957 181.457 160.519 181.457 161.211C181.457 161.904 185.548 162.466 190.596 162.466Z" fill="#5C88C6"/>
<path opacity="0.1" d="M135.349 177.006C138.937 177.006 141.845 176.607 141.845 176.115C141.845 175.623 138.937 175.224 135.349 175.224C131.762 175.224 128.854 175.623 128.854 176.115C128.854 176.607 131.762 177.006 135.349 177.006Z" fill="#5C88C6"/>
<path opacity="0.1" d="M171.683 176.115C175.27 176.115 178.178 175.716 178.178 175.224C178.178 174.732 175.27 174.333 171.683 174.333C168.095 174.333 165.187 174.732 165.187 175.224C165.187 175.716 168.095 176.115 171.683 176.115Z" fill="#5C88C6"/>
<path d="M149.559 165.732C149.559 165.732 136.742 123.733 151.565 106.911C162.653 94.3263 175.24 95.8325 180.877 97.3877C182.336 97.776 183.693 98.4767 184.854 99.4412C186.014 100.406 186.952 101.611 187.6 102.974C189.57 107.225 189.216 114.114 175.305 122.173C152.011 135.653 150.562 154.146 150.562 154.146L149.559 165.732Z" fill="#5C88C6"/>
<path d="M178.871 103.346C178.871 103.346 141.089 115.154 149.559 165.732" stroke="#565987" stroke-miterlimit="10"/>
<path d="M156.804 107.579C156.804 107.579 162.004 111.084 160.352 116.349" stroke="#565987" stroke-miterlimit="10"/>
<path d="M175.082 110.698C175.082 110.698 171.901 107.463 168.029 109.248" stroke="#565987" stroke-miterlimit="10"/>
<path d="M160.147 126.963C160.147 126.963 154.561 124.129 153.117 127.679" stroke="#565987" stroke-miterlimit="10"/>
<path d="M146.327 132.868C146.327 132.868 150.52 132.534 150.596 134.539" stroke="#565987" stroke-miterlimit="10"/>
<path d="M149.051 166.066C149.051 166.066 164.062 135.541 168.185 136.21C170.145 136.526 171.047 138.454 171.455 140.388C171.959 142.891 171.669 145.489 170.626 147.82C168.497 152.702 162.775 161.978 149.051 166.066Z" fill="#5C88C6"/>
<path d="M168.063 142.003C168.063 142.003 152.308 164.841 149.263 165.844" stroke="#565987" stroke-miterlimit="10"/>
<path d="M169.511 145.568H165.833" stroke="#565987" stroke-miterlimit="10"/>
<path d="M165.107 153.923L159.343 154.171" stroke="#565987" stroke-miterlimit="10"/>
<path d="M161.598 147.239L162.225 150.24" stroke="#565987" stroke-miterlimit="10"/>
<path d="M155.469 156.374L155.58 159.101" stroke="#565987" stroke-miterlimit="10"/>
<path d="M149.497 166.066C149.497 166.066 134.487 135.541 130.363 136.21C128.404 136.526 127.501 138.454 127.093 140.388C126.582 142.889 126.864 145.487 127.9 147.82C130.029 152.702 135.751 161.978 149.497 166.066Z" fill="#5C88C6"/>
<path d="M130.463 142.003C130.463 142.003 146.218 164.841 149.263 165.844" stroke="#565987" stroke-miterlimit="10"/>
<path d="M129.012 145.568H132.69" stroke="#565987" stroke-miterlimit="10"/>
<path d="M133.419 153.923L139.183 154.171" stroke="#565987" stroke-miterlimit="10"/>
<path d="M136.925 147.239L136.301 150.24" stroke="#565987" stroke-miterlimit="10"/>
<path d="M143.055 156.374L142.944 159.101" stroke="#565987" stroke-miterlimit="10"/>
<path d="M175.26 173.194C175.67 172.862 175.969 172.412 176.116 171.906C176.225 171.394 176.007 170.781 175.519 170.594C174.97 170.384 174.384 170.763 173.941 171.146C173.497 171.53 172.987 171.969 172.405 171.886C172.704 171.615 172.927 171.271 173.053 170.888C173.179 170.505 173.204 170.096 173.125 169.7C173.101 169.536 173.031 169.382 172.924 169.255C172.621 168.929 172.068 169.07 171.703 169.326C170.544 170.141 170.22 171.715 170.216 173.132C170.098 172.619 170.196 172.087 170.194 171.572C170.191 171.057 170.047 170.458 169.605 170.186C169.333 170.035 169.025 169.958 168.714 169.963C168.192 169.945 167.612 169.997 167.256 170.378C166.81 170.85 166.928 171.645 167.314 172.16C167.699 172.675 168.283 173.007 168.821 173.368C169.254 173.624 169.623 173.975 169.899 174.395C169.932 174.453 169.959 174.514 169.98 174.578H173.245C173.976 174.209 174.654 173.744 175.26 173.194Z" fill="#5C88C6"/>
<path d="M118.068 160.902C118.477 160.568 118.775 160.118 118.921 159.611C119.033 159.099 118.814 158.497 118.324 158.299C117.776 158.09 117.192 158.468 116.746 158.854C116.3 159.239 115.792 159.674 115.212 159.594C115.511 159.321 115.734 158.976 115.859 158.592C115.984 158.207 116.008 157.797 115.928 157.401C115.903 157.237 115.833 157.083 115.727 156.956C115.422 156.63 114.871 156.768 114.506 157.025C113.347 157.84 113.023 159.413 113.017 160.83C112.901 160.32 112.999 159.788 112.997 159.271C112.994 158.754 112.849 158.157 112.406 157.882C112.132 157.735 111.825 157.663 111.514 157.673C110.995 157.653 110.413 157.704 110.059 158.085C109.613 158.56 109.731 159.353 110.114 159.868C110.498 160.382 111.084 160.714 111.623 161.075C112.055 161.333 112.423 161.684 112.7 162.103C112.733 162.161 112.76 162.223 112.78 162.287H116.048C116.78 161.918 117.46 161.452 118.068 160.902Z" fill="#5C88C6"/>
<path d="M137.124 173.194C137.533 172.862 137.832 172.412 137.98 171.906C138.089 171.394 137.87 170.781 137.382 170.594C136.834 170.384 136.248 170.763 135.804 171.146C135.361 171.53 134.85 171.969 134.268 171.886C134.568 171.615 134.791 171.272 134.918 170.888C135.044 170.505 135.07 170.096 134.991 169.7C134.966 169.536 134.897 169.382 134.79 169.255C134.487 168.929 133.934 169.07 133.568 169.326C132.409 170.141 132.086 171.715 132.082 173.132C131.963 172.619 132.062 172.087 132.059 171.572C132.057 171.057 131.912 170.458 131.471 170.186C131.198 170.035 130.891 169.958 130.579 169.963C130.058 169.945 129.478 169.997 129.121 170.378C128.676 170.85 128.794 171.645 129.179 172.16C129.565 172.675 130.149 173.007 130.686 173.368C131.119 173.624 131.488 173.975 131.765 174.395C131.798 174.453 131.825 174.514 131.845 174.578H135.111C135.841 174.209 136.518 173.744 137.124 173.194Z" fill="#5C88C6"/>
<path d="M191.18 148.344C191.18 148.344 192.406 149.944 190.616 152.355C188.826 154.765 187.35 156.811 187.941 158.317C187.941 158.317 190.643 153.83 192.845 153.767C195.047 153.705 193.607 151.042 191.18 148.344Z" fill="#5C88C6"/>
<path opacity="0.1" d="M191.18 148.344C191.287 148.498 191.371 148.667 191.429 148.845C193.576 151.363 194.717 153.714 192.655 153.774C190.736 153.827 188.434 157.261 187.881 158.128C187.899 158.194 187.921 158.26 187.945 158.324C187.945 158.324 190.647 153.836 192.849 153.774C195.052 153.712 193.607 151.042 191.18 148.344Z" fill="black"/>
<path d="M193.465 150.383C193.465 150.946 193.402 151.403 193.324 151.403C193.246 151.403 193.186 150.94 193.186 150.383C193.186 149.826 193.264 150.086 193.342 150.086C193.42 150.086 193.465 149.826 193.465 150.383Z" fill="#FFD037"/>
<path d="M194.247 151.056C193.752 151.325 193.32 151.488 193.284 151.421C193.248 151.354 193.616 151.078 194.111 150.808C194.606 150.539 194.412 150.735 194.448 150.808C194.483 150.882 194.746 150.786 194.247 151.056Z" fill="#FFD037"/>
<path d="M184.716 148.344C184.716 148.344 183.49 149.944 185.28 152.355C187.07 154.765 188.545 156.811 187.955 158.317C187.955 158.317 185.255 153.83 183.051 153.767C180.846 153.705 182.304 151.042 184.716 148.344Z" fill="#5C88C6"/>
<path opacity="0.1" d="M184.716 148.344C184.608 148.498 184.523 148.667 184.464 148.845C182.32 151.363 181.178 153.714 183.238 153.774C185.159 153.827 187.473 157.261 188.015 158.128C187.997 158.194 187.975 158.26 187.948 158.324C187.948 158.324 185.249 153.836 183.044 153.774C180.84 153.712 182.304 151.042 184.716 148.344Z" fill="black"/>
<path d="M182.444 150.383C182.444 150.946 182.509 151.403 182.587 151.403C182.665 151.403 182.727 150.946 182.727 150.383C182.727 149.819 182.649 150.086 182.571 150.086C182.493 150.086 182.444 149.826 182.444 150.383Z" fill="#FFD037"/>
<path d="M181.664 151.056C182.159 151.325 182.589 151.488 182.627 151.421C182.665 151.354 182.295 151.078 181.8 150.808C181.305 150.539 181.499 150.735 181.461 150.808C181.423 150.882 181.169 150.786 181.664 151.056Z" fill="#FFD037"/>
<path d="M182.834 158.114C182.834 158.114 186.258 158.01 187.293 157.274C188.327 156.539 192.56 155.663 192.816 156.842C193.072 158.021 197.961 162.7 194.096 162.731C190.23 162.762 185.115 162.129 184.085 161.501C183.055 160.873 182.834 158.114 182.834 158.114Z" fill="#A8A8A8"/>
<path opacity="0.2" d="M194.162 162.321C190.297 162.352 185.179 161.719 184.15 161.091C183.367 160.614 183.053 158.901 182.95 158.11H182.834C182.834 158.11 183.057 160.87 184.083 161.497C185.108 162.123 190.228 162.758 194.093 162.726C195.208 162.726 195.593 162.321 195.573 161.733C195.415 162.091 194.992 162.314 194.162 162.321Z" fill="black"/>
</g>
<defs>
<linearGradient id="paint0_linear_363_1200" x1="82.0776" y1="174.27" x2="82.0776" y2="21.6058" gradientUnits="userSpaceOnUse">
<stop stop-color="#808080" stop-opacity="0.25"/>
<stop offset="0.54" stop-color="#808080" stop-opacity="0.12"/>
<stop offset="1" stop-color="#808080" stop-opacity="0.1"/>
</linearGradient>
<clipPath id="clip0_363_1200">
<rect width="229" height="178" fill="white"/>
</clipPath>
</defs>
</svg>
