<svg width="164" height="164" viewBox="0 0 164 164" fill="none" xmlns="http://www.w3.org/2000/svg">
<circle cx="82" cy="82" r="82" fill="#BBD8E0"/>
<path d="M27.3724 72.7632C26.7257 72.9657 26.037 72.9943 25.3757 72.8459C24.7144 72.6976 24.1039 72.3776 23.6057 71.9181C23.1075 71.4587 22.7391 70.8761 22.5377 70.229C22.3363 69.5819 22.309 68.8932 22.4586 68.2321C24.7023 58.8976 33.234 36.07 64.3153 26.4687C77.7785 22.3098 90.6899 22.2388 102.675 26.2561C112.535 29.5474 119.08 34.6978 122.211 37.1872C123.007 37.8166 123.52 38.7362 123.637 39.7437C123.755 40.7512 123.467 41.7642 122.838 42.5597C122.83 42.5695 122.822 42.5793 122.814 42.5891C122.168 43.387 121.234 43.8991 120.214 44.0149C119.193 44.1307 118.168 43.841 117.36 43.2082C111.687 38.7387 94.4729 25.1605 66.5734 33.7789C39.3313 42.1942 31.9313 61.8782 30.0119 69.9315C29.8661 70.5968 29.5442 71.2106 29.0799 71.7087C28.6155 72.2069 28.0258 72.5711 27.3724 72.7632Z" fill="#5C88C6"/>
<path d="M112.087 125.634C111.779 125.734 111.458 125.794 111.134 125.813C86.8529 127.121 71.4039 106.949 70.7696 106.108L70.652 105.913C70.2649 105.313 60.9171 91.0905 65.0323 79.7952C66.9225 74.6314 71.1029 71.0068 77.4927 69.033C83.4355 67.1972 88.2984 67.7401 92.4375 70.6958C95.8315 73.104 98.0066 76.6952 100.115 80.163C104.499 87.3635 107.187 91.027 115.521 88.9134C119.18 87.9846 120.889 85.1236 121.669 82.8949C123.771 76.8304 121.908 68.5628 116.98 62.3078C110.614 54.1928 92.7968 40.7144 70.8138 47.5051C61.4263 50.405 53.7436 56.1196 48.5987 63.9883C44.3365 70.5186 41.8587 78.6292 41.8044 86.1928C41.7189 100.276 53.2609 118.804 53.3703 118.972C53.6361 119.397 53.8155 119.87 53.8984 120.364C53.9812 120.859 53.9659 121.365 53.8532 121.853C53.7406 122.342 53.5328 122.803 53.2418 123.211C52.9508 123.62 52.5822 123.966 52.1572 124.232C52.1454 124.24 52.1335 124.247 52.1217 124.254C51.2508 124.797 50.2012 124.976 49.1995 124.752C48.1979 124.528 47.3247 123.919 46.7684 123.056C46.2474 122.209 33.923 102.454 34.0223 86.1772C34.1605 68.5348 44.8815 47.4793 68.5475 40.1686C79.4864 36.7895 90.9821 37.3575 101.8 41.7929C110.185 45.2517 117.945 50.9775 123.076 57.5156C129.629 65.861 131.937 76.7849 128.954 85.3109C126.966 90.9948 122.848 94.9168 117.376 96.319C103.115 99.9467 97.5286 90.8131 93.4541 84.1504C89.2701 77.3199 86.9558 74.1174 79.7246 76.3512C75.754 77.5778 73.3078 79.5432 72.279 82.367C70.879 86.2272 72.2058 91.1751 73.5654 94.6437C73.5795 94.68 73.5936 94.7162 73.6077 94.7523C75.3507 99.1611 78.0708 103.117 81.5633 106.323C87.158 111.49 97.5443 118.855 110.782 118.145C111.794 118.082 112.79 118.424 113.55 119.095C114.31 119.766 114.772 120.712 114.835 121.724C114.836 121.736 114.836 121.748 114.837 121.76C114.868 122.618 114.616 123.463 114.118 124.163C113.621 124.863 112.908 125.38 112.087 125.634Z" fill="#5C88C6"/>
<path d="M82.6424 132.887C82.1363 133.043 81.6036 133.096 81.0767 133.041C80.5497 132.985 80.0394 132.824 79.5766 132.566C67.6005 125.781 59.1931 116.654 53.139 103.863L53.1147 103.784C49.2991 95.2556 47.0022 82.2253 52.0688 71.2122C55.8092 63.086 62.8302 57.3742 72.9013 54.2631C84.8132 50.5834 95.9045 53.2926 105.008 62.0601C109.147 66.1066 112.514 70.8748 114.942 76.1301C115.329 77.0757 115.328 78.1356 114.94 79.0806C114.552 80.0256 113.807 80.7797 112.867 81.1799C111.927 81.58 110.867 81.5941 109.917 81.2189C108.966 80.8438 108.202 80.1096 107.789 79.1752C105.733 74.789 102.894 70.8144 99.4127 67.4466C92.3961 60.7711 84.2395 58.7972 75.1413 61.6077C67.279 64.0364 61.865 68.3301 59.0935 74.3711C55.0968 83.0661 57.1546 93.9235 60.1405 100.606C65.4787 111.919 72.8832 119.943 83.4238 125.905C83.8592 126.15 84.242 126.479 84.5503 126.873C84.8586 127.266 85.0864 127.717 85.2206 128.198C85.3549 128.68 85.393 129.183 85.3327 129.679C85.2725 130.176 85.1151 130.655 84.8695 131.09C84.8598 131.108 84.8499 131.125 84.8399 131.142C84.3489 131.976 83.5658 132.597 82.6424 132.887Z" fill="#5C88C6"/>
</svg>
