<?xml version="1.0" standalone="no"?>
<!DOCTYPE svg PUBLIC "-//W3C//DTD SVG 20010904//EN"
 "http://www.w3.org/TR/2001/REC-SVG-20010904/DTD/svg10.dtd">
<svg version="1.0" xmlns="http://www.w3.org/2000/svg"
 width="246.000000pt" height="135.000000pt" viewBox="0 0 246.000000 135.000000"
 preserveAspectRatio="xMidYMid meet">

<g transform="translate(0.000000,135.000000) scale(0.100000,-0.100000)"
fill="#000000" stroke="none">
<path d="M0 675 l0 -675 1230 0 1230 0 0 675 0 675 -1230 0 -1230 0 0 -675z
m1491 609 l24 -26 0 -239 0 -239 -28 -27 -27 -28 -207 -3 c-234 -4 -266 0
-299 33 -24 24 -24 24 -24 265 l0 241 25 24 24 25 244 0 244 0 24 -26z m-541
-908 c0 -246 10 -226 -112 -226 -61 0 -71 3 -103 31 -67 59 -72 174 -9 237 32
32 37 34 94 30 l60 -3 0 67 c0 70 0 70 58 77 9 1 12 -48 12 -213z m-650 134
l0 -30 -85 0 -85 0 0 -45 0 -45 75 0 75 0 0 -35 0 -35 -75 0 -75 0 0 -50 0
-50 96 0 95 0 -3 -32 -3 -33 -132 -3 -133 -3 0 196 0 195 125 0 125 0 0 -30z
m922 -72 c31 -12 63 -57 72 -104 11 -52 -9 -115 -48 -151 -31 -29 -42 -33 -92
-33 -52 0 -59 3 -94 38 -82 82 -51 230 54 261 33 10 64 7 108 -11z m341 2 c4
-4 5 -18 2 -32 -6 -23 -10 -25 -54 -20 -43 4 -50 1 -69 -23 -31 -40 -30 -98 4
-132 23 -23 31 -25 75 -20 l50 6 -3 -32 -3 -32 -67 -3 c-62 -3 -69 -1 -101 28
-86 75 -57 238 46 269 33 10 106 5 120 -9z m238 -3 c31 -19 39 -55 39 -166 0
-126 5 -121 -105 -121 -62 0 -78 4 -100 23 -36 31 -43 84 -15 119 23 30 89 53
126 44 19 -5 24 -2 24 13 0 31 -25 43 -79 39 -46 -3 -51 -1 -56 21 -3 13 -2
27 2 32 21 20 130 17 164 -4z m501 13 c55 -16 88 -60 88 -121 l0 -49 -94 0
c-90 0 -94 -1 -89 -21 10 -37 47 -52 108 -45 l55 6 0 -29 c0 -17 -6 -31 -16
-35 -28 -11 -128 -6 -154 7 -43 22 -70 74 -70 134 0 80 34 134 96 153 39 11
34 11 76 0z m-1726 -18 c37 -29 44 -57 44 -171 l0 -111 -35 0 -35 0 0 98 c0
116 -12 142 -65 142 l-34 0 -3 -117 -3 -118 -35 0 -35 0 -3 142 c-3 163 -12
150 108 152 57 0 80 -4 96 -17z m1524 -1 c0 -40 -8 -46 -60 -43 l-50 4 0 -121
0 -121 -35 0 -35 0 0 144 c0 166 -10 152 113 155 60 1 67 -1 67 -18z"/>
<path d="M1119 1222 c-62 -32 -102 -84 -121 -154 -34 -133 83 -278 224 -278
127 0 228 102 228 230 0 174 -178 282 -331 202z m186 -71 c34 -19 75 -92 75
-133 0 -23 -4 -28 -24 -28 -14 0 -31 9 -39 21 -9 13 -17 16 -22 10 -13 -22
-23 -10 -35 39 -7 28 -15 52 -20 55 -4 2 -17 -29 -29 -70 -12 -41 -24 -75 -26
-75 -3 0 -14 19 -26 42 l-21 41 -20 -31 c-27 -43 -48 -42 -48 3 0 116 129 185
235 126z m-45 -145 l13 -39 16 22 c16 20 19 21 30 7 8 -9 22 -16 32 -16 24 0
24 -7 -1 -47 -42 -70 -149 -89 -214 -39 -20 15 -43 40 -51 57 -14 26 -14 29 1
29 9 0 24 10 34 23 l19 22 22 -52 c12 -29 25 -51 29 -48 4 2 15 34 25 70 19
71 25 72 45 11z"/>
<path d="M776 368 c-9 -13 -16 -43 -16 -68 0 -59 29 -90 83 -90 l37 0 0 84 c0
91 -3 96 -60 96 -18 0 -35 -8 -44 -22z"/>
<path d="M1110 370 c-15 -15 -20 -33 -20 -70 0 -37 5 -55 20 -70 26 -26 64
-26 90 0 25 25 27 105 4 138 -19 28 -67 29 -94 2z"/>
<path d="M1684 266 c-13 -34 0 -51 44 -54 l42 -3 0 35 c0 35 -1 36 -40 36 -26
0 -43 -5 -46 -14z"/>
<path d="M2223 378 c-31 -40 -25 -48 37 -48 62 0 68 6 50 41 -12 22 -72 27
-87 7z"/>
</g>
</svg>
