<?xml version="1.0" standalone="no"?>
<!DOCTYPE svg PUBLIC "-//W3C//DTD SVG 20010904//EN"
 "http://www.w3.org/TR/2001/REC-SVG-20010904/DTD/svg10.dtd">
<svg version="1.0" xmlns="http://www.w3.org/2000/svg"
 width="256.000000pt" height="248.000000pt" viewBox="0 0 256.000000 248.000000"
 preserveAspectRatio="xMidYMid meet">

<g transform="translate(0.000000,248.000000) scale(0.100000,-0.100000)"
fill="#2764AD" stroke="none">
<path d="M0 1240 l0 -1240 1280 0 1280 0 0 1240 0 1240 -1280 0 -1280 0 0
-1240z m2122 1067 c122 -60 203 -165 228 -297 14 -71 14 -1449 0 -1520 -25
-132 -106 -237 -228 -297 l-76 -38 -785 0 -786 0 -60 24 c-84 34 -192 142
-226 226 l-24 60 -3 755 c-3 829 -3 831 55 928 44 74 70 100 139 141 100 62
77 60 920 58 l770 -2 76 -38z"/>
<path d="M1153 2120 c-204 -28 -378 -116 -519 -262 -166 -171 -247 -371 -248
-610 l0 -118 -26 -1 c-24 -1 -24 -2 4 -8 26 -5 30 -13 50 -91 45 -167 118
-292 244 -412 167 -160 365 -239 596 -239 170 0 309 37 448 118 206 121 366
345 413 580 6 30 9 32 58 36 l52 3 -50 2 -50 2 4 97 c13 375 -202 707 -551
846 -129 52 -298 74 -425 57z m241 -310 c226 -58 392 -236 432 -463 14 -80 11
-202 -6 -212 -4 -2 -37 -2 -73 2 l-66 6 -57 73 c-31 41 -60 74 -64 74 -5 0
-25 -22 -45 -50 -20 -27 -40 -50 -43 -50 -4 0 -41 115 -82 254 -41 140 -76
254 -77 253 -1 -1 -42 -141 -92 -312 -50 -170 -95 -319 -100 -330 -7 -16 -25
14 -96 162 l-88 183 -71 -123 c-38 -67 -75 -125 -80 -129 -6 -4 -30 -8 -52 -8
-38 0 -42 2 -48 31 -18 92 5 232 56 337 44 92 168 216 261 261 127 61 258 75
391 41z m-10 -586 l62 -188 58 84 59 83 51 -57 51 -57 73 1 c47 0 72 -4 72
-11 0 -7 -16 -46 -36 -87 -117 -242 -419 -375 -677 -297 -145 44 -290 165
-353 295 -55 112 -55 110 14 110 l60 0 53 84 c29 47 56 83 59 81 3 -2 48 -101
99 -219 52 -119 97 -216 101 -216 5 0 123 381 172 558 5 19 12 31 15 29 3 -3
33 -90 67 -193z"/>
</g>
</svg>
