<svg width="29" height="23" viewBox="0 0 29 23" fill="none" xmlns="http://www.w3.org/2000/svg">
<path d="M18.6667 21.4444H10.3333V12.4167V6.99999C10.3333 6.53975 10.7064 6.16666 11.1667 6.16666H17.8333C18.2936 6.16666 18.6667 6.53975 18.6667 6.99999V15.1944V21.4444Z" stroke="#F9F9F9" stroke-width="2.27977" stroke-linecap="round" stroke-linejoin="round"/>
<path d="M18.6667 2H10.3333" stroke="#F9F9F9" stroke-width="2.27977" stroke-linecap="round" stroke-linejoin="round"/>
<path d="M26.1667 21.4445H18.6667V16.0278C18.6667 15.5675 19.0397 15.1945 19.5 15.1945H26.1667C26.6269 15.1945 27 15.5675 27 16.0278V20.6111C27 21.0714 26.6269 21.4445 26.1667 21.4445Z" stroke="#F9F9F9" stroke-width="2.27977" stroke-linecap="round" stroke-linejoin="round"/>
<path d="M10.3333 21.4444V13.25C10.3333 12.7897 9.96024 12.4167 9.5 12.4167H2.83333C2.3731 12.4167 2 12.7897 2 13.25V20.6111C2 21.0714 2.3731 21.4444 2.83333 21.4444H10.3333Z" stroke="#F9F9F9" stroke-width="2.27977" stroke-linecap="round" stroke-linejoin="round"/>
</svg>
