<?xml version="1.0" standalone="no"?>
<!DOCTYPE svg PUBLIC "-//W3C//DTD SVG 20010904//EN"
 "http://www.w3.org/TR/2001/REC-SVG-20010904/DTD/svg10.dtd">
<svg version="1.0" xmlns="http://www.w3.org/2000/svg"
 width="87.000000pt" height="82.000000pt" viewBox="0 0 87.000000 82.000000"
 preserveAspectRatio="xMidYMid meet">

<g transform="translate(0.000000,82.000000) scale(0.100000,-0.100000)"
fill="#000000" stroke="none">
<path d="M13 793 c-4 -9 28 -157 71 -328 76 -304 77 -311 61 -343 -14 -28 -15
-38 -5 -63 25 -60 86 -64 205 -16 201 82 407 270 490 448 40 86 31 136 -30
159 -23 9 -37 8 -65 -5 -34 -15 -40 -14 -360 75 -178 49 -332 90 -342 90 -10
0 -22 -8 -25 -17z m367 -98 c173 -48 317 -88 318 -90 2 -2 -8 -27 -23 -57 -53
-106 -177 -233 -305 -313 -53 -34 -172 -77 -182 -67 -11 11 -157 605 -151 615
3 4 10 6 17 4 6 -2 153 -44 326 -92z m446 -90 c15 -22 15 -29 0 -70 -67 -199
-384 -469 -589 -502 -43 -7 -77 16 -77 52 0 31 25 49 99 74 106 35 198 95 302
200 73 73 103 112 129 166 19 39 40 78 48 88 22 26 68 22 88 -8z"/>
<path d="M250 575 c0 -8 5 -15 10 -15 6 0 10 7 10 15 0 8 -4 15 -10 15 -5 0
-10 -7 -10 -15z"/>
<path d="M500 534 c0 -8 5 -12 10 -9 6 3 10 10 10 16 0 5 -4 9 -10 9 -5 0 -10
-7 -10 -16z"/>
<path d="M250 340 c0 -5 5 -10 10 -10 6 0 10 5 10 10 0 6 -4 10 -10 10 -5 0
-10 -4 -10 -10z"/>
</g>
</svg>
