<svg width="32" height="20" viewBox="0 0 32 20" fill="none" xmlns="http://www.w3.org/2000/svg">
<path d="M31.7833 10.6596C32.0838 10.2482 32.0707 9.68645 31.7507 9.28803C26.9108 3.33786 21.6856 0.320312 16.2123 0.320312C6.93103 0.320312 0.484462 8.96799 0.216671 9.33375C-0.083777 9.74524 -0.0707141 10.3069 0.249328 10.7054C5.08262 16.6621 10.3078 19.6796 15.7812 19.6796C25.0624 19.6796 31.509 11.0319 31.7833 10.6596ZM15.7812 17.4393C11.2222 17.4393 6.78081 14.9312 2.56147 9.99343C4.21394 8.04052 9.46525 2.56061 16.2123 2.56061C20.7712 2.56061 25.2126 5.0687 29.432 10.0065C27.7795 11.9594 22.5282 17.4393 15.7812 17.4393Z" fill="#052E50"/>
<path d="M15.9967 4.31104C12.8616 4.31104 10.3078 6.86484 10.3078 9.99995C10.3078 13.1351 12.8616 15.6889 15.9967 15.6889C19.1318 15.6889 21.6856 13.1351 21.6856 9.99995C21.6856 6.86484 19.1318 4.31104 15.9967 4.31104ZM15.9967 13.4486C14.0961 13.4486 12.5481 11.9006 12.5481 9.99995C12.5481 8.09929 14.0961 6.55133 15.9967 6.55133C17.8974 6.55133 19.4453 8.09929 19.4453 9.99995C19.4453 11.9006 17.8974 13.4486 15.9967 13.4486Z" fill="#052E50"/>
</svg>
