<svg width="32" height="32" viewBox="0 0 32 32" fill="none" xmlns="http://www.w3.org/2000/svg">
<g clip-path="url(#clip0_163_6)">
<path d="M6.02599 31.9795C5.99949 31.9795 5.97299 31.979 5.94649 31.9775L1.90249 31.796C0.957487 31.7545 0.213487 31.0095 0.172987 30.0635L0.00148678 26.017C-0.0195132 25.5095 0.173987 25.014 0.532487 24.6565L12.5025 12.719C11.515 9.2665 12.476 5.4785 15.0295 2.925C16.9075 1.0515 19.401 0.0205002 22.053 0.0205002H22.0715C24.729 0.0250002 27.225 1.0645 29.099 2.9475C30.9745 4.828 32.005 7.3275 32 9.9845C31.9955 12.64 30.956 15.134 29.0745 17.007C26.513 19.559 22.721 20.5125 19.274 19.5125L17.88 20.9005C17.54 21.2395 17.0825 21.426 16.588 21.4285L14.646 21.413L14.6535 22.8225C14.656 23.3115 14.4665 23.771 14.12 24.116C13.7775 24.457 13.324 24.644 12.8415 24.644C12.836 24.644 12.83 24.644 12.824 24.644L11.4195 24.631L11.425 26.037C11.427 26.5255 11.2375 26.9845 10.891 27.329C10.5445 27.6735 10.101 27.8605 9.59599 27.8565L8.19399 27.8435L8.20949 29.7865C8.21299 30.2715 8.01799 30.745 7.67349 31.0875L7.30249 31.4545C6.96399 31.7905 6.50199 31.9795 6.02599 31.9795ZM22.053 1.833C19.8845 1.833 17.8455 2.6755 16.3105 4.2075C14.1105 6.407 13.356 9.7295 14.388 12.671C14.5035 13 14.42 13.366 14.1725 13.6125L1.81199 25.9405L1.98349 29.986L6.02749 30.1675L6.39749 29.8005L6.37499 26.936C6.37299 26.693 6.46899 26.4595 6.64099 26.2875C6.81249 26.116 7.04349 26.021 7.28949 26.0225L9.61349 26.0435L9.60449 23.72C9.60349 23.4775 9.69999 23.245 9.87149 23.074C10.043 22.9035 10.272 22.799 10.519 22.8105L12.842 22.8315L12.83 20.5045C12.829 20.262 12.9245 20.0295 13.0965 19.858C13.268 19.687 13.5095 19.579 13.7435 19.5935L16.603 19.616L18.3875 17.8385C18.6355 17.5915 19.002 17.5095 19.33 17.6265C22.2655 18.669 25.589 17.922 27.7965 15.722C29.335 14.1905 30.1845 12.1515 30.1885 9.9805C30.192 7.807 29.3495 5.7635 27.816 4.226C27.8155 4.2255 27.8155 4.2255 27.815 4.225C26.283 2.6855 24.2425 1.836 22.0685 1.832C22.063 1.833 22.0575 1.833 22.053 1.833ZM23.9855 11.6725C23.9785 11.6725 23.9715 11.6725 23.9645 11.672C22.991 11.6665 22.0795 11.283 21.398 10.5915C21.398 10.591 21.398 10.591 21.398 10.591C20.733 9.916 20.358 8.97 20.369 7.9955C20.38 7.0085 20.766 6.097 21.4545 5.43C22.8755 4.052 25.17 4.068 26.568 5.467C27.979 6.8895 27.9745 9.1955 26.5595 10.61C25.868 11.2965 24.955 11.6725 23.9855 11.6725ZM22.688 9.319C23.029 9.6655 23.486 9.8575 23.974 9.86C24.451 9.8725 24.9305 9.6735 25.28 9.326C25.9885 8.618 25.991 7.459 25.2835 6.746C24.5825 6.0445 23.4295 6.0385 22.715 6.7315C22.381 7.055 22.186 7.5235 22.1805 8.0165C22.175 8.511 22.36 8.986 22.688 9.319Z" fill="#153C5C"/>
</g>
<defs>
<clipPath id="clip0_163_6">
<rect width="32" height="32" fill="white"/>
</clipPath>
</defs>
</svg>
