<svg width="24" height="24" viewBox="0 0 24 24" fill="none" xmlns="http://www.w3.org/2000/svg">
<path d="M0 0H23.5835V23.5835H0V0Z" fill="#F9F9F9" fill-opacity="0.01"/>
<path d="M20.1443 1.9653H3.43924C2.62519 1.9653 1.96527 2.62522 1.96527 3.43927V20.1443C1.96527 20.9584 2.62519 21.6183 3.43924 21.6183H20.1443C20.9583 21.6183 21.6182 20.9584 21.6182 20.1443V3.43927C21.6182 2.62522 20.9583 1.9653 20.1443 1.9653Z" fill="#F9F9F9" fill-opacity="0.01" stroke="#F9F9F9" stroke-width="1.9653"/>
<path d="M8.35242 1.9653V21.6183V1.9653Z" fill="#F9F9F9" fill-opacity="0.01"/>
<path d="M8.35242 1.9653V21.6183" stroke="#F9F9F9" stroke-width="1.9653" stroke-linecap="round"/>
<path d="M15.231 1.9653V21.6183V1.9653Z" fill="#F9F9F9" fill-opacity="0.01"/>
<path d="M15.231 1.9653V21.6183" stroke="#F9F9F9" stroke-width="1.9653" stroke-linecap="round"/>
<path d="M1.96521 8.37108L21.6182 8.35251L1.96521 8.37108Z" fill="#F9F9F9" fill-opacity="0.01"/>
<path d="M1.96521 8.37108L21.6182 8.35251" stroke="#F9F9F9" stroke-width="1.9653" stroke-linecap="round"/>
<path d="M1.96521 14.9946L21.6182 14.976L1.96521 14.9946Z" fill="#F9F9F9" fill-opacity="0.01"/>
<path d="M1.96521 14.9946L21.6182 14.976" stroke="#F9F9F9" stroke-width="1.9653" stroke-linecap="round"/>
</svg>
