<svg width="37" height="37" viewBox="0 0 37 37" fill="none" xmlns="http://www.w3.org/2000/svg">
<path d="M22.4827 10.3448L26.6551 14.5173C27.4233 15.2853 27.4233 16.5307 26.6551 17.2988L11.6344 32.3196C11.4508 32.5031 11.2326 32.6487 10.9925 32.7476L6.08189 34.7696C3.65688 35.768 1.23189 33.343 2.23041 30.918L4.25244 26.0075C4.35132 25.7673 4.49675 25.5492 4.68038 25.3657L19.7011 10.3448C20.4692 9.5767 21.7146 9.5767 22.4827 10.3448Z" stroke="#395B77" stroke-width="3.52225" stroke-linecap="round" stroke-linejoin="round"/>
<path d="M22.4827 2L26.6552 6.17243M26.6552 6.17243L29.4368 3.39081C30.2049 2.6227 31.4504 2.6227 32.2184 3.39081L33.6092 4.78163C34.3773 5.54974 34.3773 6.79513 33.6092 7.56324L30.8276 10.3449M26.6552 6.17243L30.8276 10.3449M35 14.5173L30.8276 10.3449" stroke="#395B77" stroke-width="3.52225" stroke-linecap="round" stroke-linejoin="round"/>
</svg>
