<svg width="30" height="32" viewBox="0 0 30 32" fill="none" xmlns="http://www.w3.org/2000/svg">
<path d="M0.826103 5.21737C0.549076 5.44243 0.361578 5.78604 0.362092 6.25231C0.376088 14.3386 0.721446 22.421 0.735442 30.5067C0.736574 31.2976 1.37244 31.8691 2.13478 31.9061C6.73908 32.1311 11.34 31.9056 15.9414 31.7124C18.2419 31.6161 20.5423 31.5445 22.8445 31.5327C24.2891 31.5254 26.4412 31.9979 27.7414 31.1068C29.5381 29.8749 29.5219 27.7121 29.6037 25.6949C29.7279 22.6159 29.4884 19.5138 29.2936 16.4421C29.1447 14.0975 29.1754 11.8865 29.2819 9.54073C29.3938 7.07125 29.0904 5.00414 26.378 4.49814C25.0246 4.24571 23.6371 4.26866 22.2445 4.36097C22.2445 3.36914 22.2445 2.37732 22.2445 1.38549C22.2445 -0.419098 19.4459 -0.419098 19.4459 1.38549C19.4459 2.45069 19.4459 3.51579 19.4459 4.5815C18.7944 4.62966 18.1457 4.66712 17.5036 4.66877C15.3498 4.67329 13.1965 4.70458 11.0433 4.73926C11.013 3.49551 10.9302 2.25517 10.7198 1.01379C10.4187 -0.762707 7.72247 -0.00705512 8.02131 1.75771C8.19091 2.75797 8.25193 3.76884 8.27035 4.78186C6.10085 4.81654 3.93135 4.84906 1.76133 4.85297C1.35783 4.85359 1.0489 4.9991 0.826103 5.21737ZM26.711 27.2497C26.5963 28.6418 26.4843 28.7654 25.0128 28.8074C17.9021 29.0117 10.6475 29.4142 3.52002 29.1572C3.4909 24.366 3.37112 19.5759 3.27376 14.7852C10.9688 14.5815 18.6757 14.4231 26.3735 14.4057C26.407 15.0824 26.4513 15.7597 26.4949 16.4419C26.655 18.935 26.7949 21.429 26.824 23.9271C26.837 25.0366 26.8028 26.1443 26.711 27.2497ZM8.25697 7.60792C8.25471 7.81949 8.25193 8.03107 8.25141 8.24203C8.24411 10.0471 11.0428 10.0466 11.05 8.24203C11.0505 8.01759 11.0523 7.79315 11.0539 7.56922C13.8531 7.52281 16.65 7.44326 19.4458 7.32852C19.4458 7.67944 19.4458 8.03045 19.4458 8.38188C19.4458 10.1865 22.2444 10.1865 22.2444 8.38188C22.2444 7.9895 22.2444 7.59711 22.2444 7.20483C22.4649 7.19361 22.686 7.18743 22.9071 7.1757C23.4243 7.14771 26.2464 6.83765 26.4329 7.52724C26.7514 8.70656 26.4553 10.2491 26.3724 11.4503C26.3691 11.5029 26.3702 11.5556 26.3669 11.6075C18.6533 11.6254 10.9314 11.7844 3.22066 11.9882C3.19658 10.5408 3.18485 9.09277 3.1759 7.64476C4.86894 7.63869 6.56332 7.62644 8.25697 7.60792Z" fill="#052E50"/>
<path d="M8.96169 16.2624C8.33364 15.434 7.14537 15.9159 6.28619 15.9159C6.04436 15.9159 5.86972 16.0178 5.75724 16.165C5.65598 16.2753 5.58878 16.4236 5.58652 16.6155C5.57479 17.557 5.37546 18.6467 6.22908 19.2904C6.54871 19.5316 7.1146 19.4566 7.48342 19.4214C7.89814 19.3817 8.31069 19.3122 8.72099 19.2428C8.94039 19.2059 9.16822 18.9702 9.20959 18.7542C9.28348 18.3652 9.25889 17.9616 9.23419 17.5692C9.21021 17.1748 9.21464 16.5954 8.96169 16.2624ZM7.69561 17.9982C7.52263 18.0211 7.34799 18.0362 7.17397 18.0468C7.11357 18.0502 7.05254 18.0519 6.99152 18.0519C6.95849 17.9215 6.95684 17.7843 6.95406 17.6505C6.95066 17.5162 6.95746 17.3825 6.96301 17.2481C7.25404 17.2049 7.54455 17.1613 7.79646 17.1758C7.81488 17.2961 7.8261 17.4333 7.83619 17.5705C7.84627 17.7048 7.84792 17.8392 7.85183 17.9741C7.79914 17.9808 7.74769 17.9909 7.69561 17.9982Z" fill="#052E50"/>
<path d="M8.96168 20.5113C8.33425 19.6828 7.14484 20.1648 6.28618 20.1648C6.04435 20.1648 5.86971 20.2666 5.75723 20.4138C5.65597 20.524 5.58877 20.6724 5.58651 20.8643C5.57478 21.8064 5.37493 22.8961 6.22907 23.5398C6.5487 23.781 7.11459 23.706 7.48341 23.6708C7.89813 23.6311 8.31069 23.5616 8.72098 23.4923C8.94038 23.4553 9.16822 23.2197 9.20959 23.0037C9.28347 22.6147 9.25888 22.2111 9.23418 21.8188C9.2102 21.4242 9.21411 20.8454 8.96168 20.5113ZM7.69561 22.2469C7.52262 22.2698 7.34798 22.285 7.17397 22.2956C7.11356 22.299 7.05253 22.3006 6.99151 22.3006C6.95848 22.1702 6.95683 22.0331 6.95405 21.8993C6.95066 21.765 6.95745 21.6306 6.963 21.4963C7.25403 21.4532 7.54454 21.4095 7.79645 21.424C7.81549 21.5443 7.82609 21.682 7.83618 21.8187C7.84626 21.953 7.84791 22.0874 7.85182 22.2223C7.79913 22.2301 7.74768 22.2402 7.69561 22.2469Z" fill="#052E50"/>
<path d="M8.96169 24.7606C8.33426 23.9317 7.14485 24.4141 6.28619 24.4141C6.04436 24.4141 5.86972 24.516 5.75724 24.6632C5.65598 24.7734 5.58878 24.9218 5.58652 25.1137C5.57479 26.0557 5.37546 27.1449 6.22908 27.7892C6.54871 28.0304 7.11511 27.9554 7.48342 27.9202C7.89814 27.8805 8.31069 27.811 8.72099 27.7416C8.94039 27.7047 9.16822 27.469 9.20959 27.253C9.28348 26.864 9.25889 26.4604 9.23419 26.0682C9.21021 25.6735 9.21412 25.0942 8.96169 24.7606ZM7.69561 26.4964C7.52263 26.5193 7.34799 26.5344 7.17397 26.545C7.11357 26.5484 7.05254 26.5501 6.99152 26.5501C6.95849 26.4191 6.95684 26.2825 6.95406 26.1482C6.95066 26.0139 6.95746 25.8801 6.96301 25.7457C7.25404 25.7026 7.54455 25.659 7.79646 25.6735C7.8155 25.7938 7.8261 25.9315 7.83619 26.0682C7.84627 26.2024 7.84792 26.3374 7.85183 26.4718C7.79914 26.4796 7.74769 26.4897 7.69561 26.4964Z" fill="#052E50"/>
<path d="M13.7932 16.2624C13.1652 15.434 11.9769 15.9159 11.1177 15.9159C10.8759 15.9159 10.7012 16.0178 10.5888 16.165C10.4875 16.2753 10.4203 16.4236 10.418 16.6155C10.4063 17.557 10.207 18.6467 11.0606 19.2904C11.3802 19.5316 11.9466 19.4566 12.3149 19.4214C12.7296 19.3817 13.1422 19.3122 13.5525 19.2428C13.7719 19.2059 13.9997 18.9702 14.0411 18.7542C14.115 18.3652 14.0904 17.9616 14.0663 17.5692C14.0417 17.1748 14.0456 16.5954 13.7932 16.2624ZM12.5271 17.9982C12.3536 18.0211 12.1795 18.0362 12.0055 18.0468C11.9451 18.0502 11.8841 18.0519 11.823 18.0519C11.79 17.9215 11.7884 17.7843 11.7856 17.6505C11.7822 17.5162 11.789 17.3825 11.7945 17.2481C12.0855 17.2049 12.3761 17.1613 12.628 17.1758C12.6464 17.2961 12.6576 17.4333 12.6677 17.5705C12.6772 17.7048 12.6794 17.8392 12.6833 17.9741C12.6307 17.9808 12.5792 17.9909 12.5271 17.9982Z" fill="#052E50"/>
<path d="M13.7932 20.5113C13.1658 19.6828 11.9764 20.1648 11.1177 20.1648C10.8759 20.1648 10.7012 20.2666 10.5888 20.4138C10.4875 20.524 10.4203 20.6724 10.418 20.8643C10.4063 21.8064 10.207 22.8961 11.0606 23.5398C11.3802 23.781 11.9466 23.706 12.3149 23.6708C12.7296 23.6311 13.1422 23.5616 13.5525 23.4923C13.7719 23.4553 13.9997 23.2197 14.0411 23.0037C14.115 22.6147 14.0904 22.2111 14.0663 21.8188C14.0417 21.4242 14.0456 20.8454 13.7932 20.5113ZM12.5271 22.2469C12.3536 22.2698 12.1795 22.285 12.0055 22.2956C11.9451 22.299 11.8841 22.3006 11.823 22.3006C11.79 22.1702 11.7884 22.0331 11.7856 21.8993C11.7822 21.765 11.789 21.6306 11.7945 21.4963C12.0855 21.4532 12.3761 21.4095 12.628 21.424C12.647 21.5443 12.6576 21.682 12.6677 21.8187C12.6772 21.953 12.6794 22.0874 12.6833 22.2223C12.6307 22.2301 12.5792 22.2402 12.5271 22.2469Z" fill="#052E50"/>
<path d="M13.7932 24.7606C13.1658 23.9317 11.9764 24.4141 11.1177 24.4141C10.8759 24.4141 10.7012 24.516 10.5888 24.6632C10.4875 24.7734 10.4203 24.9218 10.418 25.1137C10.4063 26.0557 10.207 27.1449 11.0606 27.7892C11.3802 28.0304 11.9466 27.9554 12.3149 27.9202C12.7296 27.8805 13.1422 27.811 13.5525 27.7416C13.7719 27.7047 13.9997 27.469 14.0411 27.253C14.115 26.864 14.0904 26.4604 14.0663 26.0682C14.0417 25.6735 14.0456 25.0942 13.7932 24.7606ZM12.5271 26.4964C12.3536 26.5193 12.1795 26.5344 12.0055 26.545C11.9451 26.5484 11.8841 26.5501 11.823 26.5501C11.79 26.4191 11.7884 26.2825 11.7856 26.1482C11.7822 26.0139 11.789 25.8801 11.7945 25.7457C12.0855 25.7026 12.3761 25.659 12.628 25.6735C12.647 25.7938 12.6576 25.9315 12.6677 26.0682C12.6772 26.2024 12.6794 26.3374 12.6833 26.4718C12.6307 26.4796 12.5792 26.4897 12.5271 26.4964Z" fill="#052E50"/>
<path d="M18.6247 16.2624C17.9967 15.434 16.8084 15.9159 15.9492 15.9159C15.7074 15.9159 15.5327 16.0178 15.4203 16.165C15.319 16.2753 15.2518 16.4236 15.2495 16.6155C15.2378 17.557 15.0385 18.6467 15.8921 19.2904C16.2117 19.5316 16.7776 19.4566 17.1464 19.4214C17.5612 19.3817 17.9732 19.3122 18.384 19.2428C18.6034 19.2059 18.8312 18.9702 18.8726 18.7542C18.9465 18.3652 18.9219 17.9616 18.8972 17.5692C18.8732 17.1748 18.8771 16.5954 18.6247 16.2624ZM17.3586 17.9982C17.1851 18.0211 17.011 18.0362 16.837 18.0468C16.7766 18.0502 16.7156 18.0519 16.6545 18.0519C16.6215 17.9215 16.6199 17.7843 16.6171 17.6505C16.6137 17.5162 16.6205 17.3825 16.626 17.2481C16.9171 17.2049 17.2082 17.1613 17.4595 17.1758C17.4779 17.2961 17.4891 17.4333 17.4992 17.5705C17.5093 17.7048 17.5109 17.8392 17.5149 17.9741C17.4622 17.9808 17.4107 17.9909 17.3586 17.9982Z" fill="#052E50"/>
<path d="M18.6247 20.5113C17.9973 19.6828 16.8079 20.1648 15.9492 20.1648C15.7074 20.1648 15.5327 20.2666 15.4203 20.4138C15.319 20.524 15.2518 20.6724 15.2495 20.8643C15.2378 21.8064 15.0385 22.8961 15.8921 23.5398C16.2117 23.781 16.7776 23.706 17.1464 23.6708C17.5612 23.6311 17.9732 23.5616 18.384 23.4923C18.6034 23.4553 18.8312 23.2197 18.8726 23.0037C18.9465 22.6147 18.9219 22.2111 18.8972 21.8188C18.8732 21.4242 18.8771 20.8454 18.6247 20.5113ZM17.3586 22.2469C17.1851 22.2698 17.011 22.285 16.837 22.2956C16.7766 22.299 16.7156 22.3006 16.6545 22.3006C16.6215 22.1702 16.6199 22.0331 16.6171 21.8993C16.6137 21.765 16.6205 21.6306 16.626 21.4963C16.9171 21.4532 17.2082 21.4095 17.4595 21.424C17.4785 21.5443 17.4891 21.682 17.4992 21.8187C17.5093 21.953 17.5109 22.0874 17.5149 22.2223C17.4622 22.2301 17.4107 22.2402 17.3586 22.2469Z" fill="#052E50"/>
<path d="M18.6247 24.7606C17.9973 23.9317 16.8079 24.4141 15.9492 24.4141C15.7074 24.4141 15.5327 24.516 15.4203 24.6632C15.319 24.7734 15.2518 24.9218 15.2495 25.1137C15.2378 26.0557 15.0385 27.1449 15.8921 27.7892C16.2117 28.0304 16.7781 27.9554 17.1464 27.9202C17.5612 27.8805 17.9732 27.811 18.384 27.7416C18.6034 27.7047 18.8312 27.469 18.8726 27.253C18.9465 26.864 18.9219 26.4604 18.8972 26.0682C18.8732 25.6735 18.8771 25.0942 18.6247 24.7606ZM17.3586 26.4964C17.1851 26.5193 17.011 26.5344 16.837 26.545C16.7766 26.5484 16.7156 26.5501 16.6545 26.5501C16.6215 26.4191 16.6199 26.2825 16.6171 26.1482C16.6137 26.0139 16.6205 25.8801 16.626 25.7457C16.9171 25.7026 17.2082 25.659 17.4595 25.6735C17.4785 25.7938 17.4891 25.9315 17.4992 26.0682C17.5093 26.2024 17.5109 26.3374 17.5149 26.4718C17.4622 26.4796 17.4107 26.4897 17.3586 26.4964Z" fill="#052E50"/>
<path d="M23.4563 16.2624C22.8282 15.434 21.6399 15.9159 20.7808 15.9159C20.5389 15.9159 20.3643 16.0178 20.2518 16.165C20.1505 16.2753 20.0834 16.4236 20.0811 16.6155C20.0694 17.557 19.87 18.6467 20.7236 19.2904C21.0433 19.5316 21.6097 19.4566 21.978 19.4214C22.3927 19.3817 22.8053 19.3122 23.2161 19.2428C23.4355 19.2059 23.6633 18.9702 23.7047 18.7542C23.7786 18.3652 23.754 17.9616 23.7293 17.5692C23.7042 17.1748 23.7087 16.5954 23.4563 16.2624ZM22.1902 17.9982C22.0167 18.0211 21.8426 18.0362 21.6685 18.0468C21.6081 18.0502 21.5471 18.0519 21.4861 18.0519C21.4531 17.9215 21.4519 17.7843 21.4486 17.6505C21.4452 17.5162 21.452 17.3825 21.4576 17.2481C21.7486 17.2049 22.0397 17.1613 22.291 17.1758C22.3096 17.2961 22.3207 17.4333 22.3308 17.5705C22.3408 17.7048 22.3425 17.8392 22.3464 17.9741C22.2937 17.9808 22.2423 17.9909 22.1902 17.9982Z" fill="#052E50"/>
<path d="M23.4563 20.5113C22.8288 19.6828 21.6394 20.1648 20.7808 20.1648C20.5389 20.1648 20.3643 20.2666 20.2518 20.4138C20.1505 20.524 20.0834 20.6724 20.0811 20.8643C20.0694 21.8064 19.87 22.8961 20.7236 23.5398C21.0433 23.781 21.6097 23.706 21.978 23.6708C22.3927 23.6311 22.8053 23.5616 23.2161 23.4923C23.4355 23.4553 23.6633 23.2197 23.7047 23.0037C23.7786 22.6147 23.754 22.2111 23.7293 21.8188C23.7042 21.4242 23.7087 20.8454 23.4563 20.5113ZM22.1902 22.2469C22.0167 22.2698 21.8426 22.285 21.6685 22.2956C21.6081 22.299 21.5471 22.3006 21.4861 22.3006C21.4531 22.1702 21.4519 22.0331 21.4486 21.8993C21.4452 21.765 21.452 21.6306 21.4576 21.4963C21.7486 21.4532 22.0397 21.4095 22.291 21.424C22.3101 21.5443 22.3207 21.682 22.3308 21.8187C22.3408 21.953 22.3425 22.0874 22.3464 22.2223C22.2937 22.2301 22.2423 22.2402 22.1902 22.2469Z" fill="#052E50"/>
<path d="M23.4563 24.7606C22.8288 23.9317 21.6394 24.4141 20.7808 24.4141C20.5389 24.4141 20.3643 24.516 20.2518 24.6632C20.1505 24.7734 20.0834 24.9218 20.0811 25.1137C20.0694 26.0557 19.87 27.1449 20.7236 27.7892C21.0433 28.0304 21.6097 27.9554 21.978 27.9202C22.3927 27.8805 22.8053 27.811 23.2161 27.7416C23.4355 27.7047 23.6633 27.469 23.7047 27.253C23.7786 26.864 23.754 26.4604 23.7293 26.0682C23.7042 25.6735 23.7087 25.0942 23.4563 24.7606ZM22.1902 26.4964C22.0167 26.5193 21.8426 26.5344 21.6685 26.545C21.6081 26.5484 21.5471 26.5501 21.4861 26.5501C21.4531 26.4191 21.4519 26.2825 21.4486 26.1482C21.4452 26.0139 21.452 25.8801 21.4576 25.7457C21.7486 25.7026 22.0397 25.659 22.291 25.6735C22.3101 25.7938 22.3207 25.9315 22.3308 26.0682C22.3408 26.2024 22.3425 26.3374 22.3464 26.4718C22.2937 26.4796 22.2423 26.4897 22.1902 26.4964Z" fill="#052E50"/>
</svg>
