<svg width="37" height="37" viewBox="0 0 37 37" fill="none" xmlns="http://www.w3.org/2000/svg">
<path d="M21.6351 28.4H15.3651C14.8183 28.4 14.3751 27.9568 14.3751 27.41V23.615C14.3751 23.0682 13.9319 22.625 13.3851 22.625H9.5901C9.04334 22.625 8.6001 22.1818 8.6001 21.635V15.365C8.6001 14.8183 9.04334 14.375 9.5901 14.375H13.3851C13.9319 14.375 14.3751 13.9318 14.3751 13.385V9.59004C14.3751 9.04328 14.8183 8.60004 15.3651 8.60004H21.6351C22.1819 8.60004 22.6251 9.04328 22.6251 9.59004V13.385C22.6251 13.9318 23.0683 14.375 23.6151 14.375H27.4101C27.9569 14.375 28.4001 14.8183 28.4001 15.365V21.635C28.4001 22.1818 27.9569 22.625 27.4101 22.625H23.6151C23.0683 22.625 22.6251 23.0682 22.6251 23.615V27.41C22.6251 27.9568 22.1819 28.4 21.6351 28.4Z" stroke="#395B77" stroke-width="2.95476"/>
<path d="M18.5 35C27.6126 35 35 27.6126 35 18.5C35 9.3873 27.6126 2 18.5 2C9.3873 2 2 9.3873 2 18.5C2 27.6126 9.3873 35 18.5 35Z" stroke="#395B77" stroke-width="2.95476" stroke-linecap="round" stroke-linejoin="round"/>
</svg>
