<svg width="37" height="37" viewBox="0 0 37 37" fill="none" xmlns="http://www.w3.org/2000/svg">
<path d="M21.4524 13.1362L21.4689 13.1179L21.4524 13.1362Z" fill="#F9F9F9" fill-opacity="0.97"/>
<path d="M21.4524 13.1362L21.4689 13.1179" stroke="#395B77" stroke-width="2.95021" stroke-linecap="round" stroke-linejoin="round"/>
<path d="M11.5447 11.4849L11.5612 11.4666L11.5447 11.4849Z" fill="#F9F9F9" fill-opacity="0.97"/>
<path d="M11.5447 11.4849L11.5612 11.4666" stroke="#395B77" stroke-width="2.95021" stroke-linecap="round" stroke-linejoin="round"/>
<path d="M11.5447 21.3925L11.5612 21.3742L11.5447 21.3925Z" fill="#F9F9F9" fill-opacity="0.97"/>
<path d="M11.5447 21.3925L11.5612 21.3742" stroke="#395B77" stroke-width="2.95021" stroke-linecap="round" stroke-linejoin="round"/>
<path d="M8.24218 29.6324L2.02723 3.21882C1.8532 2.47918 2.54224 1.827 3.27121 2.0414L29.7087 9.81713" fill="#F9F9F9" fill-opacity="0.97"/>
<path d="M8.24218 29.6324L2.02723 3.21882C1.8532 2.47918 2.54224 1.827 3.27121 2.0414L29.7087 9.81713" stroke="#395B77" stroke-width="2.95021"/>
<path d="M34.9894 12.1697C35.3765 10.6214 34.4351 9.05247 32.8869 8.66539C31.3385 8.27832 29.7696 9.21968 29.3825 10.768C28.7354 13.3561 26.2435 17.4528 22.4023 21.294C18.6027 25.0936 13.9013 28.2193 9.244 29.2941C7.68892 29.6529 6.71919 31.2044 7.07806 32.7594C7.43692 34.3146 8.98848 35.2842 10.5436 34.9254C16.6197 33.5233 22.2386 29.6309 26.489 25.3807C30.6976 21.172 33.9851 16.1866 34.9894 12.1697Z" fill="#F9F9F9" fill-opacity="0.97" stroke="#395B77" stroke-width="2.95021" stroke-linecap="round"/>
</svg>
