<svg width="44" height="44" viewBox="0 0 44 44" fill="none" xmlns="http://www.w3.org/2000/svg">
<path d="M35.5499 33.7886H34.3992L32.525 16.6113C32.3107 14.6458 30.6579 13.1636 28.6807 13.1636H15.3131C13.3359 13.1636 11.6832 14.6457 11.4687 16.6113L9.59469 33.7886H8.45C6.72498 33.7886 5.32153 35.1919 5.32153 36.917V40.8716C5.32153 42.5967 6.72498 44 8.45 44H35.5499C37.2749 44 38.6783 42.5967 38.6783 40.8716V36.917C38.6783 35.1919 37.2749 33.7886 35.5499 33.7886V33.7886ZM14.0316 16.891C14.1031 16.2358 14.654 15.7417 15.3131 15.7417H28.6807C29.3398 15.7417 29.8907 16.2358 29.9622 16.8909L31.8058 33.7886H23.289V27.0252C24.7894 26.4931 25.8671 25.0602 25.8671 23.3797C25.8671 21.2474 24.1323 19.5126 21.9999 19.5126C19.8676 19.5126 18.1328 21.2474 18.1328 23.3797C18.1328 25.0602 19.2105 26.4931 20.7109 27.0252V33.7886H12.1881L14.0316 16.891ZM21.9999 24.6688C21.2892 24.6688 20.7109 24.0905 20.7109 23.3797C20.7109 22.6689 21.2892 22.0907 21.9999 22.0907C22.7107 22.0907 23.289 22.6689 23.289 23.3797C23.289 24.0905 22.7107 24.6688 21.9999 24.6688ZM36.1002 40.8716C36.1002 41.1751 35.8533 41.4219 35.5499 41.4219H8.45C8.14656 41.4219 7.89966 41.1751 7.89966 40.8716V36.917C7.89966 36.6135 8.14656 36.3667 8.45 36.3667H35.5499C35.8533 36.3667 36.1002 36.6135 36.1002 36.917V40.8716Z" fill="#FF0000"/>
<path d="M22.1667 6.71412C22.8787 6.71412 23.4558 6.13697 23.4558 5.42506V1.28906C23.4558 0.577156 22.8787 0 22.1667 0C21.4548 0 20.8777 0.577156 20.8777 1.28906V5.42506C20.8777 6.13697 21.4548 6.71412 22.1667 6.71412Z" fill="#FF0000"/>
<path d="M12.7579 8.19061C12.9972 8.60217 13.4293 8.83188 13.8733 8.83188C14.8558 8.83188 15.4895 7.75929 14.9865 6.8945L12.9033 3.31263C12.5453 2.69715 11.7561 2.48849 11.1409 2.84633C10.5255 3.20426 10.3167 3.99334 10.6746 4.60874L12.7579 8.19061Z" fill="#FF0000"/>
<path d="M3.50619 12.5439C7.41454 14.7838 7.29337 14.7828 7.75425 14.7828C9.06566 14.7828 9.54287 13.0322 8.39646 12.3751L4.78829 10.3072C4.17049 9.9531 3.38296 10.1669 3.02889 10.7845C2.67474 11.4022 2.88847 12.1899 3.50619 12.5439V12.5439Z" fill="#FF0000"/>
<path d="M6.74446 21.6831C6.74446 20.9712 6.1673 20.394 5.4554 20.394H1.28906C0.577156 20.394 0 20.9712 0 21.6831C0 22.395 0.577156 22.9721 1.28906 22.9721H5.4554C6.16739 22.9721 6.74446 22.3951 6.74446 21.6831Z" fill="#FF0000"/>
<path d="M42.7109 20.7254H38.5446C37.8326 20.7254 37.2555 21.3025 37.2555 22.0144C37.2555 22.7263 37.8326 23.3035 38.5446 23.3035H42.7109C43.4228 23.3035 44 22.7263 44 22.0144C44 21.3025 43.4228 20.7254 42.7109 20.7254Z" fill="#FF0000"/>
<path d="M37.0525 14.8987L40.6606 12.8308C41.2783 12.4768 41.492 11.6891 41.138 11.0714C40.7839 10.4537 39.9961 10.2397 39.3786 10.594L35.7705 12.662C35.1528 13.0159 34.9391 13.8036 35.2931 14.4214C35.6473 15.0393 36.4352 15.2528 37.0525 14.8987V14.8987Z" fill="#FF0000"/>
<path d="M30.4156 8.99749C30.8597 8.99749 31.2918 8.76769 31.5311 8.35623L33.6142 4.77435C33.9722 4.15895 33.7633 3.36987 33.1479 3.01194C32.5326 2.6541 31.7434 2.86293 31.3855 3.47824L29.3024 7.06012C28.8004 7.92336 29.4315 8.99749 30.4156 8.99749V8.99749Z" fill="#FF0000"/>
</svg>
