<?xml version="1.0" standalone="no"?>
<!DOCTYPE svg PUBLIC "-//W3C//DTD SVG 20010904//EN"
 "http://www.w3.org/TR/2001/REC-SVG-20010904/DTD/svg10.dtd">
<svg version="1.0" xmlns="http://www.w3.org/2000/svg"
 width="87.000000pt" height="87.000000pt" viewBox="0 0 87.000000 87.000000"
 preserveAspectRatio="xMidYMid meet">

<g transform="translate(0.000000,87.000000) scale(0.100000,-0.100000)"
fill="#000000" stroke="none">
<path d="M307 841 c-270 -89 -381 -402 -227 -640 126 -194 391 -249 589 -121
284 184 239 629 -76 751 -82 31 -208 36 -286 10z m212 -12 c121 -28 249 -135
289 -242 62 -165 25 -326 -104 -447 -166 -154 -405 -143 -564 26 -152 163
-143 403 21 559 101 96 230 134 358 104z"/>
<path d="M337 688 c-11 -9 -17 -31 -19 -73 l-3 -60 -60 -3 c-78 -4 -85 -14
-85 -117 0 -103 7 -113 85 -117 l60 -3 3 -60 c4 -78 14 -85 117 -85 103 0 113
7 117 85 l3 60 60 3 c78 4 85 14 85 117 0 103 -7 113 -85 117 l-60 3 -3 60
c-4 78 -14 85 -117 85 -49 0 -88 -5 -98 -12z m193 -88 l5 -65 65 -5 65 -5 0
-90 0 -90 -65 -5 -65 -5 -5 -65 -5 -65 -90 0 -90 0 -5 65 -5 65 -65 5 -65 5 0
90 0 90 65 5 65 5 3 55 c4 84 1 81 99 78 l88 -3 5 -65z"/>
</g>
</svg>
