<svg width="30" height="29" viewBox="0 0 30 29" fill="none" xmlns="http://www.w3.org/2000/svg">
<path d="M28.7809 13.1509V4.68825C28.7809 3.0814 27.4686 1.88965 25.8751 2.02356H25.7948C22.9828 2.26458 18.7113 3.69736 16.3278 5.19709L16.1001 5.34438C15.7118 5.58541 15.0691 5.58541 14.6807 5.34438L14.346 5.14353C11.9625 3.65719 7.70432 2.2378 4.89233 2.01016C3.29887 1.87626 2 3.0814 2 4.67486V20.8504C2 22.1359 3.04445 23.3411 4.32993 23.5017L4.71826 23.5553C7.62398 23.9436 12.1098 25.4166 14.6807 26.8226L14.7343 26.8494C15.0958 27.0502 15.6716 27.0502 16.0198 26.8494C18.5907 25.43 23.0899 23.9436 26.009 23.5553L26.4509 23.5017C27.7364 23.3411 28.7809 22.1359 28.7809 20.8504V18.5473" stroke="#BEBEBE" stroke-width="2.15767" stroke-linecap="round" stroke-linejoin="round"/>
<path d="M15.3904 5.78632V25.872" stroke="#BEBEBE" stroke-width="2.15767" stroke-linecap="round" stroke-linejoin="round"/>
<path d="M9.6995 9.80344H6.68665" stroke="#BEBEBE" stroke-width="2.15767" stroke-linecap="round" stroke-linejoin="round"/>
<path d="M10.7038 13.8206H6.68665" stroke="#BEBEBE" stroke-width="2.15767" stroke-linecap="round" stroke-linejoin="round"/>
</svg>
