<?xml version="1.0" standalone="no"?>
<!DOCTYPE svg PUBLIC "-//W3C//DTD SVG 20010904//EN"
 "http://www.w3.org/TR/2001/REC-SVG-20010904/DTD/svg10.dtd">
<svg version="1.0" xmlns="http://www.w3.org/2000/svg"
 width="37.000000pt" height="37.000000pt" viewBox="0 0 37.000000 37.000000"
 preserveAspectRatio="xMidYMid meet">

<g transform="translate(0.000000,37.000000) scale(0.100000,-0.100000)"
fill="#000" stroke="none">
<path d="M210 352 c0 -10 133 -142 143 -142 13 0 7 27 -8 40 -12 10 -12 15 1
35 28 43 -17 90 -61 61 -20 -13 -25 -13 -35 -1 -13 16 -40 20 -40 7z m110 -40
c0 -13 -12 -22 -22 -16 -10 6 -1 24 13 24 5 0 9 -4 9 -8z"/>
<path d="M109 203 c-69 -69 -89 -96 -94 -125 -4 -21 -5 -45 -1 -53 7 -19 47
-19 89 -1 35 15 187 166 187 186 0 16 -65 80 -81 80 -7 0 -52 -39 -100 -87z
m127 26 c18 -20 18 -21 -67 -105 -88 -86 -129 -106 -129 -63 0 20 153 189 170
189 4 0 15 -9 26 -21z"/>
</g>
</svg>
