<?xml version="1.0" standalone="no"?>
<!DOCTYPE svg PUBLIC "-//W3C//DTD SVG 20010904//EN"
 "http://www.w3.org/TR/2001/REC-SVG-20010904/DTD/svg10.dtd">
<svg version="1.0" xmlns="http://www.w3.org/2000/svg"
 width="84.000000pt" height="83.000000pt" viewBox="0 0 84.000000 83.000000"
 preserveAspectRatio="xMidYMid meet">

<g transform="translate(0.000000,83.000000) scale(0.100000,-0.100000)"
fill="#000000" stroke="none">
<path d="M288 643 c-137 -138 -157 -174 -158 -279 0 -120 67 -225 173 -269 46
-19 142 -30 150 -18 4 6 -17 12 -51 16 -148 13 -256 128 -256 271 0 91 25 133
159 266 l115 115 106 -105 c143 -142 159 -171 159 -282 0 -95 10 -115 21 -42
9 61 -1 125 -27 177 -25 49 -236 267 -259 267 -8 0 -68 -53 -132 -117z"/>
<path d="M697 152 l-67 -66 -35 34 c-19 18 -38 30 -42 26 -4 -3 12 -26 35 -49
l42 -42 76 76 c42 42 72 79 67 82 -5 3 -39 -24 -76 -61z"/>
</g>
</svg>
