<svg width="25" height="31" viewBox="0 0 25 31" fill="none" xmlns="http://www.w3.org/2000/svg">
<path d="M12.7972 3.30197C8.35537 3.30197 4.74556 6.91178 4.74556 11.3536V15.2319C4.74556 16.0504 4.39666 17.2984 3.98066 17.9962L2.43743 20.5593C1.48465 22.1428 2.1422 23.9008 3.88672 24.4912C9.67047 26.4236 15.9105 26.4236 21.6942 24.4912C23.318 23.9544 24.0292 22.0355 23.1435 20.5593L21.6003 17.9962C21.1977 17.2984 20.8488 16.0504 20.8488 15.2319V11.3536C20.8488 6.9252 17.2256 3.30197 12.7972 3.30197Z" stroke="#BEBEBE" stroke-width="2.68995" stroke-miterlimit="10" stroke-linecap="round"/>
<path d="M15.2802 3.69084C14.8642 3.57007 14.4347 3.47613 13.9919 3.42245C12.7036 3.26142 11.4691 3.35536 10.315 3.69084C10.7042 2.69781 11.6704 2 12.7976 2C13.9248 2 14.891 2.69781 15.2802 3.69084Z" stroke="#BEBEBE" stroke-width="2.68995" stroke-miterlimit="10" stroke-linecap="round" stroke-linejoin="round"/>
<path opacity="0.4" d="M16.8229 24.9742C16.8229 27.1884 15.0112 29 12.797 29C11.6967 29 10.6768 28.5438 9.95218 27.8191C9.22753 27.0945 8.77127 26.0746 8.77127 24.9742" stroke="#BEBEBE" stroke-width="2.68995" stroke-miterlimit="10"/>
</svg>
