<svg width="28" height="32" viewBox="0 0 28 32" fill="none" xmlns="http://www.w3.org/2000/svg">
<path d="M27.0233 31.0303H0.976744C0.442791 31.0303 0 30.5395 0 29.9478C0 29.3561 0.442791 28.8654 0.976744 28.8654H27.0233C27.5572 28.8654 28 29.3561 28 29.9478C28 30.5395 27.5572 31.0303 27.0233 31.0303Z" fill="#BBD8E0"/>
<path d="M16.9302 31.0303H11.0698C10.5358 31.0303 10.093 30.5396 10.093 29.9478V3.96899C10.093 1.48657 11.3302 0 13.4139 0H14.586C16.6698 0 17.907 1.48657 17.907 3.96899V29.9478C17.907 30.5396 17.4642 31.0303 16.9302 31.0303ZM12.0465 28.8654H15.9535V3.96899C15.9535 2.30923 15.2502 2.1649 14.586 2.1649H13.4139C12.7498 2.1649 12.0465 2.30923 12.0465 3.96899V28.8654Z" fill="#BBD8E0"/>
<path d="M7.48829 31.0303H2.27899C1.74504 31.0303 1.30225 30.5396 1.30225 29.9479V12.6287C1.30225 10.1462 2.44829 8.65967 4.36271 8.65967H5.40457C7.31899 8.65967 8.46504 10.1462 8.46504 12.6287V29.9479C8.46504 30.5396 8.02225 31.0303 7.48829 31.0303ZM3.25573 28.8654H6.51155V12.6287C6.51155 10.8246 5.79527 10.8246 5.40457 10.8246H4.36271C3.97201 10.8246 3.25573 10.8246 3.25573 12.6287V28.8654Z" fill="#BBD8E0"/>
<path d="M25.7207 31.0303H20.5114C19.9775 31.0303 19.5347 30.5396 19.5347 29.9478V19.845C19.5347 17.3625 20.6807 15.876 22.5951 15.876H23.637C25.5514 15.876 26.6975 17.3625 26.6975 19.845V29.9478C26.6975 30.5396 26.2547 31.0303 25.7207 31.0303ZM21.4882 28.8654H24.744V19.845C24.744 18.0409 24.0277 18.0409 23.637 18.0409H22.5951C22.2044 18.0409 21.4882 18.0409 21.4882 19.845V28.8654Z" fill="#BBD8E0"/>
</svg>
