<svg width="32" height="32" viewBox="0 0 32 32" fill="none" xmlns="http://www.w3.org/2000/svg">
<path d="M20 25.3333C19.8246 25.3344 19.6506 25.3007 19.4882 25.2344C19.3257 25.168 19.178 25.0702 19.0534 24.9467L11.0534 16.9467C10.805 16.6969 10.6656 16.3589 10.6656 16.0067C10.6656 15.6544 10.805 15.3165 11.0534 15.0667L19.0534 7.06667C19.3084 6.84824 19.6365 6.7341 19.9721 6.74706C20.3077 6.76002 20.626 6.89913 20.8635 7.13659C21.1009 7.37405 21.24 7.69237 21.253 8.02793C21.266 8.3635 21.1518 8.6916 20.9334 8.94667L13.88 16L20.9334 23.0533C21.1206 23.239 21.2486 23.4761 21.3011 23.7345C21.3536 23.9929 21.3283 24.2611 21.2284 24.5051C21.1285 24.7492 20.9585 24.9581 20.7398 25.1055C20.5212 25.253 20.2637 25.3322 20 25.3333V25.3333Z" fill="white"/>
</svg>
