<svg width="34" height="33" viewBox="0 0 34 33" fill="none" xmlns="http://www.w3.org/2000/svg">
<path d="M12.19 31.4198H8.79335C5.04149 31.4198 2 28.3783 2 24.6265V13.9399C2 11.5643 3.24082 9.36139 5.27234 8.13017L13.764 2.98369C15.9282 1.6721 18.6418 1.6721 20.806 2.98369L29.2977 8.13017C31.3293 9.36139 32.5701 11.5643 32.5701 13.9399V24.6265C32.5701 28.3783 29.5285 31.4198 25.7767 31.4198H22.3801M12.19 31.4198V24.6265C12.19 21.8125 14.4711 19.5315 17.285 19.5315C20.099 19.5315 22.3801 21.8125 22.3801 24.6265V31.4198M12.19 31.4198H22.3801" stroke="#BBD8E0" stroke-width="2.54751" stroke-linecap="round" stroke-linejoin="round"/>
</svg>
