<svg width="32" height="32" viewBox="0 0 32 32" fill="none" xmlns="http://www.w3.org/2000/svg">
<path d="M16 15.36C19.5346 15.36 22.4 12.4946 22.4 8.96C22.4 5.42538 19.5346 2.56 16 2.56C12.4654 2.56 9.60001 5.42538 9.60001 8.96C9.60001 12.4946 12.4654 15.36 16 15.36Z" fill="#153C5C"/>
<path d="M17.3568 16.64H14.6432C13.0514 16.645 11.4761 16.9636 10.0074 17.5774C8.53864 18.1912 7.20519 19.0883 6.08316 20.2175C4.96113 21.3466 4.07249 22.6857 3.46799 24.1583C2.86348 25.6309 2.55495 27.2082 2.56 28.8C2.56 28.9697 2.62743 29.1325 2.74745 29.2525C2.86747 29.3726 3.03026 29.44 3.2 29.44H28.8C28.9776 29.4238 29.1425 29.3408 29.2613 29.2078C29.3801 29.0747 29.444 28.9015 29.44 28.7232C29.4332 25.5206 28.158 22.4511 25.8934 20.1866C23.6289 17.922 20.5594 16.6468 17.3568 16.64V16.64Z" fill="#153C5C"/>
</svg>
