<svg width="44" height="44" viewBox="0 0 44 44" fill="none" xmlns="http://www.w3.org/2000/svg">
<path d="M21.8133 7.65738H21.4991C21.1496 7.65594 20.8121 7.52909 20.5482 7.29991C20.2843 7.07073 20.1113 6.75443 20.0609 6.40854L19.6872 3.12297C19.6602 2.91803 19.6774 2.7097 19.7374 2.5119C19.7974 2.3141 19.899 2.1314 20.0353 1.97601C20.1716 1.82062 20.3395 1.69613 20.5278 1.61086C20.7161 1.5256 20.9205 1.48151 21.1272 1.48157H22.1852C22.3931 1.48155 22.5986 1.52615 22.7877 1.61236C22.9769 1.69858 23.1453 1.82439 23.2817 1.9813C23.418 2.13821 23.5191 2.32256 23.5781 2.52189C23.637 2.72122 23.6525 2.93089 23.6235 3.13672L23.2533 6.39376C23.2054 6.74237 23.0335 7.06203 22.769 7.29413C22.5045 7.52623 22.1652 7.65519 21.8133 7.65738V7.65738ZM21.1258 2.51282C21.0654 2.51273 21.0057 2.52566 20.9507 2.55072C20.8957 2.57578 20.8468 2.61239 20.8072 2.65805C20.7677 2.70371 20.7384 2.75736 20.7214 2.81534C20.7044 2.87332 20.7001 2.93428 20.7088 2.99407L21.0825 6.27929C21.0996 6.37695 21.1506 6.46544 21.2266 6.52915C21.3026 6.59286 21.3986 6.62769 21.4977 6.62751H21.8119C21.9133 6.62708 22.0112 6.59027 22.0877 6.52377C22.1642 6.45728 22.2143 6.36552 22.2289 6.26519L22.5991 3.00782C22.6095 2.94608 22.6061 2.88283 22.5893 2.82254C22.5725 2.76224 22.5426 2.70638 22.5018 2.65891C22.4624 2.61326 22.4136 2.57669 22.3587 2.55171C22.3038 2.52673 22.2442 2.51393 22.1839 2.51419L21.1258 2.51282Z" fill="#B0B0B0"/>
<path d="M14.2605 10.4342C14.0496 10.4347 13.8411 10.3894 13.6495 10.3013C13.4578 10.2133 13.2876 10.0847 13.1505 9.92441L11.078 7.348C10.9457 7.18928 10.8487 7.00412 10.7937 6.80491C10.7386 6.6057 10.7267 6.39702 10.7588 6.19285C10.7909 5.98868 10.8662 5.79371 10.9797 5.62099C11.0932 5.44827 11.2423 5.30178 11.417 5.19131L12.3107 4.6255C12.4864 4.51435 12.6839 4.4422 12.8898 4.41393C13.0957 4.38566 13.3053 4.40192 13.5044 4.46162C13.7035 4.52132 13.8875 4.62307 14.0439 4.75998C14.2003 4.8969 14.3255 5.06579 14.411 5.25525L15.84 8.206C15.9859 8.52609 16.0115 8.88808 15.9121 9.22552C15.8126 9.56296 15.5948 9.85321 15.2986 10.043L15.0336 10.2111C14.8022 10.3572 14.5341 10.4346 14.2605 10.4342ZM13.0852 5.43125C13.0062 5.43121 12.9288 5.45401 12.8625 5.4969L11.9687 6.06272C11.9179 6.095 11.8745 6.1378 11.8416 6.18825C11.8087 6.2387 11.787 6.29561 11.7779 6.35516C11.7689 6.4147 11.7727 6.4755 11.7891 6.53345C11.8055 6.5914 11.8342 6.64515 11.8731 6.69109L13.946 9.26715C14.0126 9.3407 14.103 9.38832 14.2013 9.4016C14.2997 9.41487 14.3995 9.39294 14.4832 9.33969L14.7479 9.17194C14.8333 9.11746 14.8964 9.03412 14.9255 8.93709C14.9547 8.84005 14.948 8.73578 14.9067 8.64325L13.4778 5.6925C13.4535 5.6348 13.4168 5.58315 13.3704 5.54121C13.3239 5.49927 13.2688 5.46807 13.209 5.44981C13.1689 5.43751 13.1271 5.43125 13.0852 5.43125V5.43125Z" fill="#B0B0B0"/>
<path d="M29.049 10.4339C28.7763 10.4343 28.5093 10.357 28.279 10.2111L28.0136 10.043C27.7188 9.85497 27.5013 9.56733 27.4008 9.23245C27.3002 8.89757 27.3232 8.53771 27.4657 8.21838L28.907 5.24254C28.9938 5.05496 29.1196 4.88807 29.276 4.75303C29.4325 4.61799 29.616 4.51792 29.8142 4.4595C30.0125 4.40109 30.2209 4.38568 30.4256 4.41431C30.6303 4.44294 30.8265 4.51494 31.0011 4.62551L31.8949 5.19132C32.0705 5.30241 32.2203 5.44993 32.3341 5.62391C32.4478 5.79788 32.5228 5.99425 32.5541 6.19974C32.5854 6.40522 32.5722 6.61503 32.5154 6.81497C32.4586 7.01491 32.3595 7.20032 32.2249 7.35866L30.171 9.91376C30.0329 10.0767 29.861 10.2076 29.6672 10.2974C29.4735 10.3872 29.2625 10.4338 29.049 10.4339V10.4339ZM30.2273 5.43126C30.1855 5.43118 30.1439 5.43732 30.1039 5.44948C30.0461 5.46647 29.9927 5.49584 29.9473 5.53555C29.902 5.57526 29.8658 5.62436 29.8413 5.67944L28.4 8.65529C28.3624 8.74691 28.3583 8.84885 28.3885 8.94316C28.4187 9.03748 28.4812 9.11813 28.565 9.17091V9.17091L28.83 9.33866C28.9158 9.39264 29.0181 9.41394 29.1183 9.39866C29.2184 9.38339 29.3098 9.33256 29.3755 9.25548L31.4312 6.70313C31.4727 6.65642 31.5035 6.60114 31.5213 6.5412C31.5392 6.48125 31.5436 6.41813 31.5343 6.35629C31.5255 6.29668 31.5039 6.23969 31.471 6.18924C31.438 6.13879 31.3945 6.0961 31.3435 6.0641L30.4497 5.49829C30.3836 5.45498 30.3064 5.4317 30.2273 5.43126V5.43126Z" fill="#B0B0B0"/>
<path d="M41.436 17.0228H40.9227C40.8972 16.254 40.5908 15.5212 40.0615 14.9629C39.5323 14.4047 38.8168 14.0598 38.0504 13.9934C37.7527 13.0725 37.1359 12.2881 36.3112 11.7816C35.4865 11.2751 34.5081 11.0796 33.5521 11.2305C32.5961 11.3814 31.7254 11.8686 31.0967 12.6045C30.4681 13.3403 30.1228 14.2765 30.1232 15.2443V15.7094H28.6567V14.3588C28.6569 13.9509 28.5358 13.5521 28.3087 13.2132C28.0817 12.8742 27.759 12.6105 27.3817 12.4554C27.0044 12.3003 26.5895 12.2609 26.1898 12.3422C25.79 12.4235 25.4235 12.6218 25.1367 12.9119C24.9321 12.6472 24.6659 12.4366 24.3613 12.2983C24.0566 12.1601 23.7228 12.0985 23.3888 12.1188C23.0549 12.1391 22.731 12.2408 22.4454 12.415C22.1597 12.5892 21.921 12.8306 21.7501 13.1182C21.4839 12.8945 21.1654 12.742 20.8242 12.675C20.483 12.608 20.1304 12.6287 19.7994 12.7352C19.4685 12.8417 19.1699 13.0305 18.9318 13.2839C18.6937 13.5372 18.5238 13.8469 18.4381 14.1838C18.1425 13.9967 17.8041 13.8883 17.4549 13.8686C17.1057 13.849 16.7572 13.9189 16.4426 14.0717C16.1279 14.2245 15.8576 14.4552 15.6571 14.7418C15.4566 15.0284 15.3326 15.3614 15.2969 15.7094H13.8768V15.2443C13.8779 14.2754 13.5326 13.3381 12.9033 12.6014C12.274 11.8648 11.4021 11.3773 10.445 11.227C9.48785 11.0767 8.50851 11.2734 7.68369 11.7817C6.85886 12.29 6.24287 13.0763 5.94687 13.9989C5.18127 14.0648 4.46637 14.409 3.93744 14.9665C3.40851 15.5239 3.10223 16.2559 3.07656 17.0239H2.56403C1.97552 17.0246 1.41131 17.2587 0.995102 17.6747C0.578895 18.0908 0.34466 18.655 0.34375 19.2435V19.7636C0.344387 20.3522 0.578513 20.9166 0.994759 21.3328C1.411 21.7491 1.97537 21.9832 2.56403 21.9838H3.07725C3.10264 22.7527 3.40898 23.4856 3.93829 24.0439C4.4676 24.6022 5.18318 24.9471 5.94963 25.0133C6.23124 25.8861 6.80015 26.6379 7.56365 27.146C8.32715 27.6541 9.24023 27.8887 10.1541 27.8115C11.068 27.7344 11.9288 27.35 12.5963 26.721C13.2637 26.092 13.6985 25.2555 13.8297 24.3478C14.0525 25.9845 14.3993 27.6019 14.8672 29.1861C15.3801 31.087 15.8641 32.8821 15.8641 34.5428V42.065C15.8645 42.483 16.0308 42.8837 16.3263 43.1792C16.6218 43.4748 17.0225 43.641 17.4405 43.6415H25.7125C26.1305 43.641 26.5312 43.4748 26.8267 43.1792C27.1222 42.8837 27.2885 42.483 27.2889 42.065V34.0443C27.2889 32.3599 27.7564 31.6879 28.7994 30.1902C29.6406 29.0099 30.2488 27.6798 30.5913 26.2714C30.6278 26.1143 30.6512 25.9555 30.6745 25.7967C31.0667 26.4773 31.6481 27.0293 32.348 27.3858C33.0479 27.7423 33.8363 27.8879 34.6174 27.8049C35.3984 27.722 36.1386 27.414 36.748 26.9184C37.3574 26.4229 37.8099 25.7611 38.0504 25.0133C38.8168 24.9471 39.5324 24.6022 40.0617 24.0439C40.591 23.4856 40.8974 22.7527 40.9227 21.9838H41.436C42.0246 21.9832 42.589 21.7491 43.0052 21.3328C43.4215 20.9166 43.6556 20.3522 43.6562 19.7636V19.2435C43.6556 18.6548 43.4215 18.0904 43.0053 17.6741C42.589 17.2578 42.0247 17.0236 41.436 17.0228ZM3.07209 20.9526H2.56403C2.24879 20.9522 1.94657 20.8268 1.72366 20.6039C1.50075 20.381 1.37536 20.0788 1.375 19.7636V19.2435C1.37536 18.9282 1.50074 18.6259 1.72364 18.403C1.94654 18.18 2.24876 18.0546 2.56403 18.0541H3.07209V20.9526ZM4.10334 21.8807V17.1243C4.1043 16.6439 4.26886 16.1781 4.56991 15.8038C4.87096 15.4295 5.29054 15.1688 5.75953 15.0648C5.75678 15.125 5.75059 15.1838 5.75059 15.2443V23.7624C5.75059 23.8239 5.75678 23.8838 5.75953 23.9446C5.29029 23.8401 4.8706 23.579 4.56958 23.2041C4.26855 22.8293 4.10411 22.3632 4.10334 21.8824V21.8807ZM12.8456 23.7607C12.8456 24.5648 12.5262 25.336 11.9576 25.9045C11.389 26.4731 10.6178 26.7926 9.81372 26.7926C9.00962 26.7926 8.23845 26.4731 7.66986 25.9045C7.10127 25.336 6.78184 24.5648 6.78184 23.7607V15.2443C6.78184 14.4402 7.10127 13.669 7.66986 13.1004C8.23845 12.5318 9.00962 12.2124 9.81372 12.2124C10.6178 12.2124 11.389 12.5318 11.9576 13.1004C12.5262 13.669 12.8456 14.4402 12.8456 15.2443V23.7607ZM25.5719 14.3588C25.5719 14.0865 25.6801 13.8253 25.8726 13.6327C26.0652 13.4402 26.3264 13.332 26.5987 13.332C26.871 13.332 27.1322 13.4402 27.3247 13.6327C27.5173 13.8253 27.6255 14.0865 27.6255 14.3588V18.5202C27.1621 17.8671 26.7173 17.2597 26.4203 16.9077C26.1942 16.6392 25.9017 16.4346 25.5719 16.3144V14.3588ZM22.4871 14.1728C22.4871 13.9005 22.5953 13.6393 22.7878 13.4468C22.9804 13.2542 23.2416 13.146 23.5139 13.146C23.7862 13.146 24.0474 13.2542 24.2399 13.4468C24.4325 13.6393 24.5407 13.9005 24.5407 14.1728V16.2009C24.0137 16.2622 23.5229 16.4999 23.1481 16.8754C22.3338 17.689 22.308 18.9489 23.0742 20.0221C22.8991 19.9393 22.751 19.8086 22.6471 19.6452C22.5432 19.4817 22.4877 19.2921 22.4871 19.0984V14.1728ZM19.4026 14.6946C19.4001 14.5582 19.4248 14.4227 19.4753 14.296C19.5258 14.1692 19.601 14.0538 19.6966 13.9565C19.7922 13.8591 19.9062 13.7818 20.032 13.729C20.1578 13.6762 20.2928 13.6491 20.4292 13.6491C20.5657 13.6491 20.7007 13.6762 20.8265 13.729C20.9523 13.7818 21.0663 13.8591 21.1619 13.9565C21.2575 14.0538 21.3327 14.1692 21.3832 14.296C21.4336 14.4227 21.4583 14.5582 21.4558 14.6946V19.4343C21.4583 19.5706 21.4336 19.7062 21.3832 19.8329C21.3327 19.9597 21.2575 20.0751 21.1619 20.1724C21.0663 20.2698 20.9523 20.3471 20.8265 20.3999C20.7007 20.4526 20.5657 20.4798 20.4292 20.4798C20.2928 20.4798 20.1578 20.4526 20.032 20.3999C19.9062 20.3471 19.7922 20.2698 19.6966 20.1724C19.601 20.0751 19.5258 19.9597 19.4753 19.8329C19.4248 19.7062 19.4001 19.5706 19.4026 19.4343V14.6946ZM16.3178 15.9235C16.3178 15.6512 16.426 15.39 16.6185 15.1975C16.8111 15.0049 17.0723 14.8968 17.3446 14.8968C17.6169 14.8968 17.8781 15.0049 18.0706 15.1975C18.2632 15.39 18.3714 15.6512 18.3714 15.9235V19.6199C18.3714 19.8922 18.2632 20.1534 18.0706 20.3459C17.8781 20.5385 17.6169 20.6467 17.3446 20.6467C17.0723 20.6467 16.8111 20.5385 16.6185 20.3459C16.426 20.1534 16.3178 19.8922 16.3178 19.6199V15.9235ZM13.8772 16.7389H15.2866V19.6199C15.286 20.0488 15.4197 20.4672 15.6688 20.8164C15.918 21.1656 16.2701 21.4281 16.6759 21.5671C17.0817 21.7061 17.5208 21.7148 17.9317 21.5917C18.3426 21.4687 18.7048 21.2202 18.9674 20.8811C19.1797 21.0961 19.4367 21.2616 19.7202 21.3658C20.0037 21.4701 20.3067 21.5105 20.6077 21.4843C20.9086 21.458 21.2 21.3657 21.4612 21.2139C21.7224 21.0621 21.9468 20.8546 22.1186 20.6061C22.4974 20.9593 22.996 21.1558 23.5139 21.1561C23.6007 21.1557 23.6874 21.1498 23.7734 21.1382C23.9632 21.4754 24.1636 21.8601 24.3712 22.2788H13.8768L13.8772 16.7389ZM14.2374 23.3111C14.2333 23.3111 14.2302 23.3111 14.2264 23.3111H14.2471C14.2433 23.31 14.2405 23.3111 14.2371 23.3111H14.2374ZM29.5872 26.0377C29.2704 27.3288 28.7095 28.5474 27.9348 29.6278C26.8531 31.1802 26.2577 32.0341 26.2577 34.0443V42.065C26.2575 42.2096 26.2 42.3481 26.0978 42.4503C25.9956 42.5525 25.857 42.61 25.7125 42.6102H17.4412C17.2967 42.61 17.1581 42.5525 17.0559 42.4503C16.9537 42.3481 16.8962 42.2096 16.896 42.065V34.5428C16.896 32.7456 16.3941 30.8859 15.8627 28.9173C15.3656 27.0775 14.8641 25.1811 14.7812 23.31H23.3028C21.5053 23.8972 20.4617 25.707 20.1039 26.8208C20.0632 26.9506 20.0756 27.0913 20.1382 27.212C20.2008 27.3328 20.3087 27.424 20.4382 27.4656C20.5677 27.5073 20.7085 27.496 20.8297 27.4343C20.951 27.3726 21.043 27.2655 21.0856 27.1363C21.4215 26.0913 22.4754 24.2877 24.2925 24.1557C24.5193 24.1389 24.7385 24.0669 24.9311 23.9459C25.1237 23.8249 25.2837 23.6587 25.3973 23.4616C25.5134 23.2614 25.5788 23.0358 25.5878 22.8046C25.5967 22.5733 25.5489 22.3433 25.4485 22.1348C25.0197 21.1974 24.5109 20.2987 23.9278 19.4487C23.5579 18.9441 23.3227 18.1583 23.8765 17.6045C24.0069 17.4749 24.1625 17.3735 24.3337 17.3064C24.5049 17.2394 24.688 17.2081 24.8717 17.2147C25.0162 17.2177 25.1586 17.2511 25.2894 17.3127C25.4202 17.3743 25.5366 17.4627 25.631 17.5722C26.4794 18.5787 28.7162 21.9378 28.7464 21.9821C29.1638 22.5611 29.4543 23.2215 29.5991 23.9203C29.744 24.6191 29.7398 25.3406 29.5869 26.0377H29.5872ZM30.1232 22.3094C29.9732 21.9921 29.7971 21.6877 29.5969 21.3995C29.5553 21.3373 29.096 20.6484 28.522 19.8107C28.6089 19.5832 28.654 19.3419 28.6553 19.0984V16.7406H30.1218L30.1232 22.3094ZM37.2182 23.7624C37.2182 24.5665 36.8987 25.3377 36.3301 25.9063C35.7616 26.4749 34.9904 26.7943 34.1863 26.7943C33.3822 26.7943 32.611 26.4749 32.0424 25.9063C31.4738 25.3377 31.1544 24.5665 31.1544 23.7624V15.2443C31.1544 14.4402 31.4738 13.669 32.0424 13.1004C32.611 12.5318 33.3822 12.2124 34.1863 12.2124C34.9904 12.2124 35.7616 12.5318 36.3301 13.1004C36.8987 13.669 37.2182 14.4402 37.2182 15.2443V23.7624ZM39.8963 21.8824C39.8958 22.3632 39.7315 22.8295 39.4305 23.2044C39.1295 23.5794 38.7098 23.8405 38.2405 23.9449C38.2432 23.8844 38.2494 23.8246 38.2494 23.7631V15.2443C38.2494 15.1831 38.2432 15.1233 38.2405 15.0624C38.7097 15.167 39.1294 15.4282 39.4304 15.8031C39.7314 16.178 39.8957 16.6442 39.8963 17.1249V21.8824ZM42.625 19.7636C42.6246 20.0788 42.4992 20.381 42.2763 20.6039C42.0534 20.8268 41.7512 20.9522 41.436 20.9526H40.9276V18.0541H41.436C41.7512 18.0546 42.0535 18.18 42.2764 18.403C42.4993 18.6259 42.6246 18.9282 42.625 19.2435V19.7636Z" fill="#B0B0B0"/>
</svg>
